<mxfile host="app.diagrams.net" modified="2023-12-06T02:38:04.019Z" agent="Mozilla/5.0 (Windows NT 10.0; Win64; x64) AppleWebKit/537.36 (KHTML, like Gecko) Chrome/119.0.0.0 Safari/537.36 Edg/119.0.0.0" etag="ioWFj4nAwYFvPpeZLNbF" version="22.1.5" type="github">
  <diagram name="Page-1" id="7ZI6FeS_xlNIQGt1seG3">
    <mxGraphModel dx="1105" dy="621" grid="1" gridSize="1" guides="1" tooltips="1" connect="1" arrows="1" fold="1" page="1" pageScale="1" pageWidth="827" pageHeight="1169" math="0" shadow="0">
      <root>
        <mxCell id="0" />
        <mxCell id="1" parent="0" />
        <mxCell id="X-1EoEnKetWkJ9hzd2uH-139" value="" style="shape=table;startSize=0;container=1;collapsible=0;childLayout=tableLayout;fontSize=16;strokeColor=default;align=center;verticalAlign=middle;fontFamily=Times New Roman;fontColor=default;fillColor=default;" vertex="1" parent="1">
          <mxGeometry x="227.5" y="240" width="90" height="90" as="geometry" />
        </mxCell>
        <mxCell id="X-1EoEnKetWkJ9hzd2uH-140" value="" style="shape=tableRow;horizontal=0;startSize=0;swimlaneHead=0;swimlaneBody=0;strokeColor=inherit;top=0;left=0;bottom=0;right=0;collapsible=0;dropTarget=0;fillColor=none;points=[[0,0.5],[1,0.5]];portConstraint=eastwest;fontSize=16;align=center;verticalAlign=middle;fontFamily=Times New Roman;fontColor=default;" vertex="1" parent="X-1EoEnKetWkJ9hzd2uH-139">
          <mxGeometry width="90" height="30" as="geometry" />
        </mxCell>
        <mxCell id="X-1EoEnKetWkJ9hzd2uH-141" value="R1" style="shape=partialRectangle;html=1;whiteSpace=wrap;connectable=0;strokeColor=inherit;overflow=hidden;fillColor=none;top=0;left=0;bottom=0;right=0;pointerEvents=1;fontSize=16;align=center;verticalAlign=middle;fontFamily=Times New Roman;fontColor=default;startSize=0;" vertex="1" parent="X-1EoEnKetWkJ9hzd2uH-140">
          <mxGeometry width="30" height="30" as="geometry">
            <mxRectangle width="30" height="30" as="alternateBounds" />
          </mxGeometry>
        </mxCell>
        <mxCell id="X-1EoEnKetWkJ9hzd2uH-142" value="R2" style="shape=partialRectangle;html=1;whiteSpace=wrap;connectable=0;strokeColor=inherit;overflow=hidden;fillColor=none;top=0;left=0;bottom=0;right=0;pointerEvents=1;fontSize=16;align=center;verticalAlign=middle;fontFamily=Times New Roman;fontColor=default;startSize=0;" vertex="1" parent="X-1EoEnKetWkJ9hzd2uH-140">
          <mxGeometry x="30" width="30" height="30" as="geometry">
            <mxRectangle width="30" height="30" as="alternateBounds" />
          </mxGeometry>
        </mxCell>
        <mxCell id="X-1EoEnKetWkJ9hzd2uH-143" value="R3" style="shape=partialRectangle;html=1;whiteSpace=wrap;connectable=0;strokeColor=inherit;overflow=hidden;fillColor=none;top=0;left=0;bottom=0;right=0;pointerEvents=1;fontSize=16;align=center;verticalAlign=middle;fontFamily=Times New Roman;fontColor=default;startSize=0;" vertex="1" parent="X-1EoEnKetWkJ9hzd2uH-140">
          <mxGeometry x="60" width="30" height="30" as="geometry">
            <mxRectangle width="30" height="30" as="alternateBounds" />
          </mxGeometry>
        </mxCell>
        <mxCell id="X-1EoEnKetWkJ9hzd2uH-144" value="" style="shape=tableRow;horizontal=0;startSize=0;swimlaneHead=0;swimlaneBody=0;strokeColor=inherit;top=0;left=0;bottom=0;right=0;collapsible=0;dropTarget=0;fillColor=none;points=[[0,0.5],[1,0.5]];portConstraint=eastwest;fontSize=16;align=center;verticalAlign=middle;fontFamily=Times New Roman;fontColor=default;" vertex="1" parent="X-1EoEnKetWkJ9hzd2uH-139">
          <mxGeometry y="30" width="90" height="30" as="geometry" />
        </mxCell>
        <mxCell id="X-1EoEnKetWkJ9hzd2uH-145" value="0" style="shape=partialRectangle;html=1;whiteSpace=wrap;connectable=0;strokeColor=inherit;overflow=hidden;fillColor=none;top=0;left=0;bottom=0;right=0;pointerEvents=1;fontSize=16;align=center;verticalAlign=middle;fontFamily=Times New Roman;fontColor=default;startSize=0;" vertex="1" parent="X-1EoEnKetWkJ9hzd2uH-144">
          <mxGeometry width="30" height="30" as="geometry">
            <mxRectangle width="30" height="30" as="alternateBounds" />
          </mxGeometry>
        </mxCell>
        <mxCell id="X-1EoEnKetWkJ9hzd2uH-146" value="1" style="shape=partialRectangle;html=1;whiteSpace=wrap;connectable=0;strokeColor=inherit;overflow=hidden;fillColor=none;top=0;left=0;bottom=0;right=0;pointerEvents=1;fontSize=16;align=center;verticalAlign=middle;fontFamily=Times New Roman;fontColor=default;startSize=0;" vertex="1" parent="X-1EoEnKetWkJ9hzd2uH-144">
          <mxGeometry x="30" width="30" height="30" as="geometry">
            <mxRectangle width="30" height="30" as="alternateBounds" />
          </mxGeometry>
        </mxCell>
        <mxCell id="X-1EoEnKetWkJ9hzd2uH-147" value="0" style="shape=partialRectangle;html=1;whiteSpace=wrap;connectable=0;strokeColor=inherit;overflow=hidden;fillColor=none;top=0;left=0;bottom=0;right=0;pointerEvents=1;fontSize=16;align=center;verticalAlign=middle;fontFamily=Times New Roman;fontColor=default;startSize=0;" vertex="1" parent="X-1EoEnKetWkJ9hzd2uH-144">
          <mxGeometry x="60" width="30" height="30" as="geometry">
            <mxRectangle width="30" height="30" as="alternateBounds" />
          </mxGeometry>
        </mxCell>
        <mxCell id="X-1EoEnKetWkJ9hzd2uH-148" value="" style="shape=tableRow;horizontal=0;startSize=0;swimlaneHead=0;swimlaneBody=0;strokeColor=inherit;top=0;left=0;bottom=0;right=0;collapsible=0;dropTarget=0;fillColor=none;points=[[0,0.5],[1,0.5]];portConstraint=eastwest;fontSize=16;align=center;verticalAlign=middle;fontFamily=Times New Roman;fontColor=default;" vertex="1" parent="X-1EoEnKetWkJ9hzd2uH-139">
          <mxGeometry y="60" width="90" height="30" as="geometry" />
        </mxCell>
        <mxCell id="X-1EoEnKetWkJ9hzd2uH-149" value="1" style="shape=partialRectangle;html=1;whiteSpace=wrap;connectable=0;strokeColor=inherit;overflow=hidden;fillColor=none;top=0;left=0;bottom=0;right=0;pointerEvents=1;fontSize=16;align=center;verticalAlign=middle;fontFamily=Times New Roman;fontColor=default;startSize=0;" vertex="1" parent="X-1EoEnKetWkJ9hzd2uH-148">
          <mxGeometry width="30" height="30" as="geometry">
            <mxRectangle width="30" height="30" as="alternateBounds" />
          </mxGeometry>
        </mxCell>
        <mxCell id="X-1EoEnKetWkJ9hzd2uH-150" value="0" style="shape=partialRectangle;html=1;whiteSpace=wrap;connectable=0;strokeColor=inherit;overflow=hidden;fillColor=none;top=0;left=0;bottom=0;right=0;pointerEvents=1;fontSize=16;align=center;verticalAlign=middle;fontFamily=Times New Roman;fontColor=default;startSize=0;" vertex="1" parent="X-1EoEnKetWkJ9hzd2uH-148">
          <mxGeometry x="30" width="30" height="30" as="geometry">
            <mxRectangle width="30" height="30" as="alternateBounds" />
          </mxGeometry>
        </mxCell>
        <mxCell id="X-1EoEnKetWkJ9hzd2uH-151" value="0" style="shape=partialRectangle;html=1;whiteSpace=wrap;connectable=0;strokeColor=inherit;overflow=hidden;fillColor=none;top=0;left=0;bottom=0;right=0;pointerEvents=1;fontSize=16;align=center;verticalAlign=middle;fontFamily=Times New Roman;fontColor=default;startSize=0;" vertex="1" parent="X-1EoEnKetWkJ9hzd2uH-148">
          <mxGeometry x="60" width="30" height="30" as="geometry">
            <mxRectangle width="30" height="30" as="alternateBounds" />
          </mxGeometry>
        </mxCell>
        <mxCell id="X-1EoEnKetWkJ9hzd2uH-166" value="" style="shape=table;startSize=0;container=1;collapsible=0;childLayout=tableLayout;fontSize=16;strokeColor=default;align=center;verticalAlign=middle;fontFamily=Times New Roman;fontColor=default;fillColor=default;" vertex="1" parent="1">
          <mxGeometry x="227.5" y="360" width="90" height="30" as="geometry" />
        </mxCell>
        <mxCell id="X-1EoEnKetWkJ9hzd2uH-175" value="" style="shape=tableRow;horizontal=0;startSize=0;swimlaneHead=0;swimlaneBody=0;strokeColor=inherit;top=0;left=0;bottom=0;right=0;collapsible=0;dropTarget=0;fillColor=none;points=[[0,0.5],[1,0.5]];portConstraint=eastwest;fontSize=16;align=center;verticalAlign=middle;fontFamily=Times New Roman;fontColor=default;" vertex="1" parent="X-1EoEnKetWkJ9hzd2uH-166">
          <mxGeometry width="90" height="30" as="geometry" />
        </mxCell>
        <mxCell id="X-1EoEnKetWkJ9hzd2uH-176" value="&lt;b&gt;&lt;font color=&quot;#ff0000&quot;&gt;1&lt;/font&gt;&lt;/b&gt;" style="shape=partialRectangle;html=1;whiteSpace=wrap;connectable=0;strokeColor=inherit;overflow=hidden;fillColor=none;top=0;left=0;bottom=0;right=0;pointerEvents=1;fontSize=16;align=center;verticalAlign=middle;fontFamily=Times New Roman;fontColor=default;startSize=0;" vertex="1" parent="X-1EoEnKetWkJ9hzd2uH-175">
          <mxGeometry width="30" height="30" as="geometry">
            <mxRectangle width="30" height="30" as="alternateBounds" />
          </mxGeometry>
        </mxCell>
        <mxCell id="X-1EoEnKetWkJ9hzd2uH-177" value="X" style="shape=partialRectangle;html=1;whiteSpace=wrap;connectable=0;strokeColor=inherit;overflow=hidden;fillColor=none;top=0;left=0;bottom=0;right=0;pointerEvents=1;fontSize=16;align=center;verticalAlign=middle;fontFamily=Times New Roman;fontColor=default;startSize=0;" vertex="1" parent="X-1EoEnKetWkJ9hzd2uH-175">
          <mxGeometry x="30" width="30" height="30" as="geometry">
            <mxRectangle width="30" height="30" as="alternateBounds" />
          </mxGeometry>
        </mxCell>
        <mxCell id="X-1EoEnKetWkJ9hzd2uH-178" value="X" style="shape=partialRectangle;html=1;whiteSpace=wrap;connectable=0;strokeColor=inherit;overflow=hidden;fillColor=none;top=0;left=0;bottom=0;right=0;pointerEvents=1;fontSize=16;align=center;verticalAlign=middle;fontFamily=Times New Roman;fontColor=default;startSize=0;" vertex="1" parent="X-1EoEnKetWkJ9hzd2uH-175">
          <mxGeometry x="60" width="30" height="30" as="geometry">
            <mxRectangle width="30" height="30" as="alternateBounds" />
          </mxGeometry>
        </mxCell>
        <mxCell id="X-1EoEnKetWkJ9hzd2uH-187" value="SEARCH" style="text;html=1;align=center;verticalAlign=middle;resizable=0;points=[];autosize=1;strokeColor=none;fillColor=none;fontSize=16;fontFamily=Times New Roman;fontColor=default;" vertex="1" parent="1">
          <mxGeometry x="317.5" y="360" width="90" height="30" as="geometry" />
        </mxCell>
        <mxCell id="X-1EoEnKetWkJ9hzd2uH-205" value="" style="shape=table;startSize=0;container=1;collapsible=0;childLayout=tableLayout;fontSize=16;strokeColor=default;align=center;verticalAlign=middle;fontFamily=Times New Roman;fontColor=default;fillColor=default;fontStyle=1" vertex="1" parent="1">
          <mxGeometry x="347.5" y="270" width="30" height="60" as="geometry" />
        </mxCell>
        <mxCell id="X-1EoEnKetWkJ9hzd2uH-210" value="" style="shape=tableRow;horizontal=0;startSize=0;swimlaneHead=0;swimlaneBody=0;strokeColor=inherit;top=0;left=0;bottom=0;right=0;collapsible=0;dropTarget=0;fillColor=none;points=[[0,0.5],[1,0.5]];portConstraint=eastwest;fontSize=16;align=center;verticalAlign=middle;fontFamily=Times New Roman;fontColor=default;" vertex="1" parent="X-1EoEnKetWkJ9hzd2uH-205">
          <mxGeometry width="30" height="30" as="geometry" />
        </mxCell>
        <mxCell id="X-1EoEnKetWkJ9hzd2uH-232" style="shape=partialRectangle;html=1;whiteSpace=wrap;connectable=0;strokeColor=inherit;overflow=hidden;fillColor=none;top=0;left=0;bottom=0;right=0;pointerEvents=1;fontSize=16;align=center;verticalAlign=middle;fontFamily=Times New Roman;fontColor=default;startSize=0;" vertex="1" parent="X-1EoEnKetWkJ9hzd2uH-210">
          <mxGeometry height="30" as="geometry">
            <mxRectangle height="30" as="alternateBounds" />
          </mxGeometry>
        </mxCell>
        <mxCell id="X-1EoEnKetWkJ9hzd2uH-228" style="shape=partialRectangle;html=1;whiteSpace=wrap;connectable=0;strokeColor=inherit;overflow=hidden;fillColor=none;top=0;left=0;bottom=0;right=0;pointerEvents=1;fontSize=16;align=center;verticalAlign=middle;fontFamily=Times New Roman;fontColor=default;startSize=0;" vertex="1" parent="X-1EoEnKetWkJ9hzd2uH-210">
          <mxGeometry height="30" as="geometry">
            <mxRectangle height="30" as="alternateBounds" />
          </mxGeometry>
        </mxCell>
        <mxCell id="X-1EoEnKetWkJ9hzd2uH-226" style="shape=partialRectangle;html=1;whiteSpace=wrap;connectable=0;strokeColor=inherit;overflow=hidden;fillColor=none;top=0;left=0;bottom=0;right=0;pointerEvents=1;fontSize=16;align=center;verticalAlign=middle;fontFamily=Times New Roman;fontColor=default;startSize=0;" vertex="1" parent="X-1EoEnKetWkJ9hzd2uH-210">
          <mxGeometry height="30" as="geometry">
            <mxRectangle height="30" as="alternateBounds" />
          </mxGeometry>
        </mxCell>
        <mxCell id="X-1EoEnKetWkJ9hzd2uH-224" style="shape=partialRectangle;html=1;whiteSpace=wrap;connectable=0;strokeColor=inherit;overflow=hidden;fillColor=none;top=0;left=0;bottom=0;right=0;pointerEvents=1;fontSize=16;align=center;verticalAlign=middle;fontFamily=Times New Roman;fontColor=default;startSize=0;" vertex="1" parent="X-1EoEnKetWkJ9hzd2uH-210">
          <mxGeometry height="30" as="geometry">
            <mxRectangle height="30" as="alternateBounds" />
          </mxGeometry>
        </mxCell>
        <mxCell id="X-1EoEnKetWkJ9hzd2uH-222" style="shape=partialRectangle;html=1;whiteSpace=wrap;connectable=0;strokeColor=inherit;overflow=hidden;fillColor=none;top=0;left=0;bottom=0;right=0;pointerEvents=1;fontSize=16;align=center;verticalAlign=middle;fontFamily=Times New Roman;fontColor=default;startSize=0;" vertex="1" parent="X-1EoEnKetWkJ9hzd2uH-210">
          <mxGeometry height="30" as="geometry">
            <mxRectangle height="30" as="alternateBounds" />
          </mxGeometry>
        </mxCell>
        <mxCell id="X-1EoEnKetWkJ9hzd2uH-220" style="shape=partialRectangle;html=1;whiteSpace=wrap;connectable=0;strokeColor=inherit;overflow=hidden;fillColor=none;top=0;left=0;bottom=0;right=0;pointerEvents=1;fontSize=16;align=center;verticalAlign=middle;fontFamily=Times New Roman;fontColor=default;startSize=0;" vertex="1" parent="X-1EoEnKetWkJ9hzd2uH-210">
          <mxGeometry height="30" as="geometry">
            <mxRectangle height="30" as="alternateBounds" />
          </mxGeometry>
        </mxCell>
        <mxCell id="X-1EoEnKetWkJ9hzd2uH-218" style="shape=partialRectangle;html=1;whiteSpace=wrap;connectable=0;strokeColor=inherit;overflow=hidden;fillColor=none;top=0;left=0;bottom=0;right=0;pointerEvents=1;fontSize=16;align=center;verticalAlign=middle;fontFamily=Times New Roman;fontColor=default;startSize=0;" vertex="1" parent="X-1EoEnKetWkJ9hzd2uH-210">
          <mxGeometry height="30" as="geometry">
            <mxRectangle height="30" as="alternateBounds" />
          </mxGeometry>
        </mxCell>
        <mxCell id="X-1EoEnKetWkJ9hzd2uH-211" value="" style="shape=partialRectangle;html=1;whiteSpace=wrap;connectable=0;strokeColor=inherit;overflow=hidden;fillColor=none;top=0;left=0;bottom=0;right=0;pointerEvents=1;fontSize=16;align=center;verticalAlign=middle;fontFamily=Times New Roman;fontColor=default;startSize=0;" vertex="1" parent="X-1EoEnKetWkJ9hzd2uH-210">
          <mxGeometry height="30" as="geometry">
            <mxRectangle height="30" as="alternateBounds" />
          </mxGeometry>
        </mxCell>
        <mxCell id="X-1EoEnKetWkJ9hzd2uH-212" value="X" style="shape=partialRectangle;html=1;whiteSpace=wrap;connectable=0;strokeColor=inherit;overflow=hidden;fillColor=none;top=0;left=0;bottom=0;right=0;pointerEvents=1;fontSize=16;align=center;verticalAlign=middle;fontFamily=Times New Roman;fontColor=default;startSize=0;" vertex="1" parent="X-1EoEnKetWkJ9hzd2uH-210">
          <mxGeometry width="30" height="30" as="geometry">
            <mxRectangle width="30" height="30" as="alternateBounds" />
          </mxGeometry>
        </mxCell>
        <mxCell id="X-1EoEnKetWkJ9hzd2uH-214" value="" style="shape=tableRow;horizontal=0;startSize=0;swimlaneHead=0;swimlaneBody=0;strokeColor=inherit;top=0;left=0;bottom=0;right=0;collapsible=0;dropTarget=0;fillColor=none;points=[[0,0.5],[1,0.5]];portConstraint=eastwest;fontSize=16;align=center;verticalAlign=middle;fontFamily=Times New Roman;fontColor=default;" vertex="1" parent="X-1EoEnKetWkJ9hzd2uH-205">
          <mxGeometry y="30" width="30" height="30" as="geometry" />
        </mxCell>
        <mxCell id="X-1EoEnKetWkJ9hzd2uH-233" style="shape=partialRectangle;html=1;whiteSpace=wrap;connectable=0;strokeColor=inherit;overflow=hidden;fillColor=none;top=0;left=0;bottom=0;right=0;pointerEvents=1;fontSize=16;align=center;verticalAlign=middle;fontFamily=Times New Roman;fontColor=default;startSize=0;" vertex="1" parent="X-1EoEnKetWkJ9hzd2uH-214">
          <mxGeometry height="30" as="geometry">
            <mxRectangle height="30" as="alternateBounds" />
          </mxGeometry>
        </mxCell>
        <mxCell id="X-1EoEnKetWkJ9hzd2uH-229" style="shape=partialRectangle;html=1;whiteSpace=wrap;connectable=0;strokeColor=inherit;overflow=hidden;fillColor=none;top=0;left=0;bottom=0;right=0;pointerEvents=1;fontSize=16;align=center;verticalAlign=middle;fontFamily=Times New Roman;fontColor=default;startSize=0;" vertex="1" parent="X-1EoEnKetWkJ9hzd2uH-214">
          <mxGeometry height="30" as="geometry">
            <mxRectangle height="30" as="alternateBounds" />
          </mxGeometry>
        </mxCell>
        <mxCell id="X-1EoEnKetWkJ9hzd2uH-227" style="shape=partialRectangle;html=1;whiteSpace=wrap;connectable=0;strokeColor=inherit;overflow=hidden;fillColor=none;top=0;left=0;bottom=0;right=0;pointerEvents=1;fontSize=16;align=center;verticalAlign=middle;fontFamily=Times New Roman;fontColor=default;startSize=0;" vertex="1" parent="X-1EoEnKetWkJ9hzd2uH-214">
          <mxGeometry height="30" as="geometry">
            <mxRectangle height="30" as="alternateBounds" />
          </mxGeometry>
        </mxCell>
        <mxCell id="X-1EoEnKetWkJ9hzd2uH-225" style="shape=partialRectangle;html=1;whiteSpace=wrap;connectable=0;strokeColor=inherit;overflow=hidden;fillColor=none;top=0;left=0;bottom=0;right=0;pointerEvents=1;fontSize=16;align=center;verticalAlign=middle;fontFamily=Times New Roman;fontColor=default;startSize=0;" vertex="1" parent="X-1EoEnKetWkJ9hzd2uH-214">
          <mxGeometry height="30" as="geometry">
            <mxRectangle height="30" as="alternateBounds" />
          </mxGeometry>
        </mxCell>
        <mxCell id="X-1EoEnKetWkJ9hzd2uH-223" style="shape=partialRectangle;html=1;whiteSpace=wrap;connectable=0;strokeColor=inherit;overflow=hidden;fillColor=none;top=0;left=0;bottom=0;right=0;pointerEvents=1;fontSize=16;align=center;verticalAlign=middle;fontFamily=Times New Roman;fontColor=default;startSize=0;" vertex="1" parent="X-1EoEnKetWkJ9hzd2uH-214">
          <mxGeometry height="30" as="geometry">
            <mxRectangle height="30" as="alternateBounds" />
          </mxGeometry>
        </mxCell>
        <mxCell id="X-1EoEnKetWkJ9hzd2uH-221" style="shape=partialRectangle;html=1;whiteSpace=wrap;connectable=0;strokeColor=inherit;overflow=hidden;fillColor=none;top=0;left=0;bottom=0;right=0;pointerEvents=1;fontSize=16;align=center;verticalAlign=middle;fontFamily=Times New Roman;fontColor=default;startSize=0;" vertex="1" parent="X-1EoEnKetWkJ9hzd2uH-214">
          <mxGeometry height="30" as="geometry">
            <mxRectangle height="30" as="alternateBounds" />
          </mxGeometry>
        </mxCell>
        <mxCell id="X-1EoEnKetWkJ9hzd2uH-219" style="shape=partialRectangle;html=1;whiteSpace=wrap;connectable=0;strokeColor=inherit;overflow=hidden;fillColor=none;top=0;left=0;bottom=0;right=0;pointerEvents=1;fontSize=16;align=center;verticalAlign=middle;fontFamily=Times New Roman;fontColor=default;startSize=0;" vertex="1" parent="X-1EoEnKetWkJ9hzd2uH-214">
          <mxGeometry height="30" as="geometry">
            <mxRectangle height="30" as="alternateBounds" />
          </mxGeometry>
        </mxCell>
        <mxCell id="X-1EoEnKetWkJ9hzd2uH-215" value="" style="shape=partialRectangle;html=1;whiteSpace=wrap;connectable=0;strokeColor=inherit;overflow=hidden;fillColor=none;top=0;left=0;bottom=0;right=0;pointerEvents=1;fontSize=16;align=center;verticalAlign=middle;fontFamily=Times New Roman;fontColor=default;startSize=0;" vertex="1" parent="X-1EoEnKetWkJ9hzd2uH-214">
          <mxGeometry height="30" as="geometry">
            <mxRectangle height="30" as="alternateBounds" />
          </mxGeometry>
        </mxCell>
        <mxCell id="X-1EoEnKetWkJ9hzd2uH-216" value="&lt;font color=&quot;#ff0000&quot;&gt;&lt;b&gt;1&lt;/b&gt;&lt;/font&gt;" style="shape=partialRectangle;html=1;whiteSpace=wrap;connectable=0;strokeColor=inherit;overflow=hidden;fillColor=none;top=0;left=0;bottom=0;right=0;pointerEvents=1;fontSize=16;align=center;verticalAlign=middle;fontFamily=Times New Roman;fontColor=default;startSize=0;" vertex="1" parent="X-1EoEnKetWkJ9hzd2uH-214">
          <mxGeometry width="30" height="30" as="geometry">
            <mxRectangle width="30" height="30" as="alternateBounds" />
          </mxGeometry>
        </mxCell>
        <mxCell id="X-1EoEnKetWkJ9hzd2uH-234" value="TAG" style="text;html=1;align=center;verticalAlign=middle;resizable=0;points=[];autosize=1;strokeColor=none;fillColor=none;fontSize=16;fontFamily=Times New Roman;fontColor=default;" vertex="1" parent="1">
          <mxGeometry x="332.5" y="240" width="60" height="30" as="geometry" />
        </mxCell>
        <mxCell id="X-1EoEnKetWkJ9hzd2uH-235" value="" style="endArrow=classic;html=1;rounded=0;fontFamily=Times New Roman;fontSize=16;fontColor=default;startSize=0;exitX=1;exitY=0.5;exitDx=0;exitDy=0;entryX=0;entryY=0.5;entryDx=0;entryDy=0;" edge="1" parent="1" source="X-1EoEnKetWkJ9hzd2uH-148" target="X-1EoEnKetWkJ9hzd2uH-214">
          <mxGeometry width="50" height="50" relative="1" as="geometry">
            <mxPoint x="287.5" y="360" as="sourcePoint" />
            <mxPoint x="337.5" y="310" as="targetPoint" />
          </mxGeometry>
        </mxCell>
        <mxCell id="X-1EoEnKetWkJ9hzd2uH-238" value="" style="endArrow=classic;html=1;rounded=0;fontFamily=Times New Roman;fontSize=16;fontColor=default;startSize=0;entryX=0;entryY=0.5;entryDx=0;entryDy=0;exitX=1;exitY=0.5;exitDx=0;exitDy=0;" edge="1" parent="1" source="X-1EoEnKetWkJ9hzd2uH-144" target="X-1EoEnKetWkJ9hzd2uH-210">
          <mxGeometry width="50" height="50" relative="1" as="geometry">
            <mxPoint x="302.5" y="395" as="sourcePoint" />
            <mxPoint x="352.5" y="345" as="targetPoint" />
          </mxGeometry>
        </mxCell>
        <mxCell id="X-1EoEnKetWkJ9hzd2uH-239" value="" style="endArrow=classic;html=1;rounded=0;fontFamily=Times New Roman;fontSize=16;fontColor=default;startSize=0;entryX=0.155;entryY=0.997;entryDx=0;entryDy=0;entryPerimeter=0;" edge="1" parent="1">
          <mxGeometry width="50" height="50" relative="1" as="geometry">
            <mxPoint x="242.5" y="359" as="sourcePoint" />
            <mxPoint x="242.49999999999994" y="329.99999999999994" as="targetPoint" />
          </mxGeometry>
        </mxCell>
        <mxCell id="X-1EoEnKetWkJ9hzd2uH-254" value="" style="endArrow=classic;html=1;rounded=0;fontFamily=Times New Roman;fontSize=16;fontColor=default;startSize=0;entryX=0.155;entryY=0.997;entryDx=0;entryDy=0;entryPerimeter=0;" edge="1" parent="1">
          <mxGeometry width="50" height="50" relative="1" as="geometry">
            <mxPoint x="272.39" y="360" as="sourcePoint" />
            <mxPoint x="272.38999999999993" y="330.99999999999994" as="targetPoint" />
            <Array as="points">
              <mxPoint x="272.39" y="331" />
            </Array>
          </mxGeometry>
        </mxCell>
        <mxCell id="X-1EoEnKetWkJ9hzd2uH-255" value="" style="endArrow=classic;html=1;rounded=0;fontFamily=Times New Roman;fontSize=16;fontColor=default;startSize=0;entryX=0.155;entryY=0.997;entryDx=0;entryDy=0;entryPerimeter=0;" edge="1" parent="1">
          <mxGeometry width="50" height="50" relative="1" as="geometry">
            <mxPoint x="302.5" y="360" as="sourcePoint" />
            <mxPoint x="302.49999999999994" y="330.99999999999994" as="targetPoint" />
            <Array as="points">
              <mxPoint x="302.5" y="331" />
            </Array>
          </mxGeometry>
        </mxCell>
        <mxCell id="X-1EoEnKetWkJ9hzd2uH-256" value="" style="shape=table;startSize=0;container=1;collapsible=0;childLayout=tableLayout;fontSize=16;strokeColor=default;align=center;verticalAlign=middle;fontFamily=Times New Roman;fontColor=default;fillColor=default;" vertex="1" parent="1">
          <mxGeometry x="422.5" y="240" width="90" height="90" as="geometry" />
        </mxCell>
        <mxCell id="X-1EoEnKetWkJ9hzd2uH-257" value="" style="shape=tableRow;horizontal=0;startSize=0;swimlaneHead=0;swimlaneBody=0;strokeColor=inherit;top=0;left=0;bottom=0;right=0;collapsible=0;dropTarget=0;fillColor=none;points=[[0,0.5],[1,0.5]];portConstraint=eastwest;fontSize=16;align=center;verticalAlign=middle;fontFamily=Times New Roman;fontColor=default;" vertex="1" parent="X-1EoEnKetWkJ9hzd2uH-256">
          <mxGeometry width="90" height="30" as="geometry" />
        </mxCell>
        <mxCell id="X-1EoEnKetWkJ9hzd2uH-258" value="R1" style="shape=partialRectangle;html=1;whiteSpace=wrap;connectable=0;strokeColor=inherit;overflow=hidden;fillColor=none;top=0;left=0;bottom=0;right=0;pointerEvents=1;fontSize=16;align=center;verticalAlign=middle;fontFamily=Times New Roman;fontColor=default;startSize=0;" vertex="1" parent="X-1EoEnKetWkJ9hzd2uH-257">
          <mxGeometry width="30" height="30" as="geometry">
            <mxRectangle width="30" height="30" as="alternateBounds" />
          </mxGeometry>
        </mxCell>
        <mxCell id="X-1EoEnKetWkJ9hzd2uH-259" value="R2" style="shape=partialRectangle;html=1;whiteSpace=wrap;connectable=0;strokeColor=inherit;overflow=hidden;fillColor=none;top=0;left=0;bottom=0;right=0;pointerEvents=1;fontSize=16;align=center;verticalAlign=middle;fontFamily=Times New Roman;fontColor=default;startSize=0;" vertex="1" parent="X-1EoEnKetWkJ9hzd2uH-257">
          <mxGeometry x="30" width="30" height="30" as="geometry">
            <mxRectangle width="30" height="30" as="alternateBounds" />
          </mxGeometry>
        </mxCell>
        <mxCell id="X-1EoEnKetWkJ9hzd2uH-260" value="R3" style="shape=partialRectangle;html=1;whiteSpace=wrap;connectable=0;strokeColor=inherit;overflow=hidden;fillColor=none;top=0;left=0;bottom=0;right=0;pointerEvents=1;fontSize=16;align=center;verticalAlign=middle;fontFamily=Times New Roman;fontColor=default;startSize=0;" vertex="1" parent="X-1EoEnKetWkJ9hzd2uH-257">
          <mxGeometry x="60" width="30" height="30" as="geometry">
            <mxRectangle width="30" height="30" as="alternateBounds" />
          </mxGeometry>
        </mxCell>
        <mxCell id="X-1EoEnKetWkJ9hzd2uH-261" value="" style="shape=tableRow;horizontal=0;startSize=0;swimlaneHead=0;swimlaneBody=0;strokeColor=inherit;top=0;left=0;bottom=0;right=0;collapsible=0;dropTarget=0;fillColor=none;points=[[0,0.5],[1,0.5]];portConstraint=eastwest;fontSize=16;align=center;verticalAlign=middle;fontFamily=Times New Roman;fontColor=default;" vertex="1" parent="X-1EoEnKetWkJ9hzd2uH-256">
          <mxGeometry y="30" width="90" height="30" as="geometry" />
        </mxCell>
        <mxCell id="X-1EoEnKetWkJ9hzd2uH-262" value="0" style="shape=partialRectangle;html=1;whiteSpace=wrap;connectable=0;strokeColor=inherit;overflow=hidden;fillColor=none;top=0;left=0;bottom=0;right=0;pointerEvents=1;fontSize=16;align=center;verticalAlign=middle;fontFamily=Times New Roman;fontColor=default;startSize=0;" vertex="1" parent="X-1EoEnKetWkJ9hzd2uH-261">
          <mxGeometry width="30" height="30" as="geometry">
            <mxRectangle width="30" height="30" as="alternateBounds" />
          </mxGeometry>
        </mxCell>
        <mxCell id="X-1EoEnKetWkJ9hzd2uH-263" value="1" style="shape=partialRectangle;html=1;whiteSpace=wrap;connectable=0;strokeColor=inherit;overflow=hidden;fillColor=none;top=0;left=0;bottom=0;right=0;pointerEvents=1;fontSize=16;align=center;verticalAlign=middle;fontFamily=Times New Roman;fontColor=default;startSize=0;" vertex="1" parent="X-1EoEnKetWkJ9hzd2uH-261">
          <mxGeometry x="30" width="30" height="30" as="geometry">
            <mxRectangle width="30" height="30" as="alternateBounds" />
          </mxGeometry>
        </mxCell>
        <mxCell id="X-1EoEnKetWkJ9hzd2uH-264" value="0" style="shape=partialRectangle;html=1;whiteSpace=wrap;connectable=0;strokeColor=inherit;overflow=hidden;fillColor=none;top=0;left=0;bottom=0;right=0;pointerEvents=1;fontSize=16;align=center;verticalAlign=middle;fontFamily=Times New Roman;fontColor=default;startSize=0;" vertex="1" parent="X-1EoEnKetWkJ9hzd2uH-261">
          <mxGeometry x="60" width="30" height="30" as="geometry">
            <mxRectangle width="30" height="30" as="alternateBounds" />
          </mxGeometry>
        </mxCell>
        <mxCell id="X-1EoEnKetWkJ9hzd2uH-265" value="" style="shape=tableRow;horizontal=0;startSize=0;swimlaneHead=0;swimlaneBody=0;strokeColor=inherit;top=0;left=0;bottom=0;right=0;collapsible=0;dropTarget=0;fillColor=none;points=[[0,0.5],[1,0.5]];portConstraint=eastwest;fontSize=16;align=center;verticalAlign=middle;fontFamily=Times New Roman;fontColor=default;" vertex="1" parent="X-1EoEnKetWkJ9hzd2uH-256">
          <mxGeometry y="60" width="90" height="30" as="geometry" />
        </mxCell>
        <mxCell id="X-1EoEnKetWkJ9hzd2uH-266" value="1" style="shape=partialRectangle;html=1;whiteSpace=wrap;connectable=0;strokeColor=inherit;overflow=hidden;fillColor=none;top=0;left=0;bottom=0;right=0;pointerEvents=1;fontSize=16;align=center;verticalAlign=middle;fontFamily=Times New Roman;fontColor=default;startSize=0;" vertex="1" parent="X-1EoEnKetWkJ9hzd2uH-265">
          <mxGeometry width="30" height="30" as="geometry">
            <mxRectangle width="30" height="30" as="alternateBounds" />
          </mxGeometry>
        </mxCell>
        <mxCell id="X-1EoEnKetWkJ9hzd2uH-267" value="0" style="shape=partialRectangle;html=1;whiteSpace=wrap;connectable=0;strokeColor=inherit;overflow=hidden;fillColor=none;top=0;left=0;bottom=0;right=0;pointerEvents=1;fontSize=16;align=center;verticalAlign=middle;fontFamily=Times New Roman;fontColor=default;startSize=0;" vertex="1" parent="X-1EoEnKetWkJ9hzd2uH-265">
          <mxGeometry x="30" width="30" height="30" as="geometry">
            <mxRectangle width="30" height="30" as="alternateBounds" />
          </mxGeometry>
        </mxCell>
        <mxCell id="X-1EoEnKetWkJ9hzd2uH-268" value="0" style="shape=partialRectangle;html=1;whiteSpace=wrap;connectable=0;strokeColor=inherit;overflow=hidden;fillColor=none;top=0;left=0;bottom=0;right=0;pointerEvents=1;fontSize=16;align=center;verticalAlign=middle;fontFamily=Times New Roman;fontColor=default;startSize=0;" vertex="1" parent="X-1EoEnKetWkJ9hzd2uH-265">
          <mxGeometry x="60" width="30" height="30" as="geometry">
            <mxRectangle width="30" height="30" as="alternateBounds" />
          </mxGeometry>
        </mxCell>
        <mxCell id="X-1EoEnKetWkJ9hzd2uH-269" value="" style="shape=table;startSize=0;container=1;collapsible=0;childLayout=tableLayout;fontSize=16;strokeColor=default;align=center;verticalAlign=middle;fontFamily=Times New Roman;fontColor=default;fillColor=default;" vertex="1" parent="1">
          <mxGeometry x="422.5" y="360" width="90" height="30" as="geometry" />
        </mxCell>
        <mxCell id="X-1EoEnKetWkJ9hzd2uH-270" value="" style="shape=tableRow;horizontal=0;startSize=0;swimlaneHead=0;swimlaneBody=0;strokeColor=inherit;top=0;left=0;bottom=0;right=0;collapsible=0;dropTarget=0;fillColor=none;points=[[0,0.5],[1,0.5]];portConstraint=eastwest;fontSize=16;align=center;verticalAlign=middle;fontFamily=Times New Roman;fontColor=default;" vertex="1" parent="X-1EoEnKetWkJ9hzd2uH-269">
          <mxGeometry width="90" height="30" as="geometry" />
        </mxCell>
        <mxCell id="X-1EoEnKetWkJ9hzd2uH-271" value="X" style="shape=partialRectangle;html=1;whiteSpace=wrap;connectable=0;strokeColor=inherit;overflow=hidden;fillColor=none;top=0;left=0;bottom=0;right=0;pointerEvents=1;fontSize=16;align=center;verticalAlign=middle;fontFamily=Times New Roman;fontColor=default;startSize=0;" vertex="1" parent="X-1EoEnKetWkJ9hzd2uH-270">
          <mxGeometry width="30" height="30" as="geometry">
            <mxRectangle width="30" height="30" as="alternateBounds" />
          </mxGeometry>
        </mxCell>
        <mxCell id="X-1EoEnKetWkJ9hzd2uH-272" value="&lt;b&gt;&lt;font color=&quot;#ff0000&quot;&gt;1&lt;/font&gt;&lt;/b&gt;" style="shape=partialRectangle;html=1;whiteSpace=wrap;connectable=0;strokeColor=inherit;overflow=hidden;fillColor=none;top=0;left=0;bottom=0;right=0;pointerEvents=1;fontSize=16;align=center;verticalAlign=middle;fontFamily=Times New Roman;fontColor=default;startSize=0;" vertex="1" parent="X-1EoEnKetWkJ9hzd2uH-270">
          <mxGeometry x="30" width="30" height="30" as="geometry">
            <mxRectangle width="30" height="30" as="alternateBounds" />
          </mxGeometry>
        </mxCell>
        <mxCell id="X-1EoEnKetWkJ9hzd2uH-273" value="X" style="shape=partialRectangle;html=1;whiteSpace=wrap;connectable=0;strokeColor=inherit;overflow=hidden;fillColor=none;top=0;left=0;bottom=0;right=0;pointerEvents=1;fontSize=16;align=center;verticalAlign=middle;fontFamily=Times New Roman;fontColor=default;startSize=0;" vertex="1" parent="X-1EoEnKetWkJ9hzd2uH-270">
          <mxGeometry x="60" width="30" height="30" as="geometry">
            <mxRectangle width="30" height="30" as="alternateBounds" />
          </mxGeometry>
        </mxCell>
        <mxCell id="X-1EoEnKetWkJ9hzd2uH-274" value="SEARCH" style="text;html=1;align=center;verticalAlign=middle;resizable=0;points=[];autosize=1;strokeColor=none;fillColor=none;fontSize=16;fontFamily=Times New Roman;fontColor=default;" vertex="1" parent="1">
          <mxGeometry x="512.5" y="360" width="90" height="30" as="geometry" />
        </mxCell>
        <mxCell id="X-1EoEnKetWkJ9hzd2uH-275" value="" style="shape=table;startSize=0;container=1;collapsible=0;childLayout=tableLayout;fontSize=16;strokeColor=default;align=center;verticalAlign=middle;fontFamily=Times New Roman;fontColor=default;fillColor=default;" vertex="1" parent="1">
          <mxGeometry x="542.5" y="270" width="30" height="60" as="geometry" />
        </mxCell>
        <mxCell id="X-1EoEnKetWkJ9hzd2uH-276" value="" style="shape=tableRow;horizontal=0;startSize=0;swimlaneHead=0;swimlaneBody=0;strokeColor=inherit;top=0;left=0;bottom=0;right=0;collapsible=0;dropTarget=0;fillColor=none;points=[[0,0.5],[1,0.5]];portConstraint=eastwest;fontSize=16;align=center;verticalAlign=middle;fontFamily=Times New Roman;fontColor=default;" vertex="1" parent="X-1EoEnKetWkJ9hzd2uH-275">
          <mxGeometry width="30" height="30" as="geometry" />
        </mxCell>
        <mxCell id="X-1EoEnKetWkJ9hzd2uH-277" style="shape=partialRectangle;html=1;whiteSpace=wrap;connectable=0;strokeColor=inherit;overflow=hidden;fillColor=none;top=0;left=0;bottom=0;right=0;pointerEvents=1;fontSize=16;align=center;verticalAlign=middle;fontFamily=Times New Roman;fontColor=default;startSize=0;" vertex="1" parent="X-1EoEnKetWkJ9hzd2uH-276">
          <mxGeometry height="30" as="geometry">
            <mxRectangle height="30" as="alternateBounds" />
          </mxGeometry>
        </mxCell>
        <mxCell id="X-1EoEnKetWkJ9hzd2uH-278" style="shape=partialRectangle;html=1;whiteSpace=wrap;connectable=0;strokeColor=inherit;overflow=hidden;fillColor=none;top=0;left=0;bottom=0;right=0;pointerEvents=1;fontSize=16;align=center;verticalAlign=middle;fontFamily=Times New Roman;fontColor=default;startSize=0;" vertex="1" parent="X-1EoEnKetWkJ9hzd2uH-276">
          <mxGeometry height="30" as="geometry">
            <mxRectangle height="30" as="alternateBounds" />
          </mxGeometry>
        </mxCell>
        <mxCell id="X-1EoEnKetWkJ9hzd2uH-279" style="shape=partialRectangle;html=1;whiteSpace=wrap;connectable=0;strokeColor=inherit;overflow=hidden;fillColor=none;top=0;left=0;bottom=0;right=0;pointerEvents=1;fontSize=16;align=center;verticalAlign=middle;fontFamily=Times New Roman;fontColor=default;startSize=0;" vertex="1" parent="X-1EoEnKetWkJ9hzd2uH-276">
          <mxGeometry height="30" as="geometry">
            <mxRectangle height="30" as="alternateBounds" />
          </mxGeometry>
        </mxCell>
        <mxCell id="X-1EoEnKetWkJ9hzd2uH-280" style="shape=partialRectangle;html=1;whiteSpace=wrap;connectable=0;strokeColor=inherit;overflow=hidden;fillColor=none;top=0;left=0;bottom=0;right=0;pointerEvents=1;fontSize=16;align=center;verticalAlign=middle;fontFamily=Times New Roman;fontColor=default;startSize=0;" vertex="1" parent="X-1EoEnKetWkJ9hzd2uH-276">
          <mxGeometry height="30" as="geometry">
            <mxRectangle height="30" as="alternateBounds" />
          </mxGeometry>
        </mxCell>
        <mxCell id="X-1EoEnKetWkJ9hzd2uH-281" style="shape=partialRectangle;html=1;whiteSpace=wrap;connectable=0;strokeColor=inherit;overflow=hidden;fillColor=none;top=0;left=0;bottom=0;right=0;pointerEvents=1;fontSize=16;align=center;verticalAlign=middle;fontFamily=Times New Roman;fontColor=default;startSize=0;" vertex="1" parent="X-1EoEnKetWkJ9hzd2uH-276">
          <mxGeometry height="30" as="geometry">
            <mxRectangle height="30" as="alternateBounds" />
          </mxGeometry>
        </mxCell>
        <mxCell id="X-1EoEnKetWkJ9hzd2uH-282" style="shape=partialRectangle;html=1;whiteSpace=wrap;connectable=0;strokeColor=inherit;overflow=hidden;fillColor=none;top=0;left=0;bottom=0;right=0;pointerEvents=1;fontSize=16;align=center;verticalAlign=middle;fontFamily=Times New Roman;fontColor=default;startSize=0;" vertex="1" parent="X-1EoEnKetWkJ9hzd2uH-276">
          <mxGeometry height="30" as="geometry">
            <mxRectangle height="30" as="alternateBounds" />
          </mxGeometry>
        </mxCell>
        <mxCell id="X-1EoEnKetWkJ9hzd2uH-283" style="shape=partialRectangle;html=1;whiteSpace=wrap;connectable=0;strokeColor=inherit;overflow=hidden;fillColor=none;top=0;left=0;bottom=0;right=0;pointerEvents=1;fontSize=16;align=center;verticalAlign=middle;fontFamily=Times New Roman;fontColor=default;startSize=0;" vertex="1" parent="X-1EoEnKetWkJ9hzd2uH-276">
          <mxGeometry height="30" as="geometry">
            <mxRectangle height="30" as="alternateBounds" />
          </mxGeometry>
        </mxCell>
        <mxCell id="X-1EoEnKetWkJ9hzd2uH-284" value="" style="shape=partialRectangle;html=1;whiteSpace=wrap;connectable=0;strokeColor=inherit;overflow=hidden;fillColor=none;top=0;left=0;bottom=0;right=0;pointerEvents=1;fontSize=16;align=center;verticalAlign=middle;fontFamily=Times New Roman;fontColor=default;startSize=0;" vertex="1" parent="X-1EoEnKetWkJ9hzd2uH-276">
          <mxGeometry height="30" as="geometry">
            <mxRectangle height="30" as="alternateBounds" />
          </mxGeometry>
        </mxCell>
        <mxCell id="X-1EoEnKetWkJ9hzd2uH-285" value="&lt;b&gt;&lt;font color=&quot;#ff0000&quot;&gt;1&lt;/font&gt;&lt;/b&gt;" style="shape=partialRectangle;html=1;whiteSpace=wrap;connectable=0;strokeColor=inherit;overflow=hidden;fillColor=none;top=0;left=0;bottom=0;right=0;pointerEvents=1;fontSize=16;align=center;verticalAlign=middle;fontFamily=Times New Roman;fontColor=default;startSize=0;" vertex="1" parent="X-1EoEnKetWkJ9hzd2uH-276">
          <mxGeometry width="30" height="30" as="geometry">
            <mxRectangle width="30" height="30" as="alternateBounds" />
          </mxGeometry>
        </mxCell>
        <mxCell id="X-1EoEnKetWkJ9hzd2uH-286" value="" style="shape=tableRow;horizontal=0;startSize=0;swimlaneHead=0;swimlaneBody=0;strokeColor=inherit;top=0;left=0;bottom=0;right=0;collapsible=0;dropTarget=0;fillColor=none;points=[[0,0.5],[1,0.5]];portConstraint=eastwest;fontSize=16;align=center;verticalAlign=middle;fontFamily=Times New Roman;fontColor=default;" vertex="1" parent="X-1EoEnKetWkJ9hzd2uH-275">
          <mxGeometry y="30" width="30" height="30" as="geometry" />
        </mxCell>
        <mxCell id="X-1EoEnKetWkJ9hzd2uH-287" style="shape=partialRectangle;html=1;whiteSpace=wrap;connectable=0;strokeColor=inherit;overflow=hidden;fillColor=none;top=0;left=0;bottom=0;right=0;pointerEvents=1;fontSize=16;align=center;verticalAlign=middle;fontFamily=Times New Roman;fontColor=default;startSize=0;" vertex="1" parent="X-1EoEnKetWkJ9hzd2uH-286">
          <mxGeometry height="30" as="geometry">
            <mxRectangle height="30" as="alternateBounds" />
          </mxGeometry>
        </mxCell>
        <mxCell id="X-1EoEnKetWkJ9hzd2uH-288" style="shape=partialRectangle;html=1;whiteSpace=wrap;connectable=0;strokeColor=inherit;overflow=hidden;fillColor=none;top=0;left=0;bottom=0;right=0;pointerEvents=1;fontSize=16;align=center;verticalAlign=middle;fontFamily=Times New Roman;fontColor=default;startSize=0;" vertex="1" parent="X-1EoEnKetWkJ9hzd2uH-286">
          <mxGeometry height="30" as="geometry">
            <mxRectangle height="30" as="alternateBounds" />
          </mxGeometry>
        </mxCell>
        <mxCell id="X-1EoEnKetWkJ9hzd2uH-289" style="shape=partialRectangle;html=1;whiteSpace=wrap;connectable=0;strokeColor=inherit;overflow=hidden;fillColor=none;top=0;left=0;bottom=0;right=0;pointerEvents=1;fontSize=16;align=center;verticalAlign=middle;fontFamily=Times New Roman;fontColor=default;startSize=0;" vertex="1" parent="X-1EoEnKetWkJ9hzd2uH-286">
          <mxGeometry height="30" as="geometry">
            <mxRectangle height="30" as="alternateBounds" />
          </mxGeometry>
        </mxCell>
        <mxCell id="X-1EoEnKetWkJ9hzd2uH-290" style="shape=partialRectangle;html=1;whiteSpace=wrap;connectable=0;strokeColor=inherit;overflow=hidden;fillColor=none;top=0;left=0;bottom=0;right=0;pointerEvents=1;fontSize=16;align=center;verticalAlign=middle;fontFamily=Times New Roman;fontColor=default;startSize=0;" vertex="1" parent="X-1EoEnKetWkJ9hzd2uH-286">
          <mxGeometry height="30" as="geometry">
            <mxRectangle height="30" as="alternateBounds" />
          </mxGeometry>
        </mxCell>
        <mxCell id="X-1EoEnKetWkJ9hzd2uH-291" style="shape=partialRectangle;html=1;whiteSpace=wrap;connectable=0;strokeColor=inherit;overflow=hidden;fillColor=none;top=0;left=0;bottom=0;right=0;pointerEvents=1;fontSize=16;align=center;verticalAlign=middle;fontFamily=Times New Roman;fontColor=default;startSize=0;" vertex="1" parent="X-1EoEnKetWkJ9hzd2uH-286">
          <mxGeometry height="30" as="geometry">
            <mxRectangle height="30" as="alternateBounds" />
          </mxGeometry>
        </mxCell>
        <mxCell id="X-1EoEnKetWkJ9hzd2uH-292" style="shape=partialRectangle;html=1;whiteSpace=wrap;connectable=0;strokeColor=inherit;overflow=hidden;fillColor=none;top=0;left=0;bottom=0;right=0;pointerEvents=1;fontSize=16;align=center;verticalAlign=middle;fontFamily=Times New Roman;fontColor=default;startSize=0;" vertex="1" parent="X-1EoEnKetWkJ9hzd2uH-286">
          <mxGeometry height="30" as="geometry">
            <mxRectangle height="30" as="alternateBounds" />
          </mxGeometry>
        </mxCell>
        <mxCell id="X-1EoEnKetWkJ9hzd2uH-293" style="shape=partialRectangle;html=1;whiteSpace=wrap;connectable=0;strokeColor=inherit;overflow=hidden;fillColor=none;top=0;left=0;bottom=0;right=0;pointerEvents=1;fontSize=16;align=center;verticalAlign=middle;fontFamily=Times New Roman;fontColor=default;startSize=0;" vertex="1" parent="X-1EoEnKetWkJ9hzd2uH-286">
          <mxGeometry height="30" as="geometry">
            <mxRectangle height="30" as="alternateBounds" />
          </mxGeometry>
        </mxCell>
        <mxCell id="X-1EoEnKetWkJ9hzd2uH-294" value="" style="shape=partialRectangle;html=1;whiteSpace=wrap;connectable=0;strokeColor=inherit;overflow=hidden;fillColor=none;top=0;left=0;bottom=0;right=0;pointerEvents=1;fontSize=16;align=center;verticalAlign=middle;fontFamily=Times New Roman;fontColor=default;startSize=0;" vertex="1" parent="X-1EoEnKetWkJ9hzd2uH-286">
          <mxGeometry height="30" as="geometry">
            <mxRectangle height="30" as="alternateBounds" />
          </mxGeometry>
        </mxCell>
        <mxCell id="X-1EoEnKetWkJ9hzd2uH-295" value="1" style="shape=partialRectangle;html=1;whiteSpace=wrap;connectable=0;strokeColor=inherit;overflow=hidden;fillColor=none;top=0;left=0;bottom=0;right=0;pointerEvents=1;fontSize=16;align=center;verticalAlign=middle;fontFamily=Times New Roman;fontColor=default;startSize=0;" vertex="1" parent="X-1EoEnKetWkJ9hzd2uH-286">
          <mxGeometry width="30" height="30" as="geometry">
            <mxRectangle width="30" height="30" as="alternateBounds" />
          </mxGeometry>
        </mxCell>
        <mxCell id="X-1EoEnKetWkJ9hzd2uH-296" value="TAG" style="text;html=1;align=center;verticalAlign=middle;resizable=0;points=[];autosize=1;strokeColor=none;fillColor=none;fontSize=16;fontFamily=Times New Roman;fontColor=default;" vertex="1" parent="1">
          <mxGeometry x="527.5" y="240" width="60" height="30" as="geometry" />
        </mxCell>
        <mxCell id="X-1EoEnKetWkJ9hzd2uH-297" value="" style="endArrow=classic;html=1;rounded=0;fontFamily=Times New Roman;fontSize=16;fontColor=default;startSize=0;exitX=1;exitY=0.5;exitDx=0;exitDy=0;entryX=0;entryY=0.5;entryDx=0;entryDy=0;" edge="1" parent="1" source="X-1EoEnKetWkJ9hzd2uH-265" target="X-1EoEnKetWkJ9hzd2uH-286">
          <mxGeometry width="50" height="50" relative="1" as="geometry">
            <mxPoint x="482.5" y="360" as="sourcePoint" />
            <mxPoint x="532.5" y="310" as="targetPoint" />
          </mxGeometry>
        </mxCell>
        <mxCell id="X-1EoEnKetWkJ9hzd2uH-298" value="" style="endArrow=classic;html=1;rounded=0;fontFamily=Times New Roman;fontSize=16;fontColor=default;startSize=0;entryX=0;entryY=0.5;entryDx=0;entryDy=0;exitX=1;exitY=0.5;exitDx=0;exitDy=0;" edge="1" parent="1" source="X-1EoEnKetWkJ9hzd2uH-261" target="X-1EoEnKetWkJ9hzd2uH-276">
          <mxGeometry width="50" height="50" relative="1" as="geometry">
            <mxPoint x="497.5" y="395" as="sourcePoint" />
            <mxPoint x="547.5" y="345" as="targetPoint" />
          </mxGeometry>
        </mxCell>
        <mxCell id="X-1EoEnKetWkJ9hzd2uH-299" value="" style="endArrow=classic;html=1;rounded=0;fontFamily=Times New Roman;fontSize=16;fontColor=default;startSize=0;entryX=0.155;entryY=0.997;entryDx=0;entryDy=0;entryPerimeter=0;" edge="1" parent="1">
          <mxGeometry width="50" height="50" relative="1" as="geometry">
            <mxPoint x="437.5" y="359" as="sourcePoint" />
            <mxPoint x="437.49999999999994" y="330" as="targetPoint" />
          </mxGeometry>
        </mxCell>
        <mxCell id="X-1EoEnKetWkJ9hzd2uH-300" value="" style="endArrow=classic;html=1;rounded=0;fontFamily=Times New Roman;fontSize=16;fontColor=default;startSize=0;entryX=0.155;entryY=0.997;entryDx=0;entryDy=0;entryPerimeter=0;" edge="1" parent="1">
          <mxGeometry width="50" height="50" relative="1" as="geometry">
            <mxPoint x="467.39" y="360" as="sourcePoint" />
            <mxPoint x="467.38999999999993" y="331" as="targetPoint" />
            <Array as="points">
              <mxPoint x="467.39" y="331" />
            </Array>
          </mxGeometry>
        </mxCell>
        <mxCell id="X-1EoEnKetWkJ9hzd2uH-301" value="" style="endArrow=classic;html=1;rounded=0;fontFamily=Times New Roman;fontSize=16;fontColor=default;startSize=0;entryX=0.155;entryY=0.997;entryDx=0;entryDy=0;entryPerimeter=0;" edge="1" parent="1">
          <mxGeometry width="50" height="50" relative="1" as="geometry">
            <mxPoint x="497.5" y="360" as="sourcePoint" />
            <mxPoint x="497.5" y="331" as="targetPoint" />
            <Array as="points">
              <mxPoint x="497.5" y="331" />
            </Array>
          </mxGeometry>
        </mxCell>
        <mxCell id="X-1EoEnKetWkJ9hzd2uH-302" value="" style="shape=table;startSize=0;container=1;collapsible=0;childLayout=tableLayout;fontSize=16;strokeColor=default;align=center;verticalAlign=middle;fontFamily=Times New Roman;fontColor=default;fillColor=default;" vertex="1" parent="1">
          <mxGeometry x="647.5" y="240" width="90" height="90" as="geometry" />
        </mxCell>
        <mxCell id="X-1EoEnKetWkJ9hzd2uH-303" value="" style="shape=tableRow;horizontal=0;startSize=0;swimlaneHead=0;swimlaneBody=0;strokeColor=inherit;top=0;left=0;bottom=0;right=0;collapsible=0;dropTarget=0;fillColor=none;points=[[0,0.5],[1,0.5]];portConstraint=eastwest;fontSize=16;align=center;verticalAlign=middle;fontFamily=Times New Roman;fontColor=default;" vertex="1" parent="X-1EoEnKetWkJ9hzd2uH-302">
          <mxGeometry width="90" height="30" as="geometry" />
        </mxCell>
        <mxCell id="X-1EoEnKetWkJ9hzd2uH-304" value="R1" style="shape=partialRectangle;html=1;whiteSpace=wrap;connectable=0;strokeColor=inherit;overflow=hidden;fillColor=none;top=0;left=0;bottom=0;right=0;pointerEvents=1;fontSize=16;align=center;verticalAlign=middle;fontFamily=Times New Roman;fontColor=default;startSize=0;" vertex="1" parent="X-1EoEnKetWkJ9hzd2uH-303">
          <mxGeometry width="30" height="30" as="geometry">
            <mxRectangle width="30" height="30" as="alternateBounds" />
          </mxGeometry>
        </mxCell>
        <mxCell id="X-1EoEnKetWkJ9hzd2uH-305" value="R2" style="shape=partialRectangle;html=1;whiteSpace=wrap;connectable=0;strokeColor=inherit;overflow=hidden;fillColor=none;top=0;left=0;bottom=0;right=0;pointerEvents=1;fontSize=16;align=center;verticalAlign=middle;fontFamily=Times New Roman;fontColor=default;startSize=0;" vertex="1" parent="X-1EoEnKetWkJ9hzd2uH-303">
          <mxGeometry x="30" width="30" height="30" as="geometry">
            <mxRectangle width="30" height="30" as="alternateBounds" />
          </mxGeometry>
        </mxCell>
        <mxCell id="X-1EoEnKetWkJ9hzd2uH-306" value="&lt;font color=&quot;#ff0000&quot;&gt;R3&lt;/font&gt;" style="shape=partialRectangle;html=1;whiteSpace=wrap;connectable=0;strokeColor=inherit;overflow=hidden;fillColor=none;top=0;left=0;bottom=0;right=0;pointerEvents=1;fontSize=16;align=center;verticalAlign=middle;fontFamily=Times New Roman;fontColor=default;startSize=0;" vertex="1" parent="X-1EoEnKetWkJ9hzd2uH-303">
          <mxGeometry x="60" width="30" height="30" as="geometry">
            <mxRectangle width="30" height="30" as="alternateBounds" />
          </mxGeometry>
        </mxCell>
        <mxCell id="X-1EoEnKetWkJ9hzd2uH-307" value="" style="shape=tableRow;horizontal=0;startSize=0;swimlaneHead=0;swimlaneBody=0;strokeColor=inherit;top=0;left=0;bottom=0;right=0;collapsible=0;dropTarget=0;fillColor=none;points=[[0,0.5],[1,0.5]];portConstraint=eastwest;fontSize=16;align=center;verticalAlign=middle;fontFamily=Times New Roman;fontColor=default;" vertex="1" parent="X-1EoEnKetWkJ9hzd2uH-302">
          <mxGeometry y="30" width="90" height="30" as="geometry" />
        </mxCell>
        <mxCell id="X-1EoEnKetWkJ9hzd2uH-308" value="0" style="shape=partialRectangle;html=1;whiteSpace=wrap;connectable=0;strokeColor=inherit;overflow=hidden;fillColor=none;top=0;left=0;bottom=0;right=0;pointerEvents=1;fontSize=16;align=center;verticalAlign=middle;fontFamily=Times New Roman;fontColor=default;startSize=0;" vertex="1" parent="X-1EoEnKetWkJ9hzd2uH-307">
          <mxGeometry width="30" height="30" as="geometry">
            <mxRectangle width="30" height="30" as="alternateBounds" />
          </mxGeometry>
        </mxCell>
        <mxCell id="X-1EoEnKetWkJ9hzd2uH-309" value="1" style="shape=partialRectangle;html=1;whiteSpace=wrap;connectable=0;strokeColor=inherit;overflow=hidden;fillColor=none;top=0;left=0;bottom=0;right=0;pointerEvents=1;fontSize=16;align=center;verticalAlign=middle;fontFamily=Times New Roman;fontColor=default;startSize=0;" vertex="1" parent="X-1EoEnKetWkJ9hzd2uH-307">
          <mxGeometry x="30" width="30" height="30" as="geometry">
            <mxRectangle width="30" height="30" as="alternateBounds" />
          </mxGeometry>
        </mxCell>
        <mxCell id="X-1EoEnKetWkJ9hzd2uH-310" value="1" style="shape=partialRectangle;html=1;whiteSpace=wrap;connectable=0;strokeColor=inherit;overflow=hidden;fillColor=none;top=0;left=0;bottom=0;right=0;pointerEvents=1;fontSize=16;align=center;verticalAlign=middle;fontFamily=Times New Roman;fontColor=#FF0000;startSize=0;fontStyle=1" vertex="1" parent="X-1EoEnKetWkJ9hzd2uH-307">
          <mxGeometry x="60" width="30" height="30" as="geometry">
            <mxRectangle width="30" height="30" as="alternateBounds" />
          </mxGeometry>
        </mxCell>
        <mxCell id="X-1EoEnKetWkJ9hzd2uH-311" value="" style="shape=tableRow;horizontal=0;startSize=0;swimlaneHead=0;swimlaneBody=0;strokeColor=inherit;top=0;left=0;bottom=0;right=0;collapsible=0;dropTarget=0;fillColor=none;points=[[0,0.5],[1,0.5]];portConstraint=eastwest;fontSize=16;align=center;verticalAlign=middle;fontFamily=Times New Roman;fontColor=default;" vertex="1" parent="X-1EoEnKetWkJ9hzd2uH-302">
          <mxGeometry y="60" width="90" height="30" as="geometry" />
        </mxCell>
        <mxCell id="X-1EoEnKetWkJ9hzd2uH-312" value="1" style="shape=partialRectangle;html=1;whiteSpace=wrap;connectable=0;strokeColor=inherit;overflow=hidden;fillColor=none;top=0;left=0;bottom=0;right=0;pointerEvents=1;fontSize=16;align=center;verticalAlign=middle;fontFamily=Times New Roman;fontColor=default;startSize=0;" vertex="1" parent="X-1EoEnKetWkJ9hzd2uH-311">
          <mxGeometry width="30" height="30" as="geometry">
            <mxRectangle width="30" height="30" as="alternateBounds" />
          </mxGeometry>
        </mxCell>
        <mxCell id="X-1EoEnKetWkJ9hzd2uH-313" value="0" style="shape=partialRectangle;html=1;whiteSpace=wrap;connectable=0;strokeColor=inherit;overflow=hidden;fillColor=none;top=0;left=0;bottom=0;right=0;pointerEvents=1;fontSize=16;align=center;verticalAlign=middle;fontFamily=Times New Roman;fontColor=default;startSize=0;" vertex="1" parent="X-1EoEnKetWkJ9hzd2uH-311">
          <mxGeometry x="30" width="30" height="30" as="geometry">
            <mxRectangle width="30" height="30" as="alternateBounds" />
          </mxGeometry>
        </mxCell>
        <mxCell id="X-1EoEnKetWkJ9hzd2uH-314" value="1" style="shape=partialRectangle;html=1;whiteSpace=wrap;connectable=0;strokeColor=inherit;overflow=hidden;fillColor=none;top=0;left=0;bottom=0;right=0;pointerEvents=1;fontSize=16;align=center;verticalAlign=middle;fontFamily=Times New Roman;fontColor=#FF0000;startSize=0;fontStyle=1" vertex="1" parent="X-1EoEnKetWkJ9hzd2uH-311">
          <mxGeometry x="60" width="30" height="30" as="geometry">
            <mxRectangle width="30" height="30" as="alternateBounds" />
          </mxGeometry>
        </mxCell>
        <mxCell id="X-1EoEnKetWkJ9hzd2uH-349" value="2. Search 1 in R1" style="text;html=1;align=center;verticalAlign=middle;resizable=0;points=[];autosize=1;strokeColor=none;fillColor=none;fontSize=16;fontFamily=Times New Roman;fontColor=default;" vertex="1" parent="1">
          <mxGeometry x="208" y="193" width="130" height="35" as="geometry" />
        </mxCell>
        <mxCell id="X-1EoEnKetWkJ9hzd2uH-350" value="3. Search Acc. 1 in R2" style="text;html=1;align=center;verticalAlign=middle;resizable=0;points=[];autosize=1;strokeColor=none;fillColor=none;fontSize=16;fontFamily=Times New Roman;fontColor=default;" vertex="1" parent="1">
          <mxGeometry x="409.5" y="193" width="165" height="35" as="geometry" />
        </mxCell>
        <mxCell id="X-1EoEnKetWkJ9hzd2uH-351" value="4. Write tag to R3" style="text;html=1;align=center;verticalAlign=middle;resizable=0;points=[];autosize=1;strokeColor=none;fillColor=none;fontSize=16;fontFamily=Times New Roman;fontColor=default;" vertex="1" parent="1">
          <mxGeometry x="625.5" y="193" width="135" height="35" as="geometry" />
        </mxCell>
        <mxCell id="X-1EoEnKetWkJ9hzd2uH-352" value="" style="shape=table;startSize=0;container=1;collapsible=0;childLayout=tableLayout;fontSize=16;strokeColor=default;align=center;verticalAlign=middle;fontFamily=Times New Roman;fontColor=default;fillColor=default;" vertex="1" parent="1">
          <mxGeometry x="70" y="240" width="90" height="90" as="geometry" />
        </mxCell>
        <mxCell id="X-1EoEnKetWkJ9hzd2uH-353" value="" style="shape=tableRow;horizontal=0;startSize=0;swimlaneHead=0;swimlaneBody=0;strokeColor=inherit;top=0;left=0;bottom=0;right=0;collapsible=0;dropTarget=0;fillColor=none;points=[[0,0.5],[1,0.5]];portConstraint=eastwest;fontSize=16;align=center;verticalAlign=middle;fontFamily=Times New Roman;fontColor=default;" vertex="1" parent="X-1EoEnKetWkJ9hzd2uH-352">
          <mxGeometry width="90" height="30" as="geometry" />
        </mxCell>
        <mxCell id="X-1EoEnKetWkJ9hzd2uH-354" value="R1" style="shape=partialRectangle;html=1;whiteSpace=wrap;connectable=0;strokeColor=inherit;overflow=hidden;fillColor=none;top=0;left=0;bottom=0;right=0;pointerEvents=1;fontSize=16;align=center;verticalAlign=middle;fontFamily=Times New Roman;fontColor=default;startSize=0;" vertex="1" parent="X-1EoEnKetWkJ9hzd2uH-353">
          <mxGeometry width="30" height="30" as="geometry">
            <mxRectangle width="30" height="30" as="alternateBounds" />
          </mxGeometry>
        </mxCell>
        <mxCell id="X-1EoEnKetWkJ9hzd2uH-355" value="R2" style="shape=partialRectangle;html=1;whiteSpace=wrap;connectable=0;strokeColor=inherit;overflow=hidden;fillColor=none;top=0;left=0;bottom=0;right=0;pointerEvents=1;fontSize=16;align=center;verticalAlign=middle;fontFamily=Times New Roman;fontColor=default;startSize=0;" vertex="1" parent="X-1EoEnKetWkJ9hzd2uH-353">
          <mxGeometry x="30" width="30" height="30" as="geometry">
            <mxRectangle width="30" height="30" as="alternateBounds" />
          </mxGeometry>
        </mxCell>
        <mxCell id="X-1EoEnKetWkJ9hzd2uH-356" value="R3" style="shape=partialRectangle;html=1;whiteSpace=wrap;connectable=0;strokeColor=inherit;overflow=hidden;fillColor=none;top=0;left=0;bottom=0;right=0;pointerEvents=1;fontSize=16;align=center;verticalAlign=middle;fontFamily=Times New Roman;fontColor=default;startSize=0;" vertex="1" parent="X-1EoEnKetWkJ9hzd2uH-353">
          <mxGeometry x="60" width="30" height="30" as="geometry">
            <mxRectangle width="30" height="30" as="alternateBounds" />
          </mxGeometry>
        </mxCell>
        <mxCell id="X-1EoEnKetWkJ9hzd2uH-357" value="" style="shape=tableRow;horizontal=0;startSize=0;swimlaneHead=0;swimlaneBody=0;strokeColor=inherit;top=0;left=0;bottom=0;right=0;collapsible=0;dropTarget=0;fillColor=none;points=[[0,0.5],[1,0.5]];portConstraint=eastwest;fontSize=16;align=center;verticalAlign=middle;fontFamily=Times New Roman;fontColor=default;" vertex="1" parent="X-1EoEnKetWkJ9hzd2uH-352">
          <mxGeometry y="30" width="90" height="30" as="geometry" />
        </mxCell>
        <mxCell id="X-1EoEnKetWkJ9hzd2uH-358" value="0" style="shape=partialRectangle;html=1;whiteSpace=wrap;connectable=0;strokeColor=inherit;overflow=hidden;fillColor=none;top=0;left=0;bottom=0;right=0;pointerEvents=1;fontSize=16;align=center;verticalAlign=middle;fontFamily=Times New Roman;fontColor=default;startSize=0;" vertex="1" parent="X-1EoEnKetWkJ9hzd2uH-357">
          <mxGeometry width="30" height="30" as="geometry">
            <mxRectangle width="30" height="30" as="alternateBounds" />
          </mxGeometry>
        </mxCell>
        <mxCell id="X-1EoEnKetWkJ9hzd2uH-359" value="1" style="shape=partialRectangle;html=1;whiteSpace=wrap;connectable=0;strokeColor=inherit;overflow=hidden;fillColor=none;top=0;left=0;bottom=0;right=0;pointerEvents=1;fontSize=16;align=center;verticalAlign=middle;fontFamily=Times New Roman;fontColor=default;startSize=0;" vertex="1" parent="X-1EoEnKetWkJ9hzd2uH-357">
          <mxGeometry x="30" width="30" height="30" as="geometry">
            <mxRectangle width="30" height="30" as="alternateBounds" />
          </mxGeometry>
        </mxCell>
        <mxCell id="X-1EoEnKetWkJ9hzd2uH-360" value="&lt;b&gt;&lt;font color=&quot;#ff0000&quot;&gt;0&lt;/font&gt;&lt;/b&gt;" style="shape=partialRectangle;html=1;whiteSpace=wrap;connectable=0;strokeColor=inherit;overflow=hidden;fillColor=none;top=0;left=0;bottom=0;right=0;pointerEvents=1;fontSize=16;align=center;verticalAlign=middle;fontFamily=Times New Roman;fontColor=default;startSize=0;" vertex="1" parent="X-1EoEnKetWkJ9hzd2uH-357">
          <mxGeometry x="60" width="30" height="30" as="geometry">
            <mxRectangle width="30" height="30" as="alternateBounds" />
          </mxGeometry>
        </mxCell>
        <mxCell id="X-1EoEnKetWkJ9hzd2uH-361" value="" style="shape=tableRow;horizontal=0;startSize=0;swimlaneHead=0;swimlaneBody=0;strokeColor=inherit;top=0;left=0;bottom=0;right=0;collapsible=0;dropTarget=0;fillColor=none;points=[[0,0.5],[1,0.5]];portConstraint=eastwest;fontSize=16;align=center;verticalAlign=middle;fontFamily=Times New Roman;fontColor=default;" vertex="1" parent="X-1EoEnKetWkJ9hzd2uH-352">
          <mxGeometry y="60" width="90" height="30" as="geometry" />
        </mxCell>
        <mxCell id="X-1EoEnKetWkJ9hzd2uH-362" value="1" style="shape=partialRectangle;html=1;whiteSpace=wrap;connectable=0;strokeColor=inherit;overflow=hidden;fillColor=none;top=0;left=0;bottom=0;right=0;pointerEvents=1;fontSize=16;align=center;verticalAlign=middle;fontFamily=Times New Roman;fontColor=default;startSize=0;" vertex="1" parent="X-1EoEnKetWkJ9hzd2uH-361">
          <mxGeometry width="30" height="30" as="geometry">
            <mxRectangle width="30" height="30" as="alternateBounds" />
          </mxGeometry>
        </mxCell>
        <mxCell id="X-1EoEnKetWkJ9hzd2uH-363" value="0" style="shape=partialRectangle;html=1;whiteSpace=wrap;connectable=0;strokeColor=inherit;overflow=hidden;fillColor=none;top=0;left=0;bottom=0;right=0;pointerEvents=1;fontSize=16;align=center;verticalAlign=middle;fontFamily=Times New Roman;fontColor=default;startSize=0;" vertex="1" parent="X-1EoEnKetWkJ9hzd2uH-361">
          <mxGeometry x="30" width="30" height="30" as="geometry">
            <mxRectangle width="30" height="30" as="alternateBounds" />
          </mxGeometry>
        </mxCell>
        <mxCell id="X-1EoEnKetWkJ9hzd2uH-364" value="&lt;font color=&quot;#ff0000&quot;&gt;&lt;b&gt;0&lt;/b&gt;&lt;/font&gt;" style="shape=partialRectangle;html=1;whiteSpace=wrap;connectable=0;strokeColor=inherit;overflow=hidden;fillColor=none;top=0;left=0;bottom=0;right=0;pointerEvents=1;fontSize=16;align=center;verticalAlign=middle;fontFamily=Times New Roman;fontColor=default;startSize=0;" vertex="1" parent="X-1EoEnKetWkJ9hzd2uH-361">
          <mxGeometry x="60" width="30" height="30" as="geometry">
            <mxRectangle width="30" height="30" as="alternateBounds" />
          </mxGeometry>
        </mxCell>
        <mxCell id="X-1EoEnKetWkJ9hzd2uH-365" value="1. Initialise R3" style="text;html=1;align=center;verticalAlign=middle;resizable=0;points=[];autosize=1;strokeColor=none;fillColor=none;fontSize=16;fontFamily=Times New Roman;fontColor=default;" vertex="1" parent="1">
          <mxGeometry x="57.5" y="192.5" width="115" height="35" as="geometry" />
        </mxCell>
        <mxCell id="X-1EoEnKetWkJ9hzd2uH-379" value="" style="shape=table;startSize=0;container=1;collapsible=0;childLayout=tableLayout;fontSize=12;strokeColor=default;align=center;verticalAlign=middle;fontFamily=Times New Roman;fontColor=default;fillColor=default;" vertex="1" parent="1">
          <mxGeometry x="227.5" y="613" width="123.5" height="26" as="geometry" />
        </mxCell>
        <mxCell id="X-1EoEnKetWkJ9hzd2uH-380" value="" style="shape=tableRow;horizontal=0;startSize=0;swimlaneHead=0;swimlaneBody=0;strokeColor=inherit;top=0;left=0;bottom=0;right=0;collapsible=0;dropTarget=0;fillColor=none;points=[[0,0.5],[1,0.5]];portConstraint=eastwest;fontSize=16;align=center;verticalAlign=middle;fontFamily=Times New Roman;fontColor=default;" vertex="1" parent="X-1EoEnKetWkJ9hzd2uH-379">
          <mxGeometry width="123.5" height="26" as="geometry" />
        </mxCell>
        <mxCell id="X-1EoEnKetWkJ9hzd2uH-381" value="&lt;b style=&quot;font-size: 12px;&quot;&gt;&lt;font color=&quot;#ff0000&quot; style=&quot;font-size: 12px;&quot;&gt;0&lt;/font&gt;&lt;/b&gt;" style="shape=partialRectangle;html=1;whiteSpace=wrap;connectable=0;strokeColor=inherit;overflow=hidden;fillColor=none;top=0;left=0;bottom=0;right=0;pointerEvents=1;fontSize=12;align=center;verticalAlign=middle;fontFamily=Times New Roman;fontColor=default;startSize=0;" vertex="1" parent="X-1EoEnKetWkJ9hzd2uH-380">
          <mxGeometry width="25" height="26" as="geometry">
            <mxRectangle width="25" height="26" as="alternateBounds" />
          </mxGeometry>
        </mxCell>
        <mxCell id="X-1EoEnKetWkJ9hzd2uH-382" value="&lt;font color=&quot;#ff0000&quot; style=&quot;font-size: 12px;&quot;&gt;&lt;b style=&quot;font-size: 12px;&quot;&gt;0&lt;/b&gt;&lt;/font&gt;" style="shape=partialRectangle;html=1;whiteSpace=wrap;connectable=0;strokeColor=inherit;overflow=hidden;fillColor=none;top=0;left=0;bottom=0;right=0;pointerEvents=1;fontSize=12;align=center;verticalAlign=middle;fontFamily=Times New Roman;fontColor=default;startSize=0;" vertex="1" parent="X-1EoEnKetWkJ9hzd2uH-380">
          <mxGeometry x="25" width="24" height="26" as="geometry">
            <mxRectangle width="24" height="26" as="alternateBounds" />
          </mxGeometry>
        </mxCell>
        <mxCell id="X-1EoEnKetWkJ9hzd2uH-383" value="&lt;b style=&quot;font-size: 12px;&quot;&gt;&lt;font color=&quot;#ff0000&quot; style=&quot;font-size: 12px;&quot;&gt;1&lt;/font&gt;&lt;/b&gt;" style="shape=partialRectangle;html=1;whiteSpace=wrap;connectable=0;strokeColor=inherit;overflow=hidden;fillColor=none;top=0;left=0;bottom=0;right=0;pointerEvents=1;fontSize=12;align=center;verticalAlign=middle;fontFamily=Times New Roman;fontColor=default;startSize=0;" vertex="1" parent="X-1EoEnKetWkJ9hzd2uH-380">
          <mxGeometry x="49" width="25" height="26" as="geometry">
            <mxRectangle width="25" height="26" as="alternateBounds" />
          </mxGeometry>
        </mxCell>
        <mxCell id="X-1EoEnKetWkJ9hzd2uH-525" value="X" style="shape=partialRectangle;html=1;whiteSpace=wrap;connectable=0;strokeColor=inherit;overflow=hidden;fillColor=none;top=0;left=0;bottom=0;right=0;pointerEvents=1;fontSize=12;align=center;verticalAlign=middle;fontFamily=Times New Roman;fontColor=default;startSize=0;" vertex="1" parent="X-1EoEnKetWkJ9hzd2uH-380">
          <mxGeometry x="74" width="25" height="26" as="geometry">
            <mxRectangle width="25" height="26" as="alternateBounds" />
          </mxGeometry>
        </mxCell>
        <mxCell id="X-1EoEnKetWkJ9hzd2uH-526" value="X" style="shape=partialRectangle;html=1;whiteSpace=wrap;connectable=0;strokeColor=inherit;overflow=hidden;fillColor=none;top=0;left=0;bottom=0;right=0;pointerEvents=1;fontSize=12;align=center;verticalAlign=middle;fontFamily=Times New Roman;fontColor=default;startSize=0;" vertex="1" parent="X-1EoEnKetWkJ9hzd2uH-380">
          <mxGeometry x="99" width="25" height="26" as="geometry">
            <mxRectangle width="25" height="26" as="alternateBounds" />
          </mxGeometry>
        </mxCell>
        <mxCell id="X-1EoEnKetWkJ9hzd2uH-384" value="SEARCH" style="text;html=1;align=center;verticalAlign=middle;resizable=0;points=[];autosize=1;strokeColor=none;fillColor=none;fontSize=12;fontFamily=Times New Roman;fontColor=default;" vertex="1" parent="1">
          <mxGeometry x="355.75" y="612.5" width="66" height="27" as="geometry" />
        </mxCell>
        <mxCell id="X-1EoEnKetWkJ9hzd2uH-385" value="" style="shape=table;startSize=0;container=1;collapsible=0;childLayout=tableLayout;fontSize=12;strokeColor=default;align=center;verticalAlign=middle;fontFamily=Times New Roman;fontColor=default;fillColor=default;fontStyle=1" vertex="1" parent="1">
          <mxGeometry x="377.5" y="535" width="22.5" height="50" as="geometry" />
        </mxCell>
        <mxCell id="X-1EoEnKetWkJ9hzd2uH-386" value="" style="shape=tableRow;horizontal=0;startSize=0;swimlaneHead=0;swimlaneBody=0;strokeColor=inherit;top=0;left=0;bottom=0;right=0;collapsible=0;dropTarget=0;fillColor=none;points=[[0,0.5],[1,0.5]];portConstraint=eastwest;fontSize=16;align=center;verticalAlign=middle;fontFamily=Times New Roman;fontColor=default;" vertex="1" parent="X-1EoEnKetWkJ9hzd2uH-385">
          <mxGeometry width="22.5" height="25" as="geometry" />
        </mxCell>
        <mxCell id="X-1EoEnKetWkJ9hzd2uH-387" style="shape=partialRectangle;html=1;whiteSpace=wrap;connectable=0;strokeColor=inherit;overflow=hidden;fillColor=none;top=0;left=0;bottom=0;right=0;pointerEvents=1;fontSize=16;align=center;verticalAlign=middle;fontFamily=Times New Roman;fontColor=default;startSize=0;" vertex="1" parent="X-1EoEnKetWkJ9hzd2uH-386">
          <mxGeometry height="25" as="geometry">
            <mxRectangle height="25" as="alternateBounds" />
          </mxGeometry>
        </mxCell>
        <mxCell id="X-1EoEnKetWkJ9hzd2uH-388" style="shape=partialRectangle;html=1;whiteSpace=wrap;connectable=0;strokeColor=inherit;overflow=hidden;fillColor=none;top=0;left=0;bottom=0;right=0;pointerEvents=1;fontSize=16;align=center;verticalAlign=middle;fontFamily=Times New Roman;fontColor=default;startSize=0;" vertex="1" parent="X-1EoEnKetWkJ9hzd2uH-386">
          <mxGeometry height="25" as="geometry">
            <mxRectangle height="25" as="alternateBounds" />
          </mxGeometry>
        </mxCell>
        <mxCell id="X-1EoEnKetWkJ9hzd2uH-389" style="shape=partialRectangle;html=1;whiteSpace=wrap;connectable=0;strokeColor=inherit;overflow=hidden;fillColor=none;top=0;left=0;bottom=0;right=0;pointerEvents=1;fontSize=16;align=center;verticalAlign=middle;fontFamily=Times New Roman;fontColor=default;startSize=0;" vertex="1" parent="X-1EoEnKetWkJ9hzd2uH-386">
          <mxGeometry height="25" as="geometry">
            <mxRectangle height="25" as="alternateBounds" />
          </mxGeometry>
        </mxCell>
        <mxCell id="X-1EoEnKetWkJ9hzd2uH-390" style="shape=partialRectangle;html=1;whiteSpace=wrap;connectable=0;strokeColor=inherit;overflow=hidden;fillColor=none;top=0;left=0;bottom=0;right=0;pointerEvents=1;fontSize=16;align=center;verticalAlign=middle;fontFamily=Times New Roman;fontColor=default;startSize=0;" vertex="1" parent="X-1EoEnKetWkJ9hzd2uH-386">
          <mxGeometry height="25" as="geometry">
            <mxRectangle height="25" as="alternateBounds" />
          </mxGeometry>
        </mxCell>
        <mxCell id="X-1EoEnKetWkJ9hzd2uH-391" style="shape=partialRectangle;html=1;whiteSpace=wrap;connectable=0;strokeColor=inherit;overflow=hidden;fillColor=none;top=0;left=0;bottom=0;right=0;pointerEvents=1;fontSize=16;align=center;verticalAlign=middle;fontFamily=Times New Roman;fontColor=default;startSize=0;" vertex="1" parent="X-1EoEnKetWkJ9hzd2uH-386">
          <mxGeometry height="25" as="geometry">
            <mxRectangle height="25" as="alternateBounds" />
          </mxGeometry>
        </mxCell>
        <mxCell id="X-1EoEnKetWkJ9hzd2uH-392" style="shape=partialRectangle;html=1;whiteSpace=wrap;connectable=0;strokeColor=inherit;overflow=hidden;fillColor=none;top=0;left=0;bottom=0;right=0;pointerEvents=1;fontSize=16;align=center;verticalAlign=middle;fontFamily=Times New Roman;fontColor=default;startSize=0;" vertex="1" parent="X-1EoEnKetWkJ9hzd2uH-386">
          <mxGeometry height="25" as="geometry">
            <mxRectangle height="25" as="alternateBounds" />
          </mxGeometry>
        </mxCell>
        <mxCell id="X-1EoEnKetWkJ9hzd2uH-393" style="shape=partialRectangle;html=1;whiteSpace=wrap;connectable=0;strokeColor=inherit;overflow=hidden;fillColor=none;top=0;left=0;bottom=0;right=0;pointerEvents=1;fontSize=16;align=center;verticalAlign=middle;fontFamily=Times New Roman;fontColor=default;startSize=0;" vertex="1" parent="X-1EoEnKetWkJ9hzd2uH-386">
          <mxGeometry height="25" as="geometry">
            <mxRectangle height="25" as="alternateBounds" />
          </mxGeometry>
        </mxCell>
        <mxCell id="X-1EoEnKetWkJ9hzd2uH-394" value="" style="shape=partialRectangle;html=1;whiteSpace=wrap;connectable=0;strokeColor=inherit;overflow=hidden;fillColor=none;top=0;left=0;bottom=0;right=0;pointerEvents=1;fontSize=16;align=center;verticalAlign=middle;fontFamily=Times New Roman;fontColor=default;startSize=0;" vertex="1" parent="X-1EoEnKetWkJ9hzd2uH-386">
          <mxGeometry height="25" as="geometry">
            <mxRectangle height="25" as="alternateBounds" />
          </mxGeometry>
        </mxCell>
        <mxCell id="X-1EoEnKetWkJ9hzd2uH-395" value="1" style="shape=partialRectangle;html=1;whiteSpace=wrap;connectable=0;strokeColor=inherit;overflow=hidden;fillColor=none;top=0;left=0;bottom=0;right=0;pointerEvents=1;fontSize=12;align=center;verticalAlign=middle;fontFamily=Times New Roman;fontColor=#FF0000;startSize=0;fontStyle=1" vertex="1" parent="X-1EoEnKetWkJ9hzd2uH-386">
          <mxGeometry width="23" height="25" as="geometry">
            <mxRectangle width="23" height="25" as="alternateBounds" />
          </mxGeometry>
        </mxCell>
        <mxCell id="X-1EoEnKetWkJ9hzd2uH-513" style="shape=tableRow;horizontal=0;startSize=0;swimlaneHead=0;swimlaneBody=0;strokeColor=inherit;top=0;left=0;bottom=0;right=0;collapsible=0;dropTarget=0;fillColor=none;points=[[0,0.5],[1,0.5]];portConstraint=eastwest;fontSize=16;align=center;verticalAlign=middle;fontFamily=Times New Roman;fontColor=default;" vertex="1" parent="X-1EoEnKetWkJ9hzd2uH-385">
          <mxGeometry y="25" width="22.5" height="25" as="geometry" />
        </mxCell>
        <mxCell id="X-1EoEnKetWkJ9hzd2uH-514" style="shape=partialRectangle;html=1;whiteSpace=wrap;connectable=0;strokeColor=inherit;overflow=hidden;fillColor=none;top=0;left=0;bottom=0;right=0;pointerEvents=1;fontSize=16;align=center;verticalAlign=middle;fontFamily=Times New Roman;fontColor=default;startSize=0;" vertex="1" parent="X-1EoEnKetWkJ9hzd2uH-513">
          <mxGeometry height="25" as="geometry">
            <mxRectangle height="25" as="alternateBounds" />
          </mxGeometry>
        </mxCell>
        <mxCell id="X-1EoEnKetWkJ9hzd2uH-515" style="shape=partialRectangle;html=1;whiteSpace=wrap;connectable=0;strokeColor=inherit;overflow=hidden;fillColor=none;top=0;left=0;bottom=0;right=0;pointerEvents=1;fontSize=16;align=center;verticalAlign=middle;fontFamily=Times New Roman;fontColor=default;startSize=0;" vertex="1" parent="X-1EoEnKetWkJ9hzd2uH-513">
          <mxGeometry height="25" as="geometry">
            <mxRectangle height="25" as="alternateBounds" />
          </mxGeometry>
        </mxCell>
        <mxCell id="X-1EoEnKetWkJ9hzd2uH-516" style="shape=partialRectangle;html=1;whiteSpace=wrap;connectable=0;strokeColor=inherit;overflow=hidden;fillColor=none;top=0;left=0;bottom=0;right=0;pointerEvents=1;fontSize=16;align=center;verticalAlign=middle;fontFamily=Times New Roman;fontColor=default;startSize=0;" vertex="1" parent="X-1EoEnKetWkJ9hzd2uH-513">
          <mxGeometry height="25" as="geometry">
            <mxRectangle height="25" as="alternateBounds" />
          </mxGeometry>
        </mxCell>
        <mxCell id="X-1EoEnKetWkJ9hzd2uH-517" style="shape=partialRectangle;html=1;whiteSpace=wrap;connectable=0;strokeColor=inherit;overflow=hidden;fillColor=none;top=0;left=0;bottom=0;right=0;pointerEvents=1;fontSize=16;align=center;verticalAlign=middle;fontFamily=Times New Roman;fontColor=default;startSize=0;" vertex="1" parent="X-1EoEnKetWkJ9hzd2uH-513">
          <mxGeometry height="25" as="geometry">
            <mxRectangle height="25" as="alternateBounds" />
          </mxGeometry>
        </mxCell>
        <mxCell id="X-1EoEnKetWkJ9hzd2uH-518" style="shape=partialRectangle;html=1;whiteSpace=wrap;connectable=0;strokeColor=inherit;overflow=hidden;fillColor=none;top=0;left=0;bottom=0;right=0;pointerEvents=1;fontSize=16;align=center;verticalAlign=middle;fontFamily=Times New Roman;fontColor=default;startSize=0;" vertex="1" parent="X-1EoEnKetWkJ9hzd2uH-513">
          <mxGeometry height="25" as="geometry">
            <mxRectangle height="25" as="alternateBounds" />
          </mxGeometry>
        </mxCell>
        <mxCell id="X-1EoEnKetWkJ9hzd2uH-519" style="shape=partialRectangle;html=1;whiteSpace=wrap;connectable=0;strokeColor=inherit;overflow=hidden;fillColor=none;top=0;left=0;bottom=0;right=0;pointerEvents=1;fontSize=16;align=center;verticalAlign=middle;fontFamily=Times New Roman;fontColor=default;startSize=0;" vertex="1" parent="X-1EoEnKetWkJ9hzd2uH-513">
          <mxGeometry height="25" as="geometry">
            <mxRectangle height="25" as="alternateBounds" />
          </mxGeometry>
        </mxCell>
        <mxCell id="X-1EoEnKetWkJ9hzd2uH-520" style="shape=partialRectangle;html=1;whiteSpace=wrap;connectable=0;strokeColor=inherit;overflow=hidden;fillColor=none;top=0;left=0;bottom=0;right=0;pointerEvents=1;fontSize=16;align=center;verticalAlign=middle;fontFamily=Times New Roman;fontColor=default;startSize=0;" vertex="1" parent="X-1EoEnKetWkJ9hzd2uH-513">
          <mxGeometry height="25" as="geometry">
            <mxRectangle height="25" as="alternateBounds" />
          </mxGeometry>
        </mxCell>
        <mxCell id="X-1EoEnKetWkJ9hzd2uH-521" style="shape=partialRectangle;html=1;whiteSpace=wrap;connectable=0;strokeColor=inherit;overflow=hidden;fillColor=none;top=0;left=0;bottom=0;right=0;pointerEvents=1;fontSize=16;align=center;verticalAlign=middle;fontFamily=Times New Roman;fontColor=default;startSize=0;" vertex="1" parent="X-1EoEnKetWkJ9hzd2uH-513">
          <mxGeometry height="25" as="geometry">
            <mxRectangle height="25" as="alternateBounds" />
          </mxGeometry>
        </mxCell>
        <mxCell id="X-1EoEnKetWkJ9hzd2uH-522" value="1" style="shape=partialRectangle;html=1;whiteSpace=wrap;connectable=0;strokeColor=inherit;overflow=hidden;fillColor=none;top=0;left=0;bottom=0;right=0;pointerEvents=1;fontSize=12;align=center;verticalAlign=middle;fontFamily=Times New Roman;fontColor=#FF0000;startSize=0;fontStyle=1" vertex="1" parent="X-1EoEnKetWkJ9hzd2uH-513">
          <mxGeometry width="23" height="25" as="geometry">
            <mxRectangle width="23" height="25" as="alternateBounds" />
          </mxGeometry>
        </mxCell>
        <mxCell id="X-1EoEnKetWkJ9hzd2uH-406" value="TAG" style="text;html=1;align=center;verticalAlign=middle;resizable=0;points=[];autosize=1;strokeColor=none;fillColor=none;fontSize=12;fontFamily=Times New Roman;fontColor=default;" vertex="1" parent="1">
          <mxGeometry x="367.25" y="508" width="43" height="27" as="geometry" />
        </mxCell>
        <mxCell id="X-1EoEnKetWkJ9hzd2uH-407" value="" style="endArrow=classic;html=1;rounded=0;fontFamily=Times New Roman;fontSize=16;fontColor=default;startSize=0;exitX=1;exitY=0.5;exitDx=0;exitDy=0;" edge="1" parent="1" source="X-1EoEnKetWkJ9hzd2uH-507">
          <mxGeometry width="50" height="50" relative="1" as="geometry">
            <mxPoint x="345" y="555" as="sourcePoint" />
            <mxPoint x="377" y="572" as="targetPoint" />
          </mxGeometry>
        </mxCell>
        <mxCell id="X-1EoEnKetWkJ9hzd2uH-408" value="" style="endArrow=classic;html=1;rounded=0;fontFamily=Times New Roman;fontSize=16;fontColor=default;startSize=0;exitX=1;exitY=0.5;exitDx=0;exitDy=0;" edge="1" parent="1" source="X-1EoEnKetWkJ9hzd2uH-501" target="X-1EoEnKetWkJ9hzd2uH-396">
          <mxGeometry width="50" height="50" relative="1" as="geometry">
            <mxPoint x="345" y="525" as="sourcePoint" />
            <mxPoint x="380" y="585" as="targetPoint" />
          </mxGeometry>
        </mxCell>
        <mxCell id="X-1EoEnKetWkJ9hzd2uH-409" value="" style="endArrow=classic;html=1;rounded=0;fontFamily=Times New Roman;fontSize=16;fontColor=default;startSize=0;entryX=0.105;entryY=0.919;entryDx=0;entryDy=0;entryPerimeter=0;" edge="1" parent="1">
          <mxGeometry width="50" height="50" relative="1" as="geometry">
            <mxPoint x="240" y="613" as="sourcePoint" />
            <mxPoint x="240.3625" y="584.004" as="targetPoint" />
          </mxGeometry>
        </mxCell>
        <mxCell id="X-1EoEnKetWkJ9hzd2uH-410" value="" style="endArrow=classic;html=1;rounded=0;fontFamily=Times New Roman;fontSize=16;fontColor=default;startSize=0;entryX=0.155;entryY=0.997;entryDx=0;entryDy=0;entryPerimeter=0;" edge="1" parent="1">
          <mxGeometry width="50" height="50" relative="1" as="geometry">
            <mxPoint x="265" y="613" as="sourcePoint" />
            <mxPoint x="264.99999999999994" y="584" as="targetPoint" />
            <Array as="points">
              <mxPoint x="265" y="584" />
            </Array>
          </mxGeometry>
        </mxCell>
        <mxCell id="X-1EoEnKetWkJ9hzd2uH-411" value="" style="endArrow=classic;html=1;rounded=0;fontFamily=Times New Roman;fontSize=16;fontColor=default;startSize=0;entryX=0.155;entryY=0.997;entryDx=0;entryDy=0;entryPerimeter=0;" edge="1" parent="1">
          <mxGeometry width="50" height="50" relative="1" as="geometry">
            <mxPoint x="290" y="613" as="sourcePoint" />
            <mxPoint x="289.99999999999994" y="584" as="targetPoint" />
            <Array as="points">
              <mxPoint x="290" y="584" />
            </Array>
          </mxGeometry>
        </mxCell>
        <mxCell id="X-1EoEnKetWkJ9hzd2uH-471" value="2. Search 001 in Ci, R1, R2" style="text;html=1;align=center;verticalAlign=middle;resizable=0;points=[];autosize=1;strokeColor=none;fillColor=none;fontSize=12;fontFamily=Times New Roman;fontColor=default;" vertex="1" parent="1">
          <mxGeometry x="219" y="472" width="151" height="27" as="geometry" />
        </mxCell>
        <mxCell id="X-1EoEnKetWkJ9hzd2uH-472" value="3. Update 00" style="text;html=1;align=center;verticalAlign=middle;resizable=0;points=[];autosize=1;strokeColor=none;fillColor=none;fontSize=12;fontFamily=Times New Roman;fontColor=default;" vertex="1" parent="1">
          <mxGeometry x="431" y="470" width="81" height="27" as="geometry" />
        </mxCell>
        <mxCell id="X-1EoEnKetWkJ9hzd2uH-474" value="" style="shape=table;startSize=0;container=1;collapsible=0;childLayout=tableLayout;fontSize=13;strokeColor=default;align=center;verticalAlign=middle;fontFamily=Times New Roman;fontColor=default;fillColor=default;" vertex="1" parent="1">
          <mxGeometry x="57.5" y="510" width="122.5" height="75" as="geometry" />
        </mxCell>
        <mxCell id="X-1EoEnKetWkJ9hzd2uH-475" value="" style="shape=tableRow;horizontal=0;startSize=0;swimlaneHead=0;swimlaneBody=0;strokeColor=inherit;top=0;left=0;bottom=0;right=0;collapsible=0;dropTarget=0;fillColor=none;points=[[0,0.5],[1,0.5]];portConstraint=eastwest;fontSize=16;align=center;verticalAlign=middle;fontFamily=Times New Roman;fontColor=default;" vertex="1" parent="X-1EoEnKetWkJ9hzd2uH-474">
          <mxGeometry width="122.5" height="25" as="geometry" />
        </mxCell>
        <mxCell id="X-1EoEnKetWkJ9hzd2uH-491" value="Ci" style="shape=partialRectangle;html=1;whiteSpace=wrap;connectable=0;strokeColor=inherit;overflow=hidden;fillColor=none;top=0;left=0;bottom=0;right=0;pointerEvents=1;fontSize=12;align=center;verticalAlign=middle;fontFamily=Times New Roman;fontColor=default;startSize=0;" vertex="1" parent="X-1EoEnKetWkJ9hzd2uH-475">
          <mxGeometry width="25" height="25" as="geometry">
            <mxRectangle width="25" height="25" as="alternateBounds" />
          </mxGeometry>
        </mxCell>
        <mxCell id="X-1EoEnKetWkJ9hzd2uH-476" value="R1" style="shape=partialRectangle;html=1;whiteSpace=wrap;connectable=0;strokeColor=inherit;overflow=hidden;fillColor=none;top=0;left=0;bottom=0;right=0;pointerEvents=1;fontSize=12;align=center;verticalAlign=middle;fontFamily=Times New Roman;fontColor=default;startSize=0;" vertex="1" parent="X-1EoEnKetWkJ9hzd2uH-475">
          <mxGeometry x="25" width="24" height="25" as="geometry">
            <mxRectangle width="24" height="25" as="alternateBounds" />
          </mxGeometry>
        </mxCell>
        <mxCell id="X-1EoEnKetWkJ9hzd2uH-477" value="R2" style="shape=partialRectangle;html=1;whiteSpace=wrap;connectable=0;strokeColor=inherit;overflow=hidden;fillColor=none;top=0;left=0;bottom=0;right=0;pointerEvents=1;fontSize=12;align=center;verticalAlign=middle;fontFamily=Times New Roman;fontColor=default;startSize=0;" vertex="1" parent="X-1EoEnKetWkJ9hzd2uH-475">
          <mxGeometry x="49" width="25" height="25" as="geometry">
            <mxRectangle width="25" height="25" as="alternateBounds" />
          </mxGeometry>
        </mxCell>
        <mxCell id="X-1EoEnKetWkJ9hzd2uH-478" value="R3" style="shape=partialRectangle;html=1;whiteSpace=wrap;connectable=0;strokeColor=inherit;overflow=hidden;fillColor=none;top=0;left=0;bottom=0;right=0;pointerEvents=1;fontSize=12;align=center;verticalAlign=middle;fontFamily=Times New Roman;fontColor=default;startSize=0;" vertex="1" parent="X-1EoEnKetWkJ9hzd2uH-475">
          <mxGeometry x="74" width="24" height="25" as="geometry">
            <mxRectangle width="24" height="25" as="alternateBounds" />
          </mxGeometry>
        </mxCell>
        <mxCell id="X-1EoEnKetWkJ9hzd2uH-488" value="Co" style="shape=partialRectangle;html=1;whiteSpace=wrap;connectable=0;strokeColor=inherit;overflow=hidden;fillColor=none;top=0;left=0;bottom=0;right=0;pointerEvents=1;fontSize=12;align=center;verticalAlign=middle;fontFamily=Times New Roman;fontColor=default;startSize=0;" vertex="1" parent="X-1EoEnKetWkJ9hzd2uH-475">
          <mxGeometry x="98" width="25" height="25" as="geometry">
            <mxRectangle width="25" height="25" as="alternateBounds" />
          </mxGeometry>
        </mxCell>
        <mxCell id="X-1EoEnKetWkJ9hzd2uH-479" value="" style="shape=tableRow;horizontal=0;startSize=0;swimlaneHead=0;swimlaneBody=0;strokeColor=inherit;top=0;left=0;bottom=0;right=0;collapsible=0;dropTarget=0;fillColor=none;points=[[0,0.5],[1,0.5]];portConstraint=eastwest;fontSize=16;align=center;verticalAlign=middle;fontFamily=Times New Roman;fontColor=default;" vertex="1" parent="X-1EoEnKetWkJ9hzd2uH-474">
          <mxGeometry y="25" width="122.5" height="24" as="geometry" />
        </mxCell>
        <mxCell id="X-1EoEnKetWkJ9hzd2uH-492" value="X" style="shape=partialRectangle;html=1;whiteSpace=wrap;connectable=0;strokeColor=inherit;overflow=hidden;fillColor=none;top=0;left=0;bottom=0;right=0;pointerEvents=1;fontSize=12;align=center;verticalAlign=middle;fontFamily=Times New Roman;fontColor=default;startSize=0;" vertex="1" parent="X-1EoEnKetWkJ9hzd2uH-479">
          <mxGeometry width="25" height="24" as="geometry">
            <mxRectangle width="25" height="24" as="alternateBounds" />
          </mxGeometry>
        </mxCell>
        <mxCell id="X-1EoEnKetWkJ9hzd2uH-480" value="0" style="shape=partialRectangle;html=1;whiteSpace=wrap;connectable=0;strokeColor=inherit;overflow=hidden;fillColor=none;top=0;left=0;bottom=0;right=0;pointerEvents=1;fontSize=12;align=center;verticalAlign=middle;fontFamily=Times New Roman;fontColor=default;startSize=0;" vertex="1" parent="X-1EoEnKetWkJ9hzd2uH-479">
          <mxGeometry x="25" width="24" height="24" as="geometry">
            <mxRectangle width="24" height="24" as="alternateBounds" />
          </mxGeometry>
        </mxCell>
        <mxCell id="X-1EoEnKetWkJ9hzd2uH-481" value="1" style="shape=partialRectangle;html=1;whiteSpace=wrap;connectable=0;strokeColor=inherit;overflow=hidden;fillColor=none;top=0;left=0;bottom=0;right=0;pointerEvents=1;fontSize=12;align=center;verticalAlign=middle;fontFamily=Times New Roman;fontColor=default;startSize=0;" vertex="1" parent="X-1EoEnKetWkJ9hzd2uH-479">
          <mxGeometry x="49" width="25" height="24" as="geometry">
            <mxRectangle width="25" height="24" as="alternateBounds" />
          </mxGeometry>
        </mxCell>
        <mxCell id="X-1EoEnKetWkJ9hzd2uH-482" value="&lt;b style=&quot;font-size: 12px;&quot;&gt;&lt;font color=&quot;#ff0000&quot; style=&quot;font-size: 12px;&quot;&gt;0&lt;/font&gt;&lt;/b&gt;" style="shape=partialRectangle;html=1;whiteSpace=wrap;connectable=0;strokeColor=inherit;overflow=hidden;fillColor=none;top=0;left=0;bottom=0;right=0;pointerEvents=1;fontSize=12;align=center;verticalAlign=middle;fontFamily=Times New Roman;fontColor=default;startSize=0;" vertex="1" parent="X-1EoEnKetWkJ9hzd2uH-479">
          <mxGeometry x="74" width="24" height="24" as="geometry">
            <mxRectangle width="24" height="24" as="alternateBounds" />
          </mxGeometry>
        </mxCell>
        <mxCell id="X-1EoEnKetWkJ9hzd2uH-489" value="0" style="shape=partialRectangle;html=1;whiteSpace=wrap;connectable=0;strokeColor=inherit;overflow=hidden;fillColor=none;top=0;left=0;bottom=0;right=0;pointerEvents=1;fontSize=12;align=center;verticalAlign=middle;fontFamily=Times New Roman;fontColor=default;startSize=0;" vertex="1" parent="X-1EoEnKetWkJ9hzd2uH-479">
          <mxGeometry x="98" width="25" height="24" as="geometry">
            <mxRectangle width="25" height="24" as="alternateBounds" />
          </mxGeometry>
        </mxCell>
        <mxCell id="X-1EoEnKetWkJ9hzd2uH-483" value="" style="shape=tableRow;horizontal=0;startSize=0;swimlaneHead=0;swimlaneBody=0;strokeColor=inherit;top=0;left=0;bottom=0;right=0;collapsible=0;dropTarget=0;fillColor=none;points=[[0,0.5],[1,0.5]];portConstraint=eastwest;fontSize=16;align=center;verticalAlign=middle;fontFamily=Times New Roman;fontColor=default;" vertex="1" parent="X-1EoEnKetWkJ9hzd2uH-474">
          <mxGeometry y="49" width="122.5" height="26" as="geometry" />
        </mxCell>
        <mxCell id="X-1EoEnKetWkJ9hzd2uH-493" value="X" style="shape=partialRectangle;html=1;whiteSpace=wrap;connectable=0;strokeColor=inherit;overflow=hidden;fillColor=none;top=0;left=0;bottom=0;right=0;pointerEvents=1;fontSize=12;align=center;verticalAlign=middle;fontFamily=Times New Roman;fontColor=default;startSize=0;" vertex="1" parent="X-1EoEnKetWkJ9hzd2uH-483">
          <mxGeometry width="25" height="26" as="geometry">
            <mxRectangle width="25" height="26" as="alternateBounds" />
          </mxGeometry>
        </mxCell>
        <mxCell id="X-1EoEnKetWkJ9hzd2uH-484" value="0" style="shape=partialRectangle;html=1;whiteSpace=wrap;connectable=0;strokeColor=inherit;overflow=hidden;fillColor=none;top=0;left=0;bottom=0;right=0;pointerEvents=1;fontSize=12;align=center;verticalAlign=middle;fontFamily=Times New Roman;fontColor=default;startSize=0;" vertex="1" parent="X-1EoEnKetWkJ9hzd2uH-483">
          <mxGeometry x="25" width="24" height="26" as="geometry">
            <mxRectangle width="24" height="26" as="alternateBounds" />
          </mxGeometry>
        </mxCell>
        <mxCell id="X-1EoEnKetWkJ9hzd2uH-485" value="1" style="shape=partialRectangle;html=1;whiteSpace=wrap;connectable=0;strokeColor=inherit;overflow=hidden;fillColor=none;top=0;left=0;bottom=0;right=0;pointerEvents=1;fontSize=12;align=center;verticalAlign=middle;fontFamily=Times New Roman;fontColor=default;startSize=0;" vertex="1" parent="X-1EoEnKetWkJ9hzd2uH-483">
          <mxGeometry x="49" width="25" height="26" as="geometry">
            <mxRectangle width="25" height="26" as="alternateBounds" />
          </mxGeometry>
        </mxCell>
        <mxCell id="X-1EoEnKetWkJ9hzd2uH-486" value="&lt;font color=&quot;#ff0000&quot; style=&quot;font-size: 12px;&quot;&gt;&lt;b style=&quot;font-size: 12px;&quot;&gt;0&lt;/b&gt;&lt;/font&gt;" style="shape=partialRectangle;html=1;whiteSpace=wrap;connectable=0;strokeColor=inherit;overflow=hidden;fillColor=none;top=0;left=0;bottom=0;right=0;pointerEvents=1;fontSize=12;align=center;verticalAlign=middle;fontFamily=Times New Roman;fontColor=default;startSize=0;" vertex="1" parent="X-1EoEnKetWkJ9hzd2uH-483">
          <mxGeometry x="74" width="24" height="26" as="geometry">
            <mxRectangle width="24" height="26" as="alternateBounds" />
          </mxGeometry>
        </mxCell>
        <mxCell id="X-1EoEnKetWkJ9hzd2uH-490" value="0" style="shape=partialRectangle;html=1;whiteSpace=wrap;connectable=0;strokeColor=inherit;overflow=hidden;fillColor=none;top=0;left=0;bottom=0;right=0;pointerEvents=1;fontSize=12;align=center;verticalAlign=middle;fontFamily=Times New Roman;fontColor=default;startSize=0;" vertex="1" parent="X-1EoEnKetWkJ9hzd2uH-483">
          <mxGeometry x="98" width="25" height="26" as="geometry">
            <mxRectangle width="25" height="26" as="alternateBounds" />
          </mxGeometry>
        </mxCell>
        <mxCell id="X-1EoEnKetWkJ9hzd2uH-487" value="1. Initialise R3, Co to 0s" style="text;html=1;align=center;verticalAlign=middle;resizable=0;points=[];autosize=1;strokeColor=none;fillColor=none;fontSize=12;fontFamily=Times New Roman;fontColor=default;" vertex="1" parent="1">
          <mxGeometry x="43.75" y="470.5" width="150" height="30" as="geometry" />
        </mxCell>
        <mxCell id="X-1EoEnKetWkJ9hzd2uH-494" value="" style="shape=table;startSize=0;container=1;collapsible=0;childLayout=tableLayout;fontSize=13;strokeColor=default;align=center;verticalAlign=middle;fontFamily=Times New Roman;fontColor=default;fillColor=default;" vertex="1" parent="1">
          <mxGeometry x="227.5" y="510" width="122.5" height="74.5" as="geometry" />
        </mxCell>
        <mxCell id="X-1EoEnKetWkJ9hzd2uH-495" value="" style="shape=tableRow;horizontal=0;startSize=0;swimlaneHead=0;swimlaneBody=0;strokeColor=inherit;top=0;left=0;bottom=0;right=0;collapsible=0;dropTarget=0;fillColor=none;points=[[0,0.5],[1,0.5]];portConstraint=eastwest;fontSize=16;align=center;verticalAlign=middle;fontFamily=Times New Roman;fontColor=default;" vertex="1" parent="X-1EoEnKetWkJ9hzd2uH-494">
          <mxGeometry width="122.5" height="24" as="geometry" />
        </mxCell>
        <mxCell id="X-1EoEnKetWkJ9hzd2uH-496" value="Ci" style="shape=partialRectangle;html=1;whiteSpace=wrap;connectable=0;strokeColor=inherit;overflow=hidden;fillColor=none;top=0;left=0;bottom=0;right=0;pointerEvents=1;fontSize=12;align=center;verticalAlign=middle;fontFamily=Times New Roman;fontColor=default;startSize=0;" vertex="1" parent="X-1EoEnKetWkJ9hzd2uH-495">
          <mxGeometry width="25" height="24" as="geometry">
            <mxRectangle width="25" height="24" as="alternateBounds" />
          </mxGeometry>
        </mxCell>
        <mxCell id="X-1EoEnKetWkJ9hzd2uH-497" value="R1" style="shape=partialRectangle;html=1;whiteSpace=wrap;connectable=0;strokeColor=inherit;overflow=hidden;fillColor=none;top=0;left=0;bottom=0;right=0;pointerEvents=1;fontSize=12;align=center;verticalAlign=middle;fontFamily=Times New Roman;fontColor=default;startSize=0;" vertex="1" parent="X-1EoEnKetWkJ9hzd2uH-495">
          <mxGeometry x="25" width="24" height="24" as="geometry">
            <mxRectangle width="24" height="24" as="alternateBounds" />
          </mxGeometry>
        </mxCell>
        <mxCell id="X-1EoEnKetWkJ9hzd2uH-498" value="R2" style="shape=partialRectangle;html=1;whiteSpace=wrap;connectable=0;strokeColor=inherit;overflow=hidden;fillColor=none;top=0;left=0;bottom=0;right=0;pointerEvents=1;fontSize=12;align=center;verticalAlign=middle;fontFamily=Times New Roman;fontColor=default;startSize=0;" vertex="1" parent="X-1EoEnKetWkJ9hzd2uH-495">
          <mxGeometry x="49" width="25" height="24" as="geometry">
            <mxRectangle width="25" height="24" as="alternateBounds" />
          </mxGeometry>
        </mxCell>
        <mxCell id="X-1EoEnKetWkJ9hzd2uH-499" value="R3" style="shape=partialRectangle;html=1;whiteSpace=wrap;connectable=0;strokeColor=inherit;overflow=hidden;fillColor=none;top=0;left=0;bottom=0;right=0;pointerEvents=1;fontSize=12;align=center;verticalAlign=middle;fontFamily=Times New Roman;fontColor=default;startSize=0;" vertex="1" parent="X-1EoEnKetWkJ9hzd2uH-495">
          <mxGeometry x="74" width="24" height="24" as="geometry">
            <mxRectangle width="24" height="24" as="alternateBounds" />
          </mxGeometry>
        </mxCell>
        <mxCell id="X-1EoEnKetWkJ9hzd2uH-500" value="Co" style="shape=partialRectangle;html=1;whiteSpace=wrap;connectable=0;strokeColor=inherit;overflow=hidden;fillColor=none;top=0;left=0;bottom=0;right=0;pointerEvents=1;fontSize=12;align=center;verticalAlign=middle;fontFamily=Times New Roman;fontColor=default;startSize=0;" vertex="1" parent="X-1EoEnKetWkJ9hzd2uH-495">
          <mxGeometry x="98" width="25" height="24" as="geometry">
            <mxRectangle width="25" height="24" as="alternateBounds" />
          </mxGeometry>
        </mxCell>
        <mxCell id="X-1EoEnKetWkJ9hzd2uH-501" value="" style="shape=tableRow;horizontal=0;startSize=0;swimlaneHead=0;swimlaneBody=0;strokeColor=inherit;top=0;left=0;bottom=0;right=0;collapsible=0;dropTarget=0;fillColor=none;points=[[0,0.5],[1,0.5]];portConstraint=eastwest;fontSize=16;align=center;verticalAlign=middle;fontFamily=Times New Roman;fontColor=default;" vertex="1" parent="X-1EoEnKetWkJ9hzd2uH-494">
          <mxGeometry y="24" width="122.5" height="25" as="geometry" />
        </mxCell>
        <mxCell id="X-1EoEnKetWkJ9hzd2uH-502" value="X" style="shape=partialRectangle;html=1;whiteSpace=wrap;connectable=0;strokeColor=inherit;overflow=hidden;fillColor=none;top=0;left=0;bottom=0;right=0;pointerEvents=1;fontSize=12;align=center;verticalAlign=middle;fontFamily=Times New Roman;fontColor=default;startSize=0;" vertex="1" parent="X-1EoEnKetWkJ9hzd2uH-501">
          <mxGeometry width="25" height="25" as="geometry">
            <mxRectangle width="25" height="25" as="alternateBounds" />
          </mxGeometry>
        </mxCell>
        <mxCell id="X-1EoEnKetWkJ9hzd2uH-503" value="0" style="shape=partialRectangle;html=1;whiteSpace=wrap;connectable=0;strokeColor=inherit;overflow=hidden;fillColor=none;top=0;left=0;bottom=0;right=0;pointerEvents=1;fontSize=12;align=center;verticalAlign=middle;fontFamily=Times New Roman;fontColor=default;startSize=0;" vertex="1" parent="X-1EoEnKetWkJ9hzd2uH-501">
          <mxGeometry x="25" width="24" height="25" as="geometry">
            <mxRectangle width="24" height="25" as="alternateBounds" />
          </mxGeometry>
        </mxCell>
        <mxCell id="X-1EoEnKetWkJ9hzd2uH-504" value="1" style="shape=partialRectangle;html=1;whiteSpace=wrap;connectable=0;strokeColor=inherit;overflow=hidden;fillColor=none;top=0;left=0;bottom=0;right=0;pointerEvents=1;fontSize=12;align=center;verticalAlign=middle;fontFamily=Times New Roman;fontColor=default;startSize=0;" vertex="1" parent="X-1EoEnKetWkJ9hzd2uH-501">
          <mxGeometry x="49" width="25" height="25" as="geometry">
            <mxRectangle width="25" height="25" as="alternateBounds" />
          </mxGeometry>
        </mxCell>
        <mxCell id="X-1EoEnKetWkJ9hzd2uH-505" value="&lt;b style=&quot;font-size: 12px;&quot;&gt;&lt;font style=&quot;font-size: 12px;&quot;&gt;0&lt;/font&gt;&lt;/b&gt;" style="shape=partialRectangle;html=1;whiteSpace=wrap;connectable=0;strokeColor=inherit;overflow=hidden;fillColor=none;top=0;left=0;bottom=0;right=0;pointerEvents=1;fontSize=12;align=center;verticalAlign=middle;fontFamily=Times New Roman;fontColor=default;startSize=0;" vertex="1" parent="X-1EoEnKetWkJ9hzd2uH-501">
          <mxGeometry x="74" width="24" height="25" as="geometry">
            <mxRectangle width="24" height="25" as="alternateBounds" />
          </mxGeometry>
        </mxCell>
        <mxCell id="X-1EoEnKetWkJ9hzd2uH-506" value="0" style="shape=partialRectangle;html=1;whiteSpace=wrap;connectable=0;strokeColor=inherit;overflow=hidden;fillColor=none;top=0;left=0;bottom=0;right=0;pointerEvents=1;fontSize=12;align=center;verticalAlign=middle;fontFamily=Times New Roman;fontColor=default;startSize=0;" vertex="1" parent="X-1EoEnKetWkJ9hzd2uH-501">
          <mxGeometry x="98" width="25" height="25" as="geometry">
            <mxRectangle width="25" height="25" as="alternateBounds" />
          </mxGeometry>
        </mxCell>
        <mxCell id="X-1EoEnKetWkJ9hzd2uH-507" value="" style="shape=tableRow;horizontal=0;startSize=0;swimlaneHead=0;swimlaneBody=0;strokeColor=inherit;top=0;left=0;bottom=0;right=0;collapsible=0;dropTarget=0;fillColor=none;points=[[0,0.5],[1,0.5]];portConstraint=eastwest;fontSize=16;align=center;verticalAlign=middle;fontFamily=Times New Roman;fontColor=default;" vertex="1" parent="X-1EoEnKetWkJ9hzd2uH-494">
          <mxGeometry y="49" width="122.5" height="26" as="geometry" />
        </mxCell>
        <mxCell id="X-1EoEnKetWkJ9hzd2uH-508" value="X" style="shape=partialRectangle;html=1;whiteSpace=wrap;connectable=0;strokeColor=inherit;overflow=hidden;fillColor=none;top=0;left=0;bottom=0;right=0;pointerEvents=1;fontSize=12;align=center;verticalAlign=middle;fontFamily=Times New Roman;fontColor=default;startSize=0;" vertex="1" parent="X-1EoEnKetWkJ9hzd2uH-507">
          <mxGeometry width="25" height="26" as="geometry">
            <mxRectangle width="25" height="26" as="alternateBounds" />
          </mxGeometry>
        </mxCell>
        <mxCell id="X-1EoEnKetWkJ9hzd2uH-509" value="0" style="shape=partialRectangle;html=1;whiteSpace=wrap;connectable=0;strokeColor=inherit;overflow=hidden;fillColor=none;top=0;left=0;bottom=0;right=0;pointerEvents=1;fontSize=12;align=center;verticalAlign=middle;fontFamily=Times New Roman;fontColor=default;startSize=0;" vertex="1" parent="X-1EoEnKetWkJ9hzd2uH-507">
          <mxGeometry x="25" width="24" height="26" as="geometry">
            <mxRectangle width="24" height="26" as="alternateBounds" />
          </mxGeometry>
        </mxCell>
        <mxCell id="X-1EoEnKetWkJ9hzd2uH-510" value="1" style="shape=partialRectangle;html=1;whiteSpace=wrap;connectable=0;strokeColor=inherit;overflow=hidden;fillColor=none;top=0;left=0;bottom=0;right=0;pointerEvents=1;fontSize=12;align=center;verticalAlign=middle;fontFamily=Times New Roman;fontColor=default;startSize=0;" vertex="1" parent="X-1EoEnKetWkJ9hzd2uH-507">
          <mxGeometry x="49" width="25" height="26" as="geometry">
            <mxRectangle width="25" height="26" as="alternateBounds" />
          </mxGeometry>
        </mxCell>
        <mxCell id="X-1EoEnKetWkJ9hzd2uH-511" value="&lt;font style=&quot;font-size: 12px;&quot;&gt;&lt;b style=&quot;font-size: 12px;&quot;&gt;0&lt;/b&gt;&lt;/font&gt;" style="shape=partialRectangle;html=1;whiteSpace=wrap;connectable=0;strokeColor=inherit;overflow=hidden;fillColor=none;top=0;left=0;bottom=0;right=0;pointerEvents=1;fontSize=12;align=center;verticalAlign=middle;fontFamily=Times New Roman;fontColor=default;startSize=0;" vertex="1" parent="X-1EoEnKetWkJ9hzd2uH-507">
          <mxGeometry x="74" width="24" height="26" as="geometry">
            <mxRectangle width="24" height="26" as="alternateBounds" />
          </mxGeometry>
        </mxCell>
        <mxCell id="X-1EoEnKetWkJ9hzd2uH-512" value="0" style="shape=partialRectangle;html=1;whiteSpace=wrap;connectable=0;strokeColor=inherit;overflow=hidden;fillColor=none;top=0;left=0;bottom=0;right=0;pointerEvents=1;fontSize=12;align=center;verticalAlign=middle;fontFamily=Times New Roman;fontColor=default;startSize=0;" vertex="1" parent="X-1EoEnKetWkJ9hzd2uH-507">
          <mxGeometry x="98" width="25" height="26" as="geometry">
            <mxRectangle width="25" height="26" as="alternateBounds" />
          </mxGeometry>
        </mxCell>
        <mxCell id="X-1EoEnKetWkJ9hzd2uH-524" value="" style="endArrow=classic;html=1;rounded=0;fontFamily=Times New Roman;fontSize=16;fontColor=default;startSize=0;exitX=1;exitY=0.5;exitDx=0;exitDy=0;entryX=-0.006;entryY=0.457;entryDx=0;entryDy=0;entryPerimeter=0;" edge="1" parent="1" source="X-1EoEnKetWkJ9hzd2uH-501" target="X-1EoEnKetWkJ9hzd2uH-386">
          <mxGeometry width="50" height="50" relative="1" as="geometry">
            <mxPoint x="355" y="577" as="sourcePoint" />
            <mxPoint x="375" y="545" as="targetPoint" />
          </mxGeometry>
        </mxCell>
        <mxCell id="X-1EoEnKetWkJ9hzd2uH-527" value="" style="endArrow=classic;html=1;rounded=0;fontFamily=Times New Roman;fontSize=16;fontColor=default;startSize=0;entryX=0.155;entryY=0.997;entryDx=0;entryDy=0;entryPerimeter=0;" edge="1" parent="1">
          <mxGeometry width="50" height="50" relative="1" as="geometry">
            <mxPoint x="315" y="613" as="sourcePoint" />
            <mxPoint x="314.99999999999994" y="584" as="targetPoint" />
            <Array as="points">
              <mxPoint x="315" y="584" />
            </Array>
          </mxGeometry>
        </mxCell>
        <mxCell id="X-1EoEnKetWkJ9hzd2uH-528" value="" style="endArrow=classic;html=1;rounded=0;fontFamily=Times New Roman;fontSize=16;fontColor=default;startSize=0;entryX=0.155;entryY=0.997;entryDx=0;entryDy=0;entryPerimeter=0;" edge="1" parent="1">
          <mxGeometry width="50" height="50" relative="1" as="geometry">
            <mxPoint x="339" y="613" as="sourcePoint" />
            <mxPoint x="338.99999999999994" y="584" as="targetPoint" />
            <Array as="points">
              <mxPoint x="339" y="584" />
            </Array>
          </mxGeometry>
        </mxCell>
        <mxCell id="X-1EoEnKetWkJ9hzd2uH-529" value="" style="shape=table;startSize=0;container=1;collapsible=0;childLayout=tableLayout;fontSize=12;strokeColor=default;align=center;verticalAlign=middle;fontFamily=Times New Roman;fontColor=default;fillColor=default;" vertex="1" parent="1">
          <mxGeometry x="439" y="615" width="123.5" height="26" as="geometry" />
        </mxCell>
        <mxCell id="X-1EoEnKetWkJ9hzd2uH-530" value="" style="shape=tableRow;horizontal=0;startSize=0;swimlaneHead=0;swimlaneBody=0;strokeColor=inherit;top=0;left=0;bottom=0;right=0;collapsible=0;dropTarget=0;fillColor=none;points=[[0,0.5],[1,0.5]];portConstraint=eastwest;fontSize=16;align=center;verticalAlign=middle;fontFamily=Times New Roman;fontColor=default;" vertex="1" parent="X-1EoEnKetWkJ9hzd2uH-529">
          <mxGeometry width="123.5" height="26" as="geometry" />
        </mxCell>
        <mxCell id="X-1EoEnKetWkJ9hzd2uH-531" value="&lt;b style=&quot;font-size: 12px;&quot;&gt;&lt;font style=&quot;font-size: 12px;&quot;&gt;X&lt;/font&gt;&lt;/b&gt;" style="shape=partialRectangle;html=1;whiteSpace=wrap;connectable=0;strokeColor=inherit;overflow=hidden;fillColor=none;top=0;left=0;bottom=0;right=0;pointerEvents=1;fontSize=12;align=center;verticalAlign=middle;fontFamily=Times New Roman;fontColor=#000000;startSize=0;" vertex="1" parent="X-1EoEnKetWkJ9hzd2uH-530">
          <mxGeometry width="25" height="26" as="geometry">
            <mxRectangle width="25" height="26" as="alternateBounds" />
          </mxGeometry>
        </mxCell>
        <mxCell id="X-1EoEnKetWkJ9hzd2uH-532" value="&lt;font style=&quot;font-size: 12px;&quot;&gt;&lt;b style=&quot;font-size: 12px;&quot;&gt;X&lt;/b&gt;&lt;/font&gt;" style="shape=partialRectangle;html=1;whiteSpace=wrap;connectable=0;strokeColor=inherit;overflow=hidden;fillColor=none;top=0;left=0;bottom=0;right=0;pointerEvents=1;fontSize=12;align=center;verticalAlign=middle;fontFamily=Times New Roman;fontColor=#000000;startSize=0;" vertex="1" parent="X-1EoEnKetWkJ9hzd2uH-530">
          <mxGeometry x="25" width="24" height="26" as="geometry">
            <mxRectangle width="24" height="26" as="alternateBounds" />
          </mxGeometry>
        </mxCell>
        <mxCell id="X-1EoEnKetWkJ9hzd2uH-533" value="&lt;b style=&quot;font-size: 12px;&quot;&gt;&lt;font style=&quot;font-size: 12px;&quot;&gt;X&lt;/font&gt;&lt;/b&gt;" style="shape=partialRectangle;html=1;whiteSpace=wrap;connectable=0;strokeColor=inherit;overflow=hidden;fillColor=none;top=0;left=0;bottom=0;right=0;pointerEvents=1;fontSize=12;align=center;verticalAlign=middle;fontFamily=Times New Roman;fontColor=#000000;startSize=0;" vertex="1" parent="X-1EoEnKetWkJ9hzd2uH-530">
          <mxGeometry x="49" width="25" height="26" as="geometry">
            <mxRectangle width="25" height="26" as="alternateBounds" />
          </mxGeometry>
        </mxCell>
        <mxCell id="X-1EoEnKetWkJ9hzd2uH-534" value="X" style="shape=partialRectangle;html=1;whiteSpace=wrap;connectable=0;strokeColor=inherit;overflow=hidden;fillColor=none;top=0;left=0;bottom=0;right=0;pointerEvents=1;fontSize=12;align=center;verticalAlign=middle;fontFamily=Times New Roman;fontColor=default;startSize=0;" vertex="1" parent="X-1EoEnKetWkJ9hzd2uH-530">
          <mxGeometry x="74" width="25" height="26" as="geometry">
            <mxRectangle width="25" height="26" as="alternateBounds" />
          </mxGeometry>
        </mxCell>
        <mxCell id="X-1EoEnKetWkJ9hzd2uH-535" value="X" style="shape=partialRectangle;html=1;whiteSpace=wrap;connectable=0;strokeColor=inherit;overflow=hidden;fillColor=none;top=0;left=0;bottom=0;right=0;pointerEvents=1;fontSize=12;align=center;verticalAlign=middle;fontFamily=Times New Roman;fontColor=default;startSize=0;" vertex="1" parent="X-1EoEnKetWkJ9hzd2uH-530">
          <mxGeometry x="99" width="25" height="26" as="geometry">
            <mxRectangle width="25" height="26" as="alternateBounds" />
          </mxGeometry>
        </mxCell>
        <mxCell id="X-1EoEnKetWkJ9hzd2uH-536" value="SEARCH" style="text;html=1;align=center;verticalAlign=middle;resizable=0;points=[];autosize=1;strokeColor=none;fillColor=none;fontSize=12;fontFamily=Times New Roman;fontColor=default;" vertex="1" parent="1">
          <mxGeometry x="567.25" y="614.5" width="66" height="27" as="geometry" />
        </mxCell>
        <mxCell id="X-1EoEnKetWkJ9hzd2uH-537" value="" style="shape=table;startSize=0;container=1;collapsible=0;childLayout=tableLayout;fontSize=12;strokeColor=default;align=center;verticalAlign=middle;fontFamily=Times New Roman;fontColor=default;fillColor=default;fontStyle=1" vertex="1" parent="1">
          <mxGeometry x="589" y="537" width="22.5" height="50" as="geometry" />
        </mxCell>
        <mxCell id="X-1EoEnKetWkJ9hzd2uH-538" value="" style="shape=tableRow;horizontal=0;startSize=0;swimlaneHead=0;swimlaneBody=0;strokeColor=inherit;top=0;left=0;bottom=0;right=0;collapsible=0;dropTarget=0;fillColor=none;points=[[0,0.5],[1,0.5]];portConstraint=eastwest;fontSize=16;align=center;verticalAlign=middle;fontFamily=Times New Roman;fontColor=default;" vertex="1" parent="X-1EoEnKetWkJ9hzd2uH-537">
          <mxGeometry width="22.5" height="25" as="geometry" />
        </mxCell>
        <mxCell id="X-1EoEnKetWkJ9hzd2uH-539" style="shape=partialRectangle;html=1;whiteSpace=wrap;connectable=0;strokeColor=inherit;overflow=hidden;fillColor=none;top=0;left=0;bottom=0;right=0;pointerEvents=1;fontSize=16;align=center;verticalAlign=middle;fontFamily=Times New Roman;fontColor=default;startSize=0;" vertex="1" parent="X-1EoEnKetWkJ9hzd2uH-538">
          <mxGeometry height="25" as="geometry">
            <mxRectangle height="25" as="alternateBounds" />
          </mxGeometry>
        </mxCell>
        <mxCell id="X-1EoEnKetWkJ9hzd2uH-540" style="shape=partialRectangle;html=1;whiteSpace=wrap;connectable=0;strokeColor=inherit;overflow=hidden;fillColor=none;top=0;left=0;bottom=0;right=0;pointerEvents=1;fontSize=16;align=center;verticalAlign=middle;fontFamily=Times New Roman;fontColor=default;startSize=0;" vertex="1" parent="X-1EoEnKetWkJ9hzd2uH-538">
          <mxGeometry height="25" as="geometry">
            <mxRectangle height="25" as="alternateBounds" />
          </mxGeometry>
        </mxCell>
        <mxCell id="X-1EoEnKetWkJ9hzd2uH-541" style="shape=partialRectangle;html=1;whiteSpace=wrap;connectable=0;strokeColor=inherit;overflow=hidden;fillColor=none;top=0;left=0;bottom=0;right=0;pointerEvents=1;fontSize=16;align=center;verticalAlign=middle;fontFamily=Times New Roman;fontColor=default;startSize=0;" vertex="1" parent="X-1EoEnKetWkJ9hzd2uH-538">
          <mxGeometry height="25" as="geometry">
            <mxRectangle height="25" as="alternateBounds" />
          </mxGeometry>
        </mxCell>
        <mxCell id="X-1EoEnKetWkJ9hzd2uH-542" style="shape=partialRectangle;html=1;whiteSpace=wrap;connectable=0;strokeColor=inherit;overflow=hidden;fillColor=none;top=0;left=0;bottom=0;right=0;pointerEvents=1;fontSize=16;align=center;verticalAlign=middle;fontFamily=Times New Roman;fontColor=default;startSize=0;" vertex="1" parent="X-1EoEnKetWkJ9hzd2uH-538">
          <mxGeometry height="25" as="geometry">
            <mxRectangle height="25" as="alternateBounds" />
          </mxGeometry>
        </mxCell>
        <mxCell id="X-1EoEnKetWkJ9hzd2uH-543" style="shape=partialRectangle;html=1;whiteSpace=wrap;connectable=0;strokeColor=inherit;overflow=hidden;fillColor=none;top=0;left=0;bottom=0;right=0;pointerEvents=1;fontSize=16;align=center;verticalAlign=middle;fontFamily=Times New Roman;fontColor=default;startSize=0;" vertex="1" parent="X-1EoEnKetWkJ9hzd2uH-538">
          <mxGeometry height="25" as="geometry">
            <mxRectangle height="25" as="alternateBounds" />
          </mxGeometry>
        </mxCell>
        <mxCell id="X-1EoEnKetWkJ9hzd2uH-544" style="shape=partialRectangle;html=1;whiteSpace=wrap;connectable=0;strokeColor=inherit;overflow=hidden;fillColor=none;top=0;left=0;bottom=0;right=0;pointerEvents=1;fontSize=16;align=center;verticalAlign=middle;fontFamily=Times New Roman;fontColor=default;startSize=0;" vertex="1" parent="X-1EoEnKetWkJ9hzd2uH-538">
          <mxGeometry height="25" as="geometry">
            <mxRectangle height="25" as="alternateBounds" />
          </mxGeometry>
        </mxCell>
        <mxCell id="X-1EoEnKetWkJ9hzd2uH-545" style="shape=partialRectangle;html=1;whiteSpace=wrap;connectable=0;strokeColor=inherit;overflow=hidden;fillColor=none;top=0;left=0;bottom=0;right=0;pointerEvents=1;fontSize=16;align=center;verticalAlign=middle;fontFamily=Times New Roman;fontColor=default;startSize=0;" vertex="1" parent="X-1EoEnKetWkJ9hzd2uH-538">
          <mxGeometry height="25" as="geometry">
            <mxRectangle height="25" as="alternateBounds" />
          </mxGeometry>
        </mxCell>
        <mxCell id="X-1EoEnKetWkJ9hzd2uH-546" value="" style="shape=partialRectangle;html=1;whiteSpace=wrap;connectable=0;strokeColor=inherit;overflow=hidden;fillColor=none;top=0;left=0;bottom=0;right=0;pointerEvents=1;fontSize=16;align=center;verticalAlign=middle;fontFamily=Times New Roman;fontColor=default;startSize=0;" vertex="1" parent="X-1EoEnKetWkJ9hzd2uH-538">
          <mxGeometry height="25" as="geometry">
            <mxRectangle height="25" as="alternateBounds" />
          </mxGeometry>
        </mxCell>
        <mxCell id="X-1EoEnKetWkJ9hzd2uH-547" value="1" style="shape=partialRectangle;html=1;whiteSpace=wrap;connectable=0;strokeColor=inherit;overflow=hidden;fillColor=none;top=0;left=0;bottom=0;right=0;pointerEvents=1;fontSize=12;align=center;verticalAlign=middle;fontFamily=Times New Roman;fontColor=default;startSize=0;" vertex="1" parent="X-1EoEnKetWkJ9hzd2uH-538">
          <mxGeometry width="23" height="25" as="geometry">
            <mxRectangle width="23" height="25" as="alternateBounds" />
          </mxGeometry>
        </mxCell>
        <mxCell id="X-1EoEnKetWkJ9hzd2uH-548" style="shape=tableRow;horizontal=0;startSize=0;swimlaneHead=0;swimlaneBody=0;strokeColor=inherit;top=0;left=0;bottom=0;right=0;collapsible=0;dropTarget=0;fillColor=none;points=[[0,0.5],[1,0.5]];portConstraint=eastwest;fontSize=16;align=center;verticalAlign=middle;fontFamily=Times New Roman;fontColor=default;" vertex="1" parent="X-1EoEnKetWkJ9hzd2uH-537">
          <mxGeometry y="25" width="22.5" height="25" as="geometry" />
        </mxCell>
        <mxCell id="X-1EoEnKetWkJ9hzd2uH-549" style="shape=partialRectangle;html=1;whiteSpace=wrap;connectable=0;strokeColor=inherit;overflow=hidden;fillColor=none;top=0;left=0;bottom=0;right=0;pointerEvents=1;fontSize=16;align=center;verticalAlign=middle;fontFamily=Times New Roman;fontColor=default;startSize=0;" vertex="1" parent="X-1EoEnKetWkJ9hzd2uH-548">
          <mxGeometry height="25" as="geometry">
            <mxRectangle height="25" as="alternateBounds" />
          </mxGeometry>
        </mxCell>
        <mxCell id="X-1EoEnKetWkJ9hzd2uH-550" style="shape=partialRectangle;html=1;whiteSpace=wrap;connectable=0;strokeColor=inherit;overflow=hidden;fillColor=none;top=0;left=0;bottom=0;right=0;pointerEvents=1;fontSize=16;align=center;verticalAlign=middle;fontFamily=Times New Roman;fontColor=default;startSize=0;" vertex="1" parent="X-1EoEnKetWkJ9hzd2uH-548">
          <mxGeometry height="25" as="geometry">
            <mxRectangle height="25" as="alternateBounds" />
          </mxGeometry>
        </mxCell>
        <mxCell id="X-1EoEnKetWkJ9hzd2uH-551" style="shape=partialRectangle;html=1;whiteSpace=wrap;connectable=0;strokeColor=inherit;overflow=hidden;fillColor=none;top=0;left=0;bottom=0;right=0;pointerEvents=1;fontSize=16;align=center;verticalAlign=middle;fontFamily=Times New Roman;fontColor=default;startSize=0;" vertex="1" parent="X-1EoEnKetWkJ9hzd2uH-548">
          <mxGeometry height="25" as="geometry">
            <mxRectangle height="25" as="alternateBounds" />
          </mxGeometry>
        </mxCell>
        <mxCell id="X-1EoEnKetWkJ9hzd2uH-552" style="shape=partialRectangle;html=1;whiteSpace=wrap;connectable=0;strokeColor=inherit;overflow=hidden;fillColor=none;top=0;left=0;bottom=0;right=0;pointerEvents=1;fontSize=16;align=center;verticalAlign=middle;fontFamily=Times New Roman;fontColor=default;startSize=0;" vertex="1" parent="X-1EoEnKetWkJ9hzd2uH-548">
          <mxGeometry height="25" as="geometry">
            <mxRectangle height="25" as="alternateBounds" />
          </mxGeometry>
        </mxCell>
        <mxCell id="X-1EoEnKetWkJ9hzd2uH-553" style="shape=partialRectangle;html=1;whiteSpace=wrap;connectable=0;strokeColor=inherit;overflow=hidden;fillColor=none;top=0;left=0;bottom=0;right=0;pointerEvents=1;fontSize=16;align=center;verticalAlign=middle;fontFamily=Times New Roman;fontColor=default;startSize=0;" vertex="1" parent="X-1EoEnKetWkJ9hzd2uH-548">
          <mxGeometry height="25" as="geometry">
            <mxRectangle height="25" as="alternateBounds" />
          </mxGeometry>
        </mxCell>
        <mxCell id="X-1EoEnKetWkJ9hzd2uH-554" style="shape=partialRectangle;html=1;whiteSpace=wrap;connectable=0;strokeColor=inherit;overflow=hidden;fillColor=none;top=0;left=0;bottom=0;right=0;pointerEvents=1;fontSize=16;align=center;verticalAlign=middle;fontFamily=Times New Roman;fontColor=default;startSize=0;" vertex="1" parent="X-1EoEnKetWkJ9hzd2uH-548">
          <mxGeometry height="25" as="geometry">
            <mxRectangle height="25" as="alternateBounds" />
          </mxGeometry>
        </mxCell>
        <mxCell id="X-1EoEnKetWkJ9hzd2uH-555" style="shape=partialRectangle;html=1;whiteSpace=wrap;connectable=0;strokeColor=inherit;overflow=hidden;fillColor=none;top=0;left=0;bottom=0;right=0;pointerEvents=1;fontSize=16;align=center;verticalAlign=middle;fontFamily=Times New Roman;fontColor=default;startSize=0;" vertex="1" parent="X-1EoEnKetWkJ9hzd2uH-548">
          <mxGeometry height="25" as="geometry">
            <mxRectangle height="25" as="alternateBounds" />
          </mxGeometry>
        </mxCell>
        <mxCell id="X-1EoEnKetWkJ9hzd2uH-556" style="shape=partialRectangle;html=1;whiteSpace=wrap;connectable=0;strokeColor=inherit;overflow=hidden;fillColor=none;top=0;left=0;bottom=0;right=0;pointerEvents=1;fontSize=16;align=center;verticalAlign=middle;fontFamily=Times New Roman;fontColor=default;startSize=0;" vertex="1" parent="X-1EoEnKetWkJ9hzd2uH-548">
          <mxGeometry height="25" as="geometry">
            <mxRectangle height="25" as="alternateBounds" />
          </mxGeometry>
        </mxCell>
        <mxCell id="X-1EoEnKetWkJ9hzd2uH-557" value="1" style="shape=partialRectangle;html=1;whiteSpace=wrap;connectable=0;strokeColor=inherit;overflow=hidden;fillColor=none;top=0;left=0;bottom=0;right=0;pointerEvents=1;fontSize=12;align=center;verticalAlign=middle;fontFamily=Times New Roman;fontColor=default;startSize=0;" vertex="1" parent="X-1EoEnKetWkJ9hzd2uH-548">
          <mxGeometry width="23" height="25" as="geometry">
            <mxRectangle width="23" height="25" as="alternateBounds" />
          </mxGeometry>
        </mxCell>
        <mxCell id="X-1EoEnKetWkJ9hzd2uH-558" value="TAG" style="text;html=1;align=center;verticalAlign=middle;resizable=0;points=[];autosize=1;strokeColor=none;fillColor=none;fontSize=12;fontFamily=Times New Roman;fontColor=default;" vertex="1" parent="1">
          <mxGeometry x="578.75" y="510" width="43" height="27" as="geometry" />
        </mxCell>
        <mxCell id="X-1EoEnKetWkJ9hzd2uH-559" value="" style="endArrow=classic;html=1;rounded=0;fontFamily=Times New Roman;fontSize=16;fontColor=default;startSize=0;exitX=1;exitY=0.5;exitDx=0;exitDy=0;entryX=-0.003;entryY=0.482;entryDx=0;entryDy=0;entryPerimeter=0;" edge="1" parent="1" source="X-1EoEnKetWkJ9hzd2uH-576" target="X-1EoEnKetWkJ9hzd2uH-548">
          <mxGeometry width="50" height="50" relative="1" as="geometry">
            <mxPoint x="556.5" y="557" as="sourcePoint" />
            <mxPoint x="576.5" y="552" as="targetPoint" />
          </mxGeometry>
        </mxCell>
        <mxCell id="X-1EoEnKetWkJ9hzd2uH-560" value="" style="endArrow=classic;html=1;rounded=0;fontFamily=Times New Roman;fontSize=16;fontColor=default;startSize=0;entryX=0.105;entryY=0.919;entryDx=0;entryDy=0;entryPerimeter=0;" edge="1" parent="1">
          <mxGeometry width="50" height="50" relative="1" as="geometry">
            <mxPoint x="451.5" y="615" as="sourcePoint" />
            <mxPoint x="451.8625" y="586.004" as="targetPoint" />
          </mxGeometry>
        </mxCell>
        <mxCell id="X-1EoEnKetWkJ9hzd2uH-561" value="" style="endArrow=classic;html=1;rounded=0;fontFamily=Times New Roman;fontSize=16;fontColor=default;startSize=0;entryX=0.155;entryY=0.997;entryDx=0;entryDy=0;entryPerimeter=0;" edge="1" parent="1">
          <mxGeometry width="50" height="50" relative="1" as="geometry">
            <mxPoint x="476.5" y="615" as="sourcePoint" />
            <mxPoint x="476.49999999999994" y="586" as="targetPoint" />
            <Array as="points">
              <mxPoint x="476.5" y="586" />
            </Array>
          </mxGeometry>
        </mxCell>
        <mxCell id="X-1EoEnKetWkJ9hzd2uH-562" value="" style="endArrow=classic;html=1;rounded=0;fontFamily=Times New Roman;fontSize=16;fontColor=default;startSize=0;entryX=0.155;entryY=0.997;entryDx=0;entryDy=0;entryPerimeter=0;" edge="1" parent="1">
          <mxGeometry width="50" height="50" relative="1" as="geometry">
            <mxPoint x="501.5" y="615" as="sourcePoint" />
            <mxPoint x="501.49999999999994" y="586" as="targetPoint" />
            <Array as="points">
              <mxPoint x="501.5" y="586" />
            </Array>
          </mxGeometry>
        </mxCell>
        <mxCell id="X-1EoEnKetWkJ9hzd2uH-563" value="" style="shape=table;startSize=0;container=1;collapsible=0;childLayout=tableLayout;fontSize=13;strokeColor=default;align=center;verticalAlign=middle;fontFamily=Times New Roman;fontColor=default;fillColor=default;" vertex="1" parent="1">
          <mxGeometry x="439" y="512" width="122.5" height="74.5" as="geometry" />
        </mxCell>
        <mxCell id="X-1EoEnKetWkJ9hzd2uH-564" value="" style="shape=tableRow;horizontal=0;startSize=0;swimlaneHead=0;swimlaneBody=0;strokeColor=inherit;top=0;left=0;bottom=0;right=0;collapsible=0;dropTarget=0;fillColor=none;points=[[0,0.5],[1,0.5]];portConstraint=eastwest;fontSize=16;align=center;verticalAlign=middle;fontFamily=Times New Roman;fontColor=default;" vertex="1" parent="X-1EoEnKetWkJ9hzd2uH-563">
          <mxGeometry width="122.5" height="24" as="geometry" />
        </mxCell>
        <mxCell id="X-1EoEnKetWkJ9hzd2uH-565" value="Ci" style="shape=partialRectangle;html=1;whiteSpace=wrap;connectable=0;strokeColor=inherit;overflow=hidden;fillColor=none;top=0;left=0;bottom=0;right=0;pointerEvents=1;fontSize=12;align=center;verticalAlign=middle;fontFamily=Times New Roman;fontColor=default;startSize=0;" vertex="1" parent="X-1EoEnKetWkJ9hzd2uH-564">
          <mxGeometry width="25" height="24" as="geometry">
            <mxRectangle width="25" height="24" as="alternateBounds" />
          </mxGeometry>
        </mxCell>
        <mxCell id="X-1EoEnKetWkJ9hzd2uH-566" value="R1" style="shape=partialRectangle;html=1;whiteSpace=wrap;connectable=0;strokeColor=inherit;overflow=hidden;fillColor=none;top=0;left=0;bottom=0;right=0;pointerEvents=1;fontSize=12;align=center;verticalAlign=middle;fontFamily=Times New Roman;fontColor=default;startSize=0;" vertex="1" parent="X-1EoEnKetWkJ9hzd2uH-564">
          <mxGeometry x="25" width="24" height="24" as="geometry">
            <mxRectangle width="24" height="24" as="alternateBounds" />
          </mxGeometry>
        </mxCell>
        <mxCell id="X-1EoEnKetWkJ9hzd2uH-567" value="R2" style="shape=partialRectangle;html=1;whiteSpace=wrap;connectable=0;strokeColor=inherit;overflow=hidden;fillColor=none;top=0;left=0;bottom=0;right=0;pointerEvents=1;fontSize=12;align=center;verticalAlign=middle;fontFamily=Times New Roman;fontColor=default;startSize=0;" vertex="1" parent="X-1EoEnKetWkJ9hzd2uH-564">
          <mxGeometry x="49" width="25" height="24" as="geometry">
            <mxRectangle width="25" height="24" as="alternateBounds" />
          </mxGeometry>
        </mxCell>
        <mxCell id="X-1EoEnKetWkJ9hzd2uH-568" value="R3" style="shape=partialRectangle;html=1;whiteSpace=wrap;connectable=0;strokeColor=inherit;overflow=hidden;fillColor=none;top=0;left=0;bottom=0;right=0;pointerEvents=1;fontSize=12;align=center;verticalAlign=middle;fontFamily=Times New Roman;fontColor=default;startSize=0;" vertex="1" parent="X-1EoEnKetWkJ9hzd2uH-564">
          <mxGeometry x="74" width="24" height="24" as="geometry">
            <mxRectangle width="24" height="24" as="alternateBounds" />
          </mxGeometry>
        </mxCell>
        <mxCell id="X-1EoEnKetWkJ9hzd2uH-569" value="Co" style="shape=partialRectangle;html=1;whiteSpace=wrap;connectable=0;strokeColor=inherit;overflow=hidden;fillColor=none;top=0;left=0;bottom=0;right=0;pointerEvents=1;fontSize=12;align=center;verticalAlign=middle;fontFamily=Times New Roman;fontColor=default;startSize=0;" vertex="1" parent="X-1EoEnKetWkJ9hzd2uH-564">
          <mxGeometry x="98" width="25" height="24" as="geometry">
            <mxRectangle width="25" height="24" as="alternateBounds" />
          </mxGeometry>
        </mxCell>
        <mxCell id="X-1EoEnKetWkJ9hzd2uH-570" value="" style="shape=tableRow;horizontal=0;startSize=0;swimlaneHead=0;swimlaneBody=0;strokeColor=inherit;top=0;left=0;bottom=0;right=0;collapsible=0;dropTarget=0;fillColor=none;points=[[0,0.5],[1,0.5]];portConstraint=eastwest;fontSize=16;align=center;verticalAlign=middle;fontFamily=Times New Roman;fontColor=default;" vertex="1" parent="X-1EoEnKetWkJ9hzd2uH-563">
          <mxGeometry y="24" width="122.5" height="25" as="geometry" />
        </mxCell>
        <mxCell id="X-1EoEnKetWkJ9hzd2uH-571" value="X" style="shape=partialRectangle;html=1;whiteSpace=wrap;connectable=0;strokeColor=inherit;overflow=hidden;fillColor=none;top=0;left=0;bottom=0;right=0;pointerEvents=1;fontSize=12;align=center;verticalAlign=middle;fontFamily=Times New Roman;fontColor=default;startSize=0;" vertex="1" parent="X-1EoEnKetWkJ9hzd2uH-570">
          <mxGeometry width="25" height="25" as="geometry">
            <mxRectangle width="25" height="25" as="alternateBounds" />
          </mxGeometry>
        </mxCell>
        <mxCell id="X-1EoEnKetWkJ9hzd2uH-572" value="0" style="shape=partialRectangle;html=1;whiteSpace=wrap;connectable=0;strokeColor=inherit;overflow=hidden;fillColor=none;top=0;left=0;bottom=0;right=0;pointerEvents=1;fontSize=12;align=center;verticalAlign=middle;fontFamily=Times New Roman;fontColor=default;startSize=0;" vertex="1" parent="X-1EoEnKetWkJ9hzd2uH-570">
          <mxGeometry x="25" width="24" height="25" as="geometry">
            <mxRectangle width="24" height="25" as="alternateBounds" />
          </mxGeometry>
        </mxCell>
        <mxCell id="X-1EoEnKetWkJ9hzd2uH-573" value="1" style="shape=partialRectangle;html=1;whiteSpace=wrap;connectable=0;strokeColor=inherit;overflow=hidden;fillColor=none;top=0;left=0;bottom=0;right=0;pointerEvents=1;fontSize=12;align=center;verticalAlign=middle;fontFamily=Times New Roman;fontColor=default;startSize=0;" vertex="1" parent="X-1EoEnKetWkJ9hzd2uH-570">
          <mxGeometry x="49" width="25" height="25" as="geometry">
            <mxRectangle width="25" height="25" as="alternateBounds" />
          </mxGeometry>
        </mxCell>
        <mxCell id="X-1EoEnKetWkJ9hzd2uH-574" value="&lt;b style=&quot;font-size: 12px;&quot;&gt;&lt;font color=&quot;#ff0000&quot; style=&quot;font-size: 12px;&quot;&gt;0&lt;/font&gt;&lt;/b&gt;" style="shape=partialRectangle;html=1;whiteSpace=wrap;connectable=0;strokeColor=inherit;overflow=hidden;fillColor=none;top=0;left=0;bottom=0;right=0;pointerEvents=1;fontSize=12;align=center;verticalAlign=middle;fontFamily=Times New Roman;fontColor=default;startSize=0;" vertex="1" parent="X-1EoEnKetWkJ9hzd2uH-570">
          <mxGeometry x="74" width="24" height="25" as="geometry">
            <mxRectangle width="24" height="25" as="alternateBounds" />
          </mxGeometry>
        </mxCell>
        <mxCell id="X-1EoEnKetWkJ9hzd2uH-575" value="&lt;b&gt;&lt;font color=&quot;#ff0000&quot;&gt;0&lt;/font&gt;&lt;/b&gt;" style="shape=partialRectangle;html=1;whiteSpace=wrap;connectable=0;strokeColor=inherit;overflow=hidden;fillColor=none;top=0;left=0;bottom=0;right=0;pointerEvents=1;fontSize=12;align=center;verticalAlign=middle;fontFamily=Times New Roman;fontColor=default;startSize=0;" vertex="1" parent="X-1EoEnKetWkJ9hzd2uH-570">
          <mxGeometry x="98" width="25" height="25" as="geometry">
            <mxRectangle width="25" height="25" as="alternateBounds" />
          </mxGeometry>
        </mxCell>
        <mxCell id="X-1EoEnKetWkJ9hzd2uH-576" value="" style="shape=tableRow;horizontal=0;startSize=0;swimlaneHead=0;swimlaneBody=0;strokeColor=inherit;top=0;left=0;bottom=0;right=0;collapsible=0;dropTarget=0;fillColor=none;points=[[0,0.5],[1,0.5]];portConstraint=eastwest;fontSize=16;align=center;verticalAlign=middle;fontFamily=Times New Roman;fontColor=default;" vertex="1" parent="X-1EoEnKetWkJ9hzd2uH-563">
          <mxGeometry y="49" width="122.5" height="26" as="geometry" />
        </mxCell>
        <mxCell id="X-1EoEnKetWkJ9hzd2uH-577" value="X" style="shape=partialRectangle;html=1;whiteSpace=wrap;connectable=0;strokeColor=inherit;overflow=hidden;fillColor=none;top=0;left=0;bottom=0;right=0;pointerEvents=1;fontSize=12;align=center;verticalAlign=middle;fontFamily=Times New Roman;fontColor=default;startSize=0;" vertex="1" parent="X-1EoEnKetWkJ9hzd2uH-576">
          <mxGeometry width="25" height="26" as="geometry">
            <mxRectangle width="25" height="26" as="alternateBounds" />
          </mxGeometry>
        </mxCell>
        <mxCell id="X-1EoEnKetWkJ9hzd2uH-578" value="0" style="shape=partialRectangle;html=1;whiteSpace=wrap;connectable=0;strokeColor=inherit;overflow=hidden;fillColor=none;top=0;left=0;bottom=0;right=0;pointerEvents=1;fontSize=12;align=center;verticalAlign=middle;fontFamily=Times New Roman;fontColor=default;startSize=0;" vertex="1" parent="X-1EoEnKetWkJ9hzd2uH-576">
          <mxGeometry x="25" width="24" height="26" as="geometry">
            <mxRectangle width="24" height="26" as="alternateBounds" />
          </mxGeometry>
        </mxCell>
        <mxCell id="X-1EoEnKetWkJ9hzd2uH-579" value="1" style="shape=partialRectangle;html=1;whiteSpace=wrap;connectable=0;strokeColor=inherit;overflow=hidden;fillColor=none;top=0;left=0;bottom=0;right=0;pointerEvents=1;fontSize=12;align=center;verticalAlign=middle;fontFamily=Times New Roman;fontColor=default;startSize=0;" vertex="1" parent="X-1EoEnKetWkJ9hzd2uH-576">
          <mxGeometry x="49" width="25" height="26" as="geometry">
            <mxRectangle width="25" height="26" as="alternateBounds" />
          </mxGeometry>
        </mxCell>
        <mxCell id="X-1EoEnKetWkJ9hzd2uH-580" value="&lt;font color=&quot;#ff0000&quot; style=&quot;font-size: 12px;&quot;&gt;&lt;b style=&quot;font-size: 12px;&quot;&gt;0&lt;/b&gt;&lt;/font&gt;" style="shape=partialRectangle;html=1;whiteSpace=wrap;connectable=0;strokeColor=inherit;overflow=hidden;fillColor=none;top=0;left=0;bottom=0;right=0;pointerEvents=1;fontSize=12;align=center;verticalAlign=middle;fontFamily=Times New Roman;fontColor=default;startSize=0;" vertex="1" parent="X-1EoEnKetWkJ9hzd2uH-576">
          <mxGeometry x="74" width="24" height="26" as="geometry">
            <mxRectangle width="24" height="26" as="alternateBounds" />
          </mxGeometry>
        </mxCell>
        <mxCell id="X-1EoEnKetWkJ9hzd2uH-581" value="&lt;font color=&quot;#ff0000&quot;&gt;&lt;b&gt;0&lt;/b&gt;&lt;/font&gt;" style="shape=partialRectangle;html=1;whiteSpace=wrap;connectable=0;strokeColor=inherit;overflow=hidden;fillColor=none;top=0;left=0;bottom=0;right=0;pointerEvents=1;fontSize=12;align=center;verticalAlign=middle;fontFamily=Times New Roman;fontColor=default;startSize=0;" vertex="1" parent="X-1EoEnKetWkJ9hzd2uH-576">
          <mxGeometry x="98" width="25" height="26" as="geometry">
            <mxRectangle width="25" height="26" as="alternateBounds" />
          </mxGeometry>
        </mxCell>
        <mxCell id="X-1EoEnKetWkJ9hzd2uH-582" value="" style="endArrow=classic;html=1;rounded=0;fontFamily=Times New Roman;fontSize=16;fontColor=default;startSize=0;exitX=1;exitY=0.5;exitDx=0;exitDy=0;entryX=-0.01;entryY=0.46;entryDx=0;entryDy=0;entryPerimeter=0;" edge="1" parent="1" source="X-1EoEnKetWkJ9hzd2uH-570" target="X-1EoEnKetWkJ9hzd2uH-538">
          <mxGeometry width="50" height="50" relative="1" as="geometry">
            <mxPoint x="566.5" y="579" as="sourcePoint" />
            <mxPoint x="586.5" y="547" as="targetPoint" />
          </mxGeometry>
        </mxCell>
        <mxCell id="X-1EoEnKetWkJ9hzd2uH-583" value="" style="endArrow=classic;html=1;rounded=0;fontFamily=Times New Roman;fontSize=16;fontColor=default;startSize=0;entryX=0.155;entryY=0.997;entryDx=0;entryDy=0;entryPerimeter=0;" edge="1" parent="1">
          <mxGeometry width="50" height="50" relative="1" as="geometry">
            <mxPoint x="526.5" y="615" as="sourcePoint" />
            <mxPoint x="526.5" y="586" as="targetPoint" />
            <Array as="points">
              <mxPoint x="526.5" y="586" />
            </Array>
          </mxGeometry>
        </mxCell>
        <mxCell id="X-1EoEnKetWkJ9hzd2uH-584" value="" style="endArrow=classic;html=1;rounded=0;fontFamily=Times New Roman;fontSize=16;fontColor=default;startSize=0;entryX=0.155;entryY=0.997;entryDx=0;entryDy=0;entryPerimeter=0;" edge="1" parent="1">
          <mxGeometry width="50" height="50" relative="1" as="geometry">
            <mxPoint x="550.5" y="615" as="sourcePoint" />
            <mxPoint x="550.5" y="586" as="targetPoint" />
            <Array as="points">
              <mxPoint x="550.5" y="586" />
            </Array>
          </mxGeometry>
        </mxCell>
        <mxCell id="X-1EoEnKetWkJ9hzd2uH-585" value="" style="shape=table;startSize=0;container=1;collapsible=0;childLayout=tableLayout;fontSize=12;strokeColor=default;align=center;verticalAlign=middle;fontFamily=Times New Roman;fontColor=default;fillColor=default;" vertex="1" parent="1">
          <mxGeometry x="57.25" y="818.5" width="123.5" height="26" as="geometry" />
        </mxCell>
        <mxCell id="X-1EoEnKetWkJ9hzd2uH-586" value="" style="shape=tableRow;horizontal=0;startSize=0;swimlaneHead=0;swimlaneBody=0;strokeColor=inherit;top=0;left=0;bottom=0;right=0;collapsible=0;dropTarget=0;fillColor=none;points=[[0,0.5],[1,0.5]];portConstraint=eastwest;fontSize=16;align=center;verticalAlign=middle;fontFamily=Times New Roman;fontColor=default;" vertex="1" parent="X-1EoEnKetWkJ9hzd2uH-585">
          <mxGeometry width="123.5" height="26" as="geometry" />
        </mxCell>
        <mxCell id="X-1EoEnKetWkJ9hzd2uH-587" value="&lt;b style=&quot;font-size: 12px;&quot;&gt;&lt;font color=&quot;#ff0000&quot; style=&quot;font-size: 12px;&quot;&gt;0&lt;/font&gt;&lt;/b&gt;" style="shape=partialRectangle;html=1;whiteSpace=wrap;connectable=0;strokeColor=inherit;overflow=hidden;fillColor=none;top=0;left=0;bottom=0;right=0;pointerEvents=1;fontSize=12;align=center;verticalAlign=middle;fontFamily=Times New Roman;fontColor=default;startSize=0;" vertex="1" parent="X-1EoEnKetWkJ9hzd2uH-586">
          <mxGeometry width="25" height="26" as="geometry">
            <mxRectangle width="25" height="26" as="alternateBounds" />
          </mxGeometry>
        </mxCell>
        <mxCell id="X-1EoEnKetWkJ9hzd2uH-588" value="&lt;font color=&quot;#ff0000&quot; style=&quot;font-size: 12px;&quot;&gt;&lt;b style=&quot;font-size: 12px;&quot;&gt;1&lt;/b&gt;&lt;/font&gt;" style="shape=partialRectangle;html=1;whiteSpace=wrap;connectable=0;strokeColor=inherit;overflow=hidden;fillColor=none;top=0;left=0;bottom=0;right=0;pointerEvents=1;fontSize=12;align=center;verticalAlign=middle;fontFamily=Times New Roman;fontColor=default;startSize=0;" vertex="1" parent="X-1EoEnKetWkJ9hzd2uH-586">
          <mxGeometry x="25" width="24" height="26" as="geometry">
            <mxRectangle width="24" height="26" as="alternateBounds" />
          </mxGeometry>
        </mxCell>
        <mxCell id="X-1EoEnKetWkJ9hzd2uH-589" value="&lt;b style=&quot;font-size: 12px;&quot;&gt;&lt;font color=&quot;#ff0000&quot; style=&quot;font-size: 12px;&quot;&gt;0&lt;/font&gt;&lt;/b&gt;" style="shape=partialRectangle;html=1;whiteSpace=wrap;connectable=0;strokeColor=inherit;overflow=hidden;fillColor=none;top=0;left=0;bottom=0;right=0;pointerEvents=1;fontSize=12;align=center;verticalAlign=middle;fontFamily=Times New Roman;fontColor=default;startSize=0;" vertex="1" parent="X-1EoEnKetWkJ9hzd2uH-586">
          <mxGeometry x="49" width="25" height="26" as="geometry">
            <mxRectangle width="25" height="26" as="alternateBounds" />
          </mxGeometry>
        </mxCell>
        <mxCell id="X-1EoEnKetWkJ9hzd2uH-590" value="X" style="shape=partialRectangle;html=1;whiteSpace=wrap;connectable=0;strokeColor=inherit;overflow=hidden;fillColor=none;top=0;left=0;bottom=0;right=0;pointerEvents=1;fontSize=12;align=center;verticalAlign=middle;fontFamily=Times New Roman;fontColor=default;startSize=0;" vertex="1" parent="X-1EoEnKetWkJ9hzd2uH-586">
          <mxGeometry x="74" width="25" height="26" as="geometry">
            <mxRectangle width="25" height="26" as="alternateBounds" />
          </mxGeometry>
        </mxCell>
        <mxCell id="X-1EoEnKetWkJ9hzd2uH-591" value="X" style="shape=partialRectangle;html=1;whiteSpace=wrap;connectable=0;strokeColor=inherit;overflow=hidden;fillColor=none;top=0;left=0;bottom=0;right=0;pointerEvents=1;fontSize=12;align=center;verticalAlign=middle;fontFamily=Times New Roman;fontColor=default;startSize=0;" vertex="1" parent="X-1EoEnKetWkJ9hzd2uH-586">
          <mxGeometry x="99" width="25" height="26" as="geometry">
            <mxRectangle width="25" height="26" as="alternateBounds" />
          </mxGeometry>
        </mxCell>
        <mxCell id="X-1EoEnKetWkJ9hzd2uH-592" value="SEARCH" style="text;html=1;align=center;verticalAlign=middle;resizable=0;points=[];autosize=1;strokeColor=none;fillColor=none;fontSize=12;fontFamily=Times New Roman;fontColor=default;" vertex="1" parent="1">
          <mxGeometry x="185.5" y="818" width="66" height="27" as="geometry" />
        </mxCell>
        <mxCell id="X-1EoEnKetWkJ9hzd2uH-593" value="" style="shape=table;startSize=0;container=1;collapsible=0;childLayout=tableLayout;fontSize=12;strokeColor=default;align=center;verticalAlign=middle;fontFamily=Times New Roman;fontColor=default;fillColor=default;fontStyle=1" vertex="1" parent="1">
          <mxGeometry x="207.25" y="740.5" width="22.5" height="50" as="geometry" />
        </mxCell>
        <mxCell id="X-1EoEnKetWkJ9hzd2uH-594" value="" style="shape=tableRow;horizontal=0;startSize=0;swimlaneHead=0;swimlaneBody=0;strokeColor=inherit;top=0;left=0;bottom=0;right=0;collapsible=0;dropTarget=0;fillColor=none;points=[[0,0.5],[1,0.5]];portConstraint=eastwest;fontSize=16;align=center;verticalAlign=middle;fontFamily=Times New Roman;fontColor=default;" vertex="1" parent="X-1EoEnKetWkJ9hzd2uH-593">
          <mxGeometry width="22.5" height="25" as="geometry" />
        </mxCell>
        <mxCell id="X-1EoEnKetWkJ9hzd2uH-595" style="shape=partialRectangle;html=1;whiteSpace=wrap;connectable=0;strokeColor=inherit;overflow=hidden;fillColor=none;top=0;left=0;bottom=0;right=0;pointerEvents=1;fontSize=16;align=center;verticalAlign=middle;fontFamily=Times New Roman;fontColor=default;startSize=0;" vertex="1" parent="X-1EoEnKetWkJ9hzd2uH-594">
          <mxGeometry height="25" as="geometry">
            <mxRectangle height="25" as="alternateBounds" />
          </mxGeometry>
        </mxCell>
        <mxCell id="X-1EoEnKetWkJ9hzd2uH-596" style="shape=partialRectangle;html=1;whiteSpace=wrap;connectable=0;strokeColor=inherit;overflow=hidden;fillColor=none;top=0;left=0;bottom=0;right=0;pointerEvents=1;fontSize=16;align=center;verticalAlign=middle;fontFamily=Times New Roman;fontColor=default;startSize=0;" vertex="1" parent="X-1EoEnKetWkJ9hzd2uH-594">
          <mxGeometry height="25" as="geometry">
            <mxRectangle height="25" as="alternateBounds" />
          </mxGeometry>
        </mxCell>
        <mxCell id="X-1EoEnKetWkJ9hzd2uH-597" style="shape=partialRectangle;html=1;whiteSpace=wrap;connectable=0;strokeColor=inherit;overflow=hidden;fillColor=none;top=0;left=0;bottom=0;right=0;pointerEvents=1;fontSize=16;align=center;verticalAlign=middle;fontFamily=Times New Roman;fontColor=default;startSize=0;" vertex="1" parent="X-1EoEnKetWkJ9hzd2uH-594">
          <mxGeometry height="25" as="geometry">
            <mxRectangle height="25" as="alternateBounds" />
          </mxGeometry>
        </mxCell>
        <mxCell id="X-1EoEnKetWkJ9hzd2uH-598" style="shape=partialRectangle;html=1;whiteSpace=wrap;connectable=0;strokeColor=inherit;overflow=hidden;fillColor=none;top=0;left=0;bottom=0;right=0;pointerEvents=1;fontSize=16;align=center;verticalAlign=middle;fontFamily=Times New Roman;fontColor=default;startSize=0;" vertex="1" parent="X-1EoEnKetWkJ9hzd2uH-594">
          <mxGeometry height="25" as="geometry">
            <mxRectangle height="25" as="alternateBounds" />
          </mxGeometry>
        </mxCell>
        <mxCell id="X-1EoEnKetWkJ9hzd2uH-599" style="shape=partialRectangle;html=1;whiteSpace=wrap;connectable=0;strokeColor=inherit;overflow=hidden;fillColor=none;top=0;left=0;bottom=0;right=0;pointerEvents=1;fontSize=16;align=center;verticalAlign=middle;fontFamily=Times New Roman;fontColor=default;startSize=0;" vertex="1" parent="X-1EoEnKetWkJ9hzd2uH-594">
          <mxGeometry height="25" as="geometry">
            <mxRectangle height="25" as="alternateBounds" />
          </mxGeometry>
        </mxCell>
        <mxCell id="X-1EoEnKetWkJ9hzd2uH-600" style="shape=partialRectangle;html=1;whiteSpace=wrap;connectable=0;strokeColor=inherit;overflow=hidden;fillColor=none;top=0;left=0;bottom=0;right=0;pointerEvents=1;fontSize=16;align=center;verticalAlign=middle;fontFamily=Times New Roman;fontColor=default;startSize=0;" vertex="1" parent="X-1EoEnKetWkJ9hzd2uH-594">
          <mxGeometry height="25" as="geometry">
            <mxRectangle height="25" as="alternateBounds" />
          </mxGeometry>
        </mxCell>
        <mxCell id="X-1EoEnKetWkJ9hzd2uH-601" style="shape=partialRectangle;html=1;whiteSpace=wrap;connectable=0;strokeColor=inherit;overflow=hidden;fillColor=none;top=0;left=0;bottom=0;right=0;pointerEvents=1;fontSize=16;align=center;verticalAlign=middle;fontFamily=Times New Roman;fontColor=default;startSize=0;" vertex="1" parent="X-1EoEnKetWkJ9hzd2uH-594">
          <mxGeometry height="25" as="geometry">
            <mxRectangle height="25" as="alternateBounds" />
          </mxGeometry>
        </mxCell>
        <mxCell id="X-1EoEnKetWkJ9hzd2uH-602" value="" style="shape=partialRectangle;html=1;whiteSpace=wrap;connectable=0;strokeColor=inherit;overflow=hidden;fillColor=none;top=0;left=0;bottom=0;right=0;pointerEvents=1;fontSize=16;align=center;verticalAlign=middle;fontFamily=Times New Roman;fontColor=default;startSize=0;" vertex="1" parent="X-1EoEnKetWkJ9hzd2uH-594">
          <mxGeometry height="25" as="geometry">
            <mxRectangle height="25" as="alternateBounds" />
          </mxGeometry>
        </mxCell>
        <mxCell id="X-1EoEnKetWkJ9hzd2uH-603" value="1" style="shape=partialRectangle;html=1;whiteSpace=wrap;connectable=0;strokeColor=inherit;overflow=hidden;fillColor=none;top=0;left=0;bottom=0;right=0;pointerEvents=1;fontSize=12;align=center;verticalAlign=middle;fontFamily=Times New Roman;fontColor=#FF0000;startSize=0;fontStyle=1" vertex="1" parent="X-1EoEnKetWkJ9hzd2uH-594">
          <mxGeometry width="23" height="25" as="geometry">
            <mxRectangle width="23" height="25" as="alternateBounds" />
          </mxGeometry>
        </mxCell>
        <mxCell id="X-1EoEnKetWkJ9hzd2uH-604" style="shape=tableRow;horizontal=0;startSize=0;swimlaneHead=0;swimlaneBody=0;strokeColor=inherit;top=0;left=0;bottom=0;right=0;collapsible=0;dropTarget=0;fillColor=none;points=[[0,0.5],[1,0.5]];portConstraint=eastwest;fontSize=16;align=center;verticalAlign=middle;fontFamily=Times New Roman;fontColor=default;" vertex="1" parent="X-1EoEnKetWkJ9hzd2uH-593">
          <mxGeometry y="25" width="22.5" height="25" as="geometry" />
        </mxCell>
        <mxCell id="X-1EoEnKetWkJ9hzd2uH-605" style="shape=partialRectangle;html=1;whiteSpace=wrap;connectable=0;strokeColor=inherit;overflow=hidden;fillColor=none;top=0;left=0;bottom=0;right=0;pointerEvents=1;fontSize=16;align=center;verticalAlign=middle;fontFamily=Times New Roman;fontColor=default;startSize=0;" vertex="1" parent="X-1EoEnKetWkJ9hzd2uH-604">
          <mxGeometry height="25" as="geometry">
            <mxRectangle height="25" as="alternateBounds" />
          </mxGeometry>
        </mxCell>
        <mxCell id="X-1EoEnKetWkJ9hzd2uH-606" style="shape=partialRectangle;html=1;whiteSpace=wrap;connectable=0;strokeColor=inherit;overflow=hidden;fillColor=none;top=0;left=0;bottom=0;right=0;pointerEvents=1;fontSize=16;align=center;verticalAlign=middle;fontFamily=Times New Roman;fontColor=default;startSize=0;" vertex="1" parent="X-1EoEnKetWkJ9hzd2uH-604">
          <mxGeometry height="25" as="geometry">
            <mxRectangle height="25" as="alternateBounds" />
          </mxGeometry>
        </mxCell>
        <mxCell id="X-1EoEnKetWkJ9hzd2uH-607" style="shape=partialRectangle;html=1;whiteSpace=wrap;connectable=0;strokeColor=inherit;overflow=hidden;fillColor=none;top=0;left=0;bottom=0;right=0;pointerEvents=1;fontSize=16;align=center;verticalAlign=middle;fontFamily=Times New Roman;fontColor=default;startSize=0;" vertex="1" parent="X-1EoEnKetWkJ9hzd2uH-604">
          <mxGeometry height="25" as="geometry">
            <mxRectangle height="25" as="alternateBounds" />
          </mxGeometry>
        </mxCell>
        <mxCell id="X-1EoEnKetWkJ9hzd2uH-608" style="shape=partialRectangle;html=1;whiteSpace=wrap;connectable=0;strokeColor=inherit;overflow=hidden;fillColor=none;top=0;left=0;bottom=0;right=0;pointerEvents=1;fontSize=16;align=center;verticalAlign=middle;fontFamily=Times New Roman;fontColor=default;startSize=0;" vertex="1" parent="X-1EoEnKetWkJ9hzd2uH-604">
          <mxGeometry height="25" as="geometry">
            <mxRectangle height="25" as="alternateBounds" />
          </mxGeometry>
        </mxCell>
        <mxCell id="X-1EoEnKetWkJ9hzd2uH-609" style="shape=partialRectangle;html=1;whiteSpace=wrap;connectable=0;strokeColor=inherit;overflow=hidden;fillColor=none;top=0;left=0;bottom=0;right=0;pointerEvents=1;fontSize=16;align=center;verticalAlign=middle;fontFamily=Times New Roman;fontColor=default;startSize=0;" vertex="1" parent="X-1EoEnKetWkJ9hzd2uH-604">
          <mxGeometry height="25" as="geometry">
            <mxRectangle height="25" as="alternateBounds" />
          </mxGeometry>
        </mxCell>
        <mxCell id="X-1EoEnKetWkJ9hzd2uH-610" style="shape=partialRectangle;html=1;whiteSpace=wrap;connectable=0;strokeColor=inherit;overflow=hidden;fillColor=none;top=0;left=0;bottom=0;right=0;pointerEvents=1;fontSize=16;align=center;verticalAlign=middle;fontFamily=Times New Roman;fontColor=default;startSize=0;" vertex="1" parent="X-1EoEnKetWkJ9hzd2uH-604">
          <mxGeometry height="25" as="geometry">
            <mxRectangle height="25" as="alternateBounds" />
          </mxGeometry>
        </mxCell>
        <mxCell id="X-1EoEnKetWkJ9hzd2uH-611" style="shape=partialRectangle;html=1;whiteSpace=wrap;connectable=0;strokeColor=inherit;overflow=hidden;fillColor=none;top=0;left=0;bottom=0;right=0;pointerEvents=1;fontSize=16;align=center;verticalAlign=middle;fontFamily=Times New Roman;fontColor=default;startSize=0;" vertex="1" parent="X-1EoEnKetWkJ9hzd2uH-604">
          <mxGeometry height="25" as="geometry">
            <mxRectangle height="25" as="alternateBounds" />
          </mxGeometry>
        </mxCell>
        <mxCell id="X-1EoEnKetWkJ9hzd2uH-612" style="shape=partialRectangle;html=1;whiteSpace=wrap;connectable=0;strokeColor=inherit;overflow=hidden;fillColor=none;top=0;left=0;bottom=0;right=0;pointerEvents=1;fontSize=16;align=center;verticalAlign=middle;fontFamily=Times New Roman;fontColor=default;startSize=0;" vertex="1" parent="X-1EoEnKetWkJ9hzd2uH-604">
          <mxGeometry height="25" as="geometry">
            <mxRectangle height="25" as="alternateBounds" />
          </mxGeometry>
        </mxCell>
        <mxCell id="X-1EoEnKetWkJ9hzd2uH-613" value="1" style="shape=partialRectangle;html=1;whiteSpace=wrap;connectable=0;strokeColor=inherit;overflow=hidden;fillColor=none;top=0;left=0;bottom=0;right=0;pointerEvents=1;fontSize=12;align=center;verticalAlign=middle;fontFamily=Times New Roman;fontColor=#FF0000;startSize=0;fontStyle=1" vertex="1" parent="X-1EoEnKetWkJ9hzd2uH-604">
          <mxGeometry width="23" height="25" as="geometry">
            <mxRectangle width="23" height="25" as="alternateBounds" />
          </mxGeometry>
        </mxCell>
        <mxCell id="X-1EoEnKetWkJ9hzd2uH-614" value="TAG" style="text;html=1;align=center;verticalAlign=middle;resizable=0;points=[];autosize=1;strokeColor=none;fillColor=none;fontSize=12;fontFamily=Times New Roman;fontColor=default;" vertex="1" parent="1">
          <mxGeometry x="197" y="713.5" width="43" height="27" as="geometry" />
        </mxCell>
        <mxCell id="X-1EoEnKetWkJ9hzd2uH-615" value="" style="endArrow=classic;html=1;rounded=0;fontFamily=Times New Roman;fontSize=16;fontColor=default;startSize=0;exitX=1.003;exitY=0.485;exitDx=0;exitDy=0;exitPerimeter=0;" edge="1" parent="1" source="X-1EoEnKetWkJ9hzd2uH-633">
          <mxGeometry width="50" height="50" relative="1" as="geometry">
            <mxPoint x="174.75" y="760.5" as="sourcePoint" />
            <mxPoint x="207" y="777" as="targetPoint" />
          </mxGeometry>
        </mxCell>
        <mxCell id="X-1EoEnKetWkJ9hzd2uH-616" value="" style="endArrow=classic;html=1;rounded=0;fontFamily=Times New Roman;fontSize=16;fontColor=default;startSize=0;entryX=0.105;entryY=0.919;entryDx=0;entryDy=0;entryPerimeter=0;" edge="1" parent="1">
          <mxGeometry width="50" height="50" relative="1" as="geometry">
            <mxPoint x="69.75" y="818.5" as="sourcePoint" />
            <mxPoint x="70.11250000000001" y="789.504" as="targetPoint" />
          </mxGeometry>
        </mxCell>
        <mxCell id="X-1EoEnKetWkJ9hzd2uH-617" value="" style="endArrow=classic;html=1;rounded=0;fontFamily=Times New Roman;fontSize=16;fontColor=default;startSize=0;entryX=0.155;entryY=0.997;entryDx=0;entryDy=0;entryPerimeter=0;" edge="1" parent="1">
          <mxGeometry width="50" height="50" relative="1" as="geometry">
            <mxPoint x="94.75" y="818.5" as="sourcePoint" />
            <mxPoint x="94.74999999999994" y="789.5" as="targetPoint" />
            <Array as="points">
              <mxPoint x="94.75" y="789.5" />
            </Array>
          </mxGeometry>
        </mxCell>
        <mxCell id="X-1EoEnKetWkJ9hzd2uH-618" value="" style="endArrow=classic;html=1;rounded=0;fontFamily=Times New Roman;fontSize=16;fontColor=default;startSize=0;entryX=0.155;entryY=0.997;entryDx=0;entryDy=0;entryPerimeter=0;" edge="1" parent="1">
          <mxGeometry width="50" height="50" relative="1" as="geometry">
            <mxPoint x="119.75" y="818.5" as="sourcePoint" />
            <mxPoint x="119.74999999999994" y="789.5" as="targetPoint" />
            <Array as="points">
              <mxPoint x="119.75" y="789.5" />
            </Array>
          </mxGeometry>
        </mxCell>
        <mxCell id="X-1EoEnKetWkJ9hzd2uH-619" value="4. Search Acc. 010 in Ci, R1, R2" style="text;html=1;align=center;verticalAlign=middle;resizable=0;points=[];autosize=1;strokeColor=none;fillColor=none;fontSize=12;fontFamily=Times New Roman;fontColor=default;" vertex="1" parent="1">
          <mxGeometry x="47" y="677" width="176" height="27" as="geometry" />
        </mxCell>
        <mxCell id="X-1EoEnKetWkJ9hzd2uH-620" value="" style="shape=table;startSize=0;container=1;collapsible=0;childLayout=tableLayout;fontSize=13;strokeColor=default;align=center;verticalAlign=middle;fontFamily=Times New Roman;fontColor=default;fillColor=default;" vertex="1" parent="1">
          <mxGeometry x="57.25" y="715.5" width="122.5" height="74.5" as="geometry" />
        </mxCell>
        <mxCell id="X-1EoEnKetWkJ9hzd2uH-621" value="" style="shape=tableRow;horizontal=0;startSize=0;swimlaneHead=0;swimlaneBody=0;strokeColor=inherit;top=0;left=0;bottom=0;right=0;collapsible=0;dropTarget=0;fillColor=none;points=[[0,0.5],[1,0.5]];portConstraint=eastwest;fontSize=16;align=center;verticalAlign=middle;fontFamily=Times New Roman;fontColor=default;" vertex="1" parent="X-1EoEnKetWkJ9hzd2uH-620">
          <mxGeometry width="122.5" height="24" as="geometry" />
        </mxCell>
        <mxCell id="X-1EoEnKetWkJ9hzd2uH-622" value="Ci" style="shape=partialRectangle;html=1;whiteSpace=wrap;connectable=0;strokeColor=inherit;overflow=hidden;fillColor=none;top=0;left=0;bottom=0;right=0;pointerEvents=1;fontSize=12;align=center;verticalAlign=middle;fontFamily=Times New Roman;fontColor=default;startSize=0;" vertex="1" parent="X-1EoEnKetWkJ9hzd2uH-621">
          <mxGeometry width="25" height="24" as="geometry">
            <mxRectangle width="25" height="24" as="alternateBounds" />
          </mxGeometry>
        </mxCell>
        <mxCell id="X-1EoEnKetWkJ9hzd2uH-623" value="R1" style="shape=partialRectangle;html=1;whiteSpace=wrap;connectable=0;strokeColor=inherit;overflow=hidden;fillColor=none;top=0;left=0;bottom=0;right=0;pointerEvents=1;fontSize=12;align=center;verticalAlign=middle;fontFamily=Times New Roman;fontColor=default;startSize=0;" vertex="1" parent="X-1EoEnKetWkJ9hzd2uH-621">
          <mxGeometry x="25" width="24" height="24" as="geometry">
            <mxRectangle width="24" height="24" as="alternateBounds" />
          </mxGeometry>
        </mxCell>
        <mxCell id="X-1EoEnKetWkJ9hzd2uH-624" value="R2" style="shape=partialRectangle;html=1;whiteSpace=wrap;connectable=0;strokeColor=inherit;overflow=hidden;fillColor=none;top=0;left=0;bottom=0;right=0;pointerEvents=1;fontSize=12;align=center;verticalAlign=middle;fontFamily=Times New Roman;fontColor=default;startSize=0;" vertex="1" parent="X-1EoEnKetWkJ9hzd2uH-621">
          <mxGeometry x="49" width="25" height="24" as="geometry">
            <mxRectangle width="25" height="24" as="alternateBounds" />
          </mxGeometry>
        </mxCell>
        <mxCell id="X-1EoEnKetWkJ9hzd2uH-625" value="R3" style="shape=partialRectangle;html=1;whiteSpace=wrap;connectable=0;strokeColor=inherit;overflow=hidden;fillColor=none;top=0;left=0;bottom=0;right=0;pointerEvents=1;fontSize=12;align=center;verticalAlign=middle;fontFamily=Times New Roman;fontColor=default;startSize=0;" vertex="1" parent="X-1EoEnKetWkJ9hzd2uH-621">
          <mxGeometry x="74" width="24" height="24" as="geometry">
            <mxRectangle width="24" height="24" as="alternateBounds" />
          </mxGeometry>
        </mxCell>
        <mxCell id="X-1EoEnKetWkJ9hzd2uH-626" value="Co" style="shape=partialRectangle;html=1;whiteSpace=wrap;connectable=0;strokeColor=inherit;overflow=hidden;fillColor=none;top=0;left=0;bottom=0;right=0;pointerEvents=1;fontSize=12;align=center;verticalAlign=middle;fontFamily=Times New Roman;fontColor=default;startSize=0;" vertex="1" parent="X-1EoEnKetWkJ9hzd2uH-621">
          <mxGeometry x="98" width="25" height="24" as="geometry">
            <mxRectangle width="25" height="24" as="alternateBounds" />
          </mxGeometry>
        </mxCell>
        <mxCell id="X-1EoEnKetWkJ9hzd2uH-627" value="" style="shape=tableRow;horizontal=0;startSize=0;swimlaneHead=0;swimlaneBody=0;strokeColor=inherit;top=0;left=0;bottom=0;right=0;collapsible=0;dropTarget=0;fillColor=none;points=[[0,0.5],[1,0.5]];portConstraint=eastwest;fontSize=16;align=center;verticalAlign=middle;fontFamily=Times New Roman;fontColor=default;" vertex="1" parent="X-1EoEnKetWkJ9hzd2uH-620">
          <mxGeometry y="24" width="122.5" height="25" as="geometry" />
        </mxCell>
        <mxCell id="X-1EoEnKetWkJ9hzd2uH-628" value="X" style="shape=partialRectangle;html=1;whiteSpace=wrap;connectable=0;strokeColor=inherit;overflow=hidden;fillColor=none;top=0;left=0;bottom=0;right=0;pointerEvents=1;fontSize=12;align=center;verticalAlign=middle;fontFamily=Times New Roman;fontColor=default;startSize=0;" vertex="1" parent="X-1EoEnKetWkJ9hzd2uH-627">
          <mxGeometry width="25" height="25" as="geometry">
            <mxRectangle width="25" height="25" as="alternateBounds" />
          </mxGeometry>
        </mxCell>
        <mxCell id="X-1EoEnKetWkJ9hzd2uH-629" value="0" style="shape=partialRectangle;html=1;whiteSpace=wrap;connectable=0;strokeColor=inherit;overflow=hidden;fillColor=none;top=0;left=0;bottom=0;right=0;pointerEvents=1;fontSize=12;align=center;verticalAlign=middle;fontFamily=Times New Roman;fontColor=default;startSize=0;" vertex="1" parent="X-1EoEnKetWkJ9hzd2uH-627">
          <mxGeometry x="25" width="24" height="25" as="geometry">
            <mxRectangle width="24" height="25" as="alternateBounds" />
          </mxGeometry>
        </mxCell>
        <mxCell id="X-1EoEnKetWkJ9hzd2uH-630" value="1" style="shape=partialRectangle;html=1;whiteSpace=wrap;connectable=0;strokeColor=inherit;overflow=hidden;fillColor=none;top=0;left=0;bottom=0;right=0;pointerEvents=1;fontSize=12;align=center;verticalAlign=middle;fontFamily=Times New Roman;fontColor=default;startSize=0;" vertex="1" parent="X-1EoEnKetWkJ9hzd2uH-627">
          <mxGeometry x="49" width="25" height="25" as="geometry">
            <mxRectangle width="25" height="25" as="alternateBounds" />
          </mxGeometry>
        </mxCell>
        <mxCell id="X-1EoEnKetWkJ9hzd2uH-631" value="&lt;b style=&quot;font-size: 12px;&quot;&gt;&lt;font style=&quot;font-size: 12px;&quot;&gt;0&lt;/font&gt;&lt;/b&gt;" style="shape=partialRectangle;html=1;whiteSpace=wrap;connectable=0;strokeColor=inherit;overflow=hidden;fillColor=none;top=0;left=0;bottom=0;right=0;pointerEvents=1;fontSize=12;align=center;verticalAlign=middle;fontFamily=Times New Roman;fontColor=default;startSize=0;" vertex="1" parent="X-1EoEnKetWkJ9hzd2uH-627">
          <mxGeometry x="74" width="24" height="25" as="geometry">
            <mxRectangle width="24" height="25" as="alternateBounds" />
          </mxGeometry>
        </mxCell>
        <mxCell id="X-1EoEnKetWkJ9hzd2uH-632" value="0" style="shape=partialRectangle;html=1;whiteSpace=wrap;connectable=0;strokeColor=inherit;overflow=hidden;fillColor=none;top=0;left=0;bottom=0;right=0;pointerEvents=1;fontSize=12;align=center;verticalAlign=middle;fontFamily=Times New Roman;fontColor=default;startSize=0;" vertex="1" parent="X-1EoEnKetWkJ9hzd2uH-627">
          <mxGeometry x="98" width="25" height="25" as="geometry">
            <mxRectangle width="25" height="25" as="alternateBounds" />
          </mxGeometry>
        </mxCell>
        <mxCell id="X-1EoEnKetWkJ9hzd2uH-633" value="" style="shape=tableRow;horizontal=0;startSize=0;swimlaneHead=0;swimlaneBody=0;strokeColor=inherit;top=0;left=0;bottom=0;right=0;collapsible=0;dropTarget=0;fillColor=none;points=[[0,0.5],[1,0.5]];portConstraint=eastwest;fontSize=16;align=center;verticalAlign=middle;fontFamily=Times New Roman;fontColor=default;" vertex="1" parent="X-1EoEnKetWkJ9hzd2uH-620">
          <mxGeometry y="49" width="122.5" height="26" as="geometry" />
        </mxCell>
        <mxCell id="X-1EoEnKetWkJ9hzd2uH-634" value="X" style="shape=partialRectangle;html=1;whiteSpace=wrap;connectable=0;strokeColor=inherit;overflow=hidden;fillColor=none;top=0;left=0;bottom=0;right=0;pointerEvents=1;fontSize=12;align=center;verticalAlign=middle;fontFamily=Times New Roman;fontColor=default;startSize=0;" vertex="1" parent="X-1EoEnKetWkJ9hzd2uH-633">
          <mxGeometry width="25" height="26" as="geometry">
            <mxRectangle width="25" height="26" as="alternateBounds" />
          </mxGeometry>
        </mxCell>
        <mxCell id="X-1EoEnKetWkJ9hzd2uH-635" value="0" style="shape=partialRectangle;html=1;whiteSpace=wrap;connectable=0;strokeColor=inherit;overflow=hidden;fillColor=none;top=0;left=0;bottom=0;right=0;pointerEvents=1;fontSize=12;align=center;verticalAlign=middle;fontFamily=Times New Roman;fontColor=default;startSize=0;" vertex="1" parent="X-1EoEnKetWkJ9hzd2uH-633">
          <mxGeometry x="25" width="24" height="26" as="geometry">
            <mxRectangle width="24" height="26" as="alternateBounds" />
          </mxGeometry>
        </mxCell>
        <mxCell id="X-1EoEnKetWkJ9hzd2uH-636" value="1" style="shape=partialRectangle;html=1;whiteSpace=wrap;connectable=0;strokeColor=inherit;overflow=hidden;fillColor=none;top=0;left=0;bottom=0;right=0;pointerEvents=1;fontSize=12;align=center;verticalAlign=middle;fontFamily=Times New Roman;fontColor=default;startSize=0;" vertex="1" parent="X-1EoEnKetWkJ9hzd2uH-633">
          <mxGeometry x="49" width="25" height="26" as="geometry">
            <mxRectangle width="25" height="26" as="alternateBounds" />
          </mxGeometry>
        </mxCell>
        <mxCell id="X-1EoEnKetWkJ9hzd2uH-637" value="&lt;font style=&quot;font-size: 12px;&quot;&gt;&lt;b style=&quot;font-size: 12px;&quot;&gt;0&lt;/b&gt;&lt;/font&gt;" style="shape=partialRectangle;html=1;whiteSpace=wrap;connectable=0;strokeColor=inherit;overflow=hidden;fillColor=none;top=0;left=0;bottom=0;right=0;pointerEvents=1;fontSize=12;align=center;verticalAlign=middle;fontFamily=Times New Roman;fontColor=default;startSize=0;" vertex="1" parent="X-1EoEnKetWkJ9hzd2uH-633">
          <mxGeometry x="74" width="24" height="26" as="geometry">
            <mxRectangle width="24" height="26" as="alternateBounds" />
          </mxGeometry>
        </mxCell>
        <mxCell id="X-1EoEnKetWkJ9hzd2uH-638" value="0" style="shape=partialRectangle;html=1;whiteSpace=wrap;connectable=0;strokeColor=inherit;overflow=hidden;fillColor=none;top=0;left=0;bottom=0;right=0;pointerEvents=1;fontSize=12;align=center;verticalAlign=middle;fontFamily=Times New Roman;fontColor=default;startSize=0;" vertex="1" parent="X-1EoEnKetWkJ9hzd2uH-633">
          <mxGeometry x="98" width="25" height="26" as="geometry">
            <mxRectangle width="25" height="26" as="alternateBounds" />
          </mxGeometry>
        </mxCell>
        <mxCell id="X-1EoEnKetWkJ9hzd2uH-639" value="" style="endArrow=classic;html=1;rounded=0;fontFamily=Times New Roman;fontSize=16;fontColor=default;startSize=0;exitX=1;exitY=0.5;exitDx=0;exitDy=0;" edge="1" parent="1" source="X-1EoEnKetWkJ9hzd2uH-627">
          <mxGeometry width="50" height="50" relative="1" as="geometry">
            <mxPoint x="184.75" y="782.5" as="sourcePoint" />
            <mxPoint x="207" y="752" as="targetPoint" />
          </mxGeometry>
        </mxCell>
        <mxCell id="X-1EoEnKetWkJ9hzd2uH-640" value="" style="endArrow=classic;html=1;rounded=0;fontFamily=Times New Roman;fontSize=16;fontColor=default;startSize=0;entryX=0.155;entryY=0.997;entryDx=0;entryDy=0;entryPerimeter=0;" edge="1" parent="1">
          <mxGeometry width="50" height="50" relative="1" as="geometry">
            <mxPoint x="144.75" y="818.5" as="sourcePoint" />
            <mxPoint x="144.74999999999994" y="789.5" as="targetPoint" />
            <Array as="points">
              <mxPoint x="144.75" y="789.5" />
            </Array>
          </mxGeometry>
        </mxCell>
        <mxCell id="X-1EoEnKetWkJ9hzd2uH-641" value="" style="endArrow=classic;html=1;rounded=0;fontFamily=Times New Roman;fontSize=16;fontColor=default;startSize=0;entryX=0.155;entryY=0.997;entryDx=0;entryDy=0;entryPerimeter=0;" edge="1" parent="1">
          <mxGeometry width="50" height="50" relative="1" as="geometry">
            <mxPoint x="168.75" y="818.5" as="sourcePoint" />
            <mxPoint x="168.74999999999994" y="789.5" as="targetPoint" />
            <Array as="points">
              <mxPoint x="168.75" y="789.5" />
            </Array>
          </mxGeometry>
        </mxCell>
        <mxCell id="X-1EoEnKetWkJ9hzd2uH-699" value="" style="shape=table;startSize=0;container=1;collapsible=0;childLayout=tableLayout;fontSize=12;strokeColor=default;align=center;verticalAlign=middle;fontFamily=Times New Roman;fontColor=default;fillColor=default;" vertex="1" parent="1">
          <mxGeometry x="275.25" y="818.5" width="123.5" height="26" as="geometry" />
        </mxCell>
        <mxCell id="X-1EoEnKetWkJ9hzd2uH-700" value="" style="shape=tableRow;horizontal=0;startSize=0;swimlaneHead=0;swimlaneBody=0;strokeColor=inherit;top=0;left=0;bottom=0;right=0;collapsible=0;dropTarget=0;fillColor=none;points=[[0,0.5],[1,0.5]];portConstraint=eastwest;fontSize=16;align=center;verticalAlign=middle;fontFamily=Times New Roman;fontColor=default;" vertex="1" parent="X-1EoEnKetWkJ9hzd2uH-699">
          <mxGeometry width="123.5" height="26" as="geometry" />
        </mxCell>
        <mxCell id="X-1EoEnKetWkJ9hzd2uH-701" value="&lt;b style=&quot;font-size: 12px;&quot;&gt;&lt;font color=&quot;#ff0000&quot; style=&quot;font-size: 12px;&quot;&gt;1&lt;/font&gt;&lt;/b&gt;" style="shape=partialRectangle;html=1;whiteSpace=wrap;connectable=0;strokeColor=inherit;overflow=hidden;fillColor=none;top=0;left=0;bottom=0;right=0;pointerEvents=1;fontSize=12;align=center;verticalAlign=middle;fontFamily=Times New Roman;fontColor=default;startSize=0;" vertex="1" parent="X-1EoEnKetWkJ9hzd2uH-700">
          <mxGeometry width="25" height="26" as="geometry">
            <mxRectangle width="25" height="26" as="alternateBounds" />
          </mxGeometry>
        </mxCell>
        <mxCell id="X-1EoEnKetWkJ9hzd2uH-702" value="&lt;font color=&quot;#ff0000&quot; style=&quot;font-size: 12px;&quot;&gt;&lt;b style=&quot;font-size: 12px;&quot;&gt;0&lt;/b&gt;&lt;/font&gt;" style="shape=partialRectangle;html=1;whiteSpace=wrap;connectable=0;strokeColor=inherit;overflow=hidden;fillColor=none;top=0;left=0;bottom=0;right=0;pointerEvents=1;fontSize=12;align=center;verticalAlign=middle;fontFamily=Times New Roman;fontColor=default;startSize=0;" vertex="1" parent="X-1EoEnKetWkJ9hzd2uH-700">
          <mxGeometry x="25" width="24" height="26" as="geometry">
            <mxRectangle width="24" height="26" as="alternateBounds" />
          </mxGeometry>
        </mxCell>
        <mxCell id="X-1EoEnKetWkJ9hzd2uH-703" value="&lt;b style=&quot;font-size: 12px;&quot;&gt;&lt;font color=&quot;#ff0000&quot; style=&quot;font-size: 12px;&quot;&gt;0&lt;/font&gt;&lt;/b&gt;" style="shape=partialRectangle;html=1;whiteSpace=wrap;connectable=0;strokeColor=inherit;overflow=hidden;fillColor=none;top=0;left=0;bottom=0;right=0;pointerEvents=1;fontSize=12;align=center;verticalAlign=middle;fontFamily=Times New Roman;fontColor=default;startSize=0;" vertex="1" parent="X-1EoEnKetWkJ9hzd2uH-700">
          <mxGeometry x="49" width="25" height="26" as="geometry">
            <mxRectangle width="25" height="26" as="alternateBounds" />
          </mxGeometry>
        </mxCell>
        <mxCell id="X-1EoEnKetWkJ9hzd2uH-704" value="X" style="shape=partialRectangle;html=1;whiteSpace=wrap;connectable=0;strokeColor=inherit;overflow=hidden;fillColor=none;top=0;left=0;bottom=0;right=0;pointerEvents=1;fontSize=12;align=center;verticalAlign=middle;fontFamily=Times New Roman;fontColor=default;startSize=0;" vertex="1" parent="X-1EoEnKetWkJ9hzd2uH-700">
          <mxGeometry x="74" width="25" height="26" as="geometry">
            <mxRectangle width="25" height="26" as="alternateBounds" />
          </mxGeometry>
        </mxCell>
        <mxCell id="X-1EoEnKetWkJ9hzd2uH-705" value="X" style="shape=partialRectangle;html=1;whiteSpace=wrap;connectable=0;strokeColor=inherit;overflow=hidden;fillColor=none;top=0;left=0;bottom=0;right=0;pointerEvents=1;fontSize=12;align=center;verticalAlign=middle;fontFamily=Times New Roman;fontColor=default;startSize=0;" vertex="1" parent="X-1EoEnKetWkJ9hzd2uH-700">
          <mxGeometry x="99" width="25" height="26" as="geometry">
            <mxRectangle width="25" height="26" as="alternateBounds" />
          </mxGeometry>
        </mxCell>
        <mxCell id="X-1EoEnKetWkJ9hzd2uH-706" value="SEARCH" style="text;html=1;align=center;verticalAlign=middle;resizable=0;points=[];autosize=1;strokeColor=none;fillColor=none;fontSize=12;fontFamily=Times New Roman;fontColor=default;" vertex="1" parent="1">
          <mxGeometry x="403.5" y="818" width="66" height="27" as="geometry" />
        </mxCell>
        <mxCell id="X-1EoEnKetWkJ9hzd2uH-707" value="" style="shape=table;startSize=0;container=1;collapsible=0;childLayout=tableLayout;fontSize=12;strokeColor=default;align=center;verticalAlign=middle;fontFamily=Times New Roman;fontColor=default;fillColor=default;fontStyle=1" vertex="1" parent="1">
          <mxGeometry x="425.25" y="740.5" width="22.5" height="50" as="geometry" />
        </mxCell>
        <mxCell id="X-1EoEnKetWkJ9hzd2uH-708" value="" style="shape=tableRow;horizontal=0;startSize=0;swimlaneHead=0;swimlaneBody=0;strokeColor=inherit;top=0;left=0;bottom=0;right=0;collapsible=0;dropTarget=0;fillColor=none;points=[[0,0.5],[1,0.5]];portConstraint=eastwest;fontSize=16;align=center;verticalAlign=middle;fontFamily=Times New Roman;fontColor=default;" vertex="1" parent="X-1EoEnKetWkJ9hzd2uH-707">
          <mxGeometry width="22.5" height="25" as="geometry" />
        </mxCell>
        <mxCell id="X-1EoEnKetWkJ9hzd2uH-709" style="shape=partialRectangle;html=1;whiteSpace=wrap;connectable=0;strokeColor=inherit;overflow=hidden;fillColor=none;top=0;left=0;bottom=0;right=0;pointerEvents=1;fontSize=16;align=center;verticalAlign=middle;fontFamily=Times New Roman;fontColor=default;startSize=0;" vertex="1" parent="X-1EoEnKetWkJ9hzd2uH-708">
          <mxGeometry height="25" as="geometry">
            <mxRectangle height="25" as="alternateBounds" />
          </mxGeometry>
        </mxCell>
        <mxCell id="X-1EoEnKetWkJ9hzd2uH-710" style="shape=partialRectangle;html=1;whiteSpace=wrap;connectable=0;strokeColor=inherit;overflow=hidden;fillColor=none;top=0;left=0;bottom=0;right=0;pointerEvents=1;fontSize=16;align=center;verticalAlign=middle;fontFamily=Times New Roman;fontColor=default;startSize=0;" vertex="1" parent="X-1EoEnKetWkJ9hzd2uH-708">
          <mxGeometry height="25" as="geometry">
            <mxRectangle height="25" as="alternateBounds" />
          </mxGeometry>
        </mxCell>
        <mxCell id="X-1EoEnKetWkJ9hzd2uH-711" style="shape=partialRectangle;html=1;whiteSpace=wrap;connectable=0;strokeColor=inherit;overflow=hidden;fillColor=none;top=0;left=0;bottom=0;right=0;pointerEvents=1;fontSize=16;align=center;verticalAlign=middle;fontFamily=Times New Roman;fontColor=default;startSize=0;" vertex="1" parent="X-1EoEnKetWkJ9hzd2uH-708">
          <mxGeometry height="25" as="geometry">
            <mxRectangle height="25" as="alternateBounds" />
          </mxGeometry>
        </mxCell>
        <mxCell id="X-1EoEnKetWkJ9hzd2uH-712" style="shape=partialRectangle;html=1;whiteSpace=wrap;connectable=0;strokeColor=inherit;overflow=hidden;fillColor=none;top=0;left=0;bottom=0;right=0;pointerEvents=1;fontSize=16;align=center;verticalAlign=middle;fontFamily=Times New Roman;fontColor=default;startSize=0;" vertex="1" parent="X-1EoEnKetWkJ9hzd2uH-708">
          <mxGeometry height="25" as="geometry">
            <mxRectangle height="25" as="alternateBounds" />
          </mxGeometry>
        </mxCell>
        <mxCell id="X-1EoEnKetWkJ9hzd2uH-713" style="shape=partialRectangle;html=1;whiteSpace=wrap;connectable=0;strokeColor=inherit;overflow=hidden;fillColor=none;top=0;left=0;bottom=0;right=0;pointerEvents=1;fontSize=16;align=center;verticalAlign=middle;fontFamily=Times New Roman;fontColor=default;startSize=0;" vertex="1" parent="X-1EoEnKetWkJ9hzd2uH-708">
          <mxGeometry height="25" as="geometry">
            <mxRectangle height="25" as="alternateBounds" />
          </mxGeometry>
        </mxCell>
        <mxCell id="X-1EoEnKetWkJ9hzd2uH-714" style="shape=partialRectangle;html=1;whiteSpace=wrap;connectable=0;strokeColor=inherit;overflow=hidden;fillColor=none;top=0;left=0;bottom=0;right=0;pointerEvents=1;fontSize=16;align=center;verticalAlign=middle;fontFamily=Times New Roman;fontColor=default;startSize=0;" vertex="1" parent="X-1EoEnKetWkJ9hzd2uH-708">
          <mxGeometry height="25" as="geometry">
            <mxRectangle height="25" as="alternateBounds" />
          </mxGeometry>
        </mxCell>
        <mxCell id="X-1EoEnKetWkJ9hzd2uH-715" style="shape=partialRectangle;html=1;whiteSpace=wrap;connectable=0;strokeColor=inherit;overflow=hidden;fillColor=none;top=0;left=0;bottom=0;right=0;pointerEvents=1;fontSize=16;align=center;verticalAlign=middle;fontFamily=Times New Roman;fontColor=default;startSize=0;" vertex="1" parent="X-1EoEnKetWkJ9hzd2uH-708">
          <mxGeometry height="25" as="geometry">
            <mxRectangle height="25" as="alternateBounds" />
          </mxGeometry>
        </mxCell>
        <mxCell id="X-1EoEnKetWkJ9hzd2uH-716" value="" style="shape=partialRectangle;html=1;whiteSpace=wrap;connectable=0;strokeColor=inherit;overflow=hidden;fillColor=none;top=0;left=0;bottom=0;right=0;pointerEvents=1;fontSize=16;align=center;verticalAlign=middle;fontFamily=Times New Roman;fontColor=default;startSize=0;" vertex="1" parent="X-1EoEnKetWkJ9hzd2uH-708">
          <mxGeometry height="25" as="geometry">
            <mxRectangle height="25" as="alternateBounds" />
          </mxGeometry>
        </mxCell>
        <mxCell id="X-1EoEnKetWkJ9hzd2uH-717" value="1" style="shape=partialRectangle;html=1;whiteSpace=wrap;connectable=0;strokeColor=inherit;overflow=hidden;fillColor=none;top=0;left=0;bottom=0;right=0;pointerEvents=1;fontSize=12;align=center;verticalAlign=middle;fontFamily=Times New Roman;fontColor=#FF0000;startSize=0;fontStyle=1" vertex="1" parent="X-1EoEnKetWkJ9hzd2uH-708">
          <mxGeometry width="23" height="25" as="geometry">
            <mxRectangle width="23" height="25" as="alternateBounds" />
          </mxGeometry>
        </mxCell>
        <mxCell id="X-1EoEnKetWkJ9hzd2uH-718" style="shape=tableRow;horizontal=0;startSize=0;swimlaneHead=0;swimlaneBody=0;strokeColor=inherit;top=0;left=0;bottom=0;right=0;collapsible=0;dropTarget=0;fillColor=none;points=[[0,0.5],[1,0.5]];portConstraint=eastwest;fontSize=16;align=center;verticalAlign=middle;fontFamily=Times New Roman;fontColor=default;" vertex="1" parent="X-1EoEnKetWkJ9hzd2uH-707">
          <mxGeometry y="25" width="22.5" height="25" as="geometry" />
        </mxCell>
        <mxCell id="X-1EoEnKetWkJ9hzd2uH-719" style="shape=partialRectangle;html=1;whiteSpace=wrap;connectable=0;strokeColor=inherit;overflow=hidden;fillColor=none;top=0;left=0;bottom=0;right=0;pointerEvents=1;fontSize=16;align=center;verticalAlign=middle;fontFamily=Times New Roman;fontColor=default;startSize=0;" vertex="1" parent="X-1EoEnKetWkJ9hzd2uH-718">
          <mxGeometry height="25" as="geometry">
            <mxRectangle height="25" as="alternateBounds" />
          </mxGeometry>
        </mxCell>
        <mxCell id="X-1EoEnKetWkJ9hzd2uH-720" style="shape=partialRectangle;html=1;whiteSpace=wrap;connectable=0;strokeColor=inherit;overflow=hidden;fillColor=none;top=0;left=0;bottom=0;right=0;pointerEvents=1;fontSize=16;align=center;verticalAlign=middle;fontFamily=Times New Roman;fontColor=default;startSize=0;" vertex="1" parent="X-1EoEnKetWkJ9hzd2uH-718">
          <mxGeometry height="25" as="geometry">
            <mxRectangle height="25" as="alternateBounds" />
          </mxGeometry>
        </mxCell>
        <mxCell id="X-1EoEnKetWkJ9hzd2uH-721" style="shape=partialRectangle;html=1;whiteSpace=wrap;connectable=0;strokeColor=inherit;overflow=hidden;fillColor=none;top=0;left=0;bottom=0;right=0;pointerEvents=1;fontSize=16;align=center;verticalAlign=middle;fontFamily=Times New Roman;fontColor=default;startSize=0;" vertex="1" parent="X-1EoEnKetWkJ9hzd2uH-718">
          <mxGeometry height="25" as="geometry">
            <mxRectangle height="25" as="alternateBounds" />
          </mxGeometry>
        </mxCell>
        <mxCell id="X-1EoEnKetWkJ9hzd2uH-722" style="shape=partialRectangle;html=1;whiteSpace=wrap;connectable=0;strokeColor=inherit;overflow=hidden;fillColor=none;top=0;left=0;bottom=0;right=0;pointerEvents=1;fontSize=16;align=center;verticalAlign=middle;fontFamily=Times New Roman;fontColor=default;startSize=0;" vertex="1" parent="X-1EoEnKetWkJ9hzd2uH-718">
          <mxGeometry height="25" as="geometry">
            <mxRectangle height="25" as="alternateBounds" />
          </mxGeometry>
        </mxCell>
        <mxCell id="X-1EoEnKetWkJ9hzd2uH-723" style="shape=partialRectangle;html=1;whiteSpace=wrap;connectable=0;strokeColor=inherit;overflow=hidden;fillColor=none;top=0;left=0;bottom=0;right=0;pointerEvents=1;fontSize=16;align=center;verticalAlign=middle;fontFamily=Times New Roman;fontColor=default;startSize=0;" vertex="1" parent="X-1EoEnKetWkJ9hzd2uH-718">
          <mxGeometry height="25" as="geometry">
            <mxRectangle height="25" as="alternateBounds" />
          </mxGeometry>
        </mxCell>
        <mxCell id="X-1EoEnKetWkJ9hzd2uH-724" style="shape=partialRectangle;html=1;whiteSpace=wrap;connectable=0;strokeColor=inherit;overflow=hidden;fillColor=none;top=0;left=0;bottom=0;right=0;pointerEvents=1;fontSize=16;align=center;verticalAlign=middle;fontFamily=Times New Roman;fontColor=default;startSize=0;" vertex="1" parent="X-1EoEnKetWkJ9hzd2uH-718">
          <mxGeometry height="25" as="geometry">
            <mxRectangle height="25" as="alternateBounds" />
          </mxGeometry>
        </mxCell>
        <mxCell id="X-1EoEnKetWkJ9hzd2uH-725" style="shape=partialRectangle;html=1;whiteSpace=wrap;connectable=0;strokeColor=inherit;overflow=hidden;fillColor=none;top=0;left=0;bottom=0;right=0;pointerEvents=1;fontSize=16;align=center;verticalAlign=middle;fontFamily=Times New Roman;fontColor=default;startSize=0;" vertex="1" parent="X-1EoEnKetWkJ9hzd2uH-718">
          <mxGeometry height="25" as="geometry">
            <mxRectangle height="25" as="alternateBounds" />
          </mxGeometry>
        </mxCell>
        <mxCell id="X-1EoEnKetWkJ9hzd2uH-726" style="shape=partialRectangle;html=1;whiteSpace=wrap;connectable=0;strokeColor=inherit;overflow=hidden;fillColor=none;top=0;left=0;bottom=0;right=0;pointerEvents=1;fontSize=16;align=center;verticalAlign=middle;fontFamily=Times New Roman;fontColor=default;startSize=0;" vertex="1" parent="X-1EoEnKetWkJ9hzd2uH-718">
          <mxGeometry height="25" as="geometry">
            <mxRectangle height="25" as="alternateBounds" />
          </mxGeometry>
        </mxCell>
        <mxCell id="X-1EoEnKetWkJ9hzd2uH-727" value="1" style="shape=partialRectangle;html=1;whiteSpace=wrap;connectable=0;strokeColor=inherit;overflow=hidden;fillColor=none;top=0;left=0;bottom=0;right=0;pointerEvents=1;fontSize=12;align=center;verticalAlign=middle;fontFamily=Times New Roman;fontColor=#FF0000;startSize=0;fontStyle=1" vertex="1" parent="X-1EoEnKetWkJ9hzd2uH-718">
          <mxGeometry width="23" height="25" as="geometry">
            <mxRectangle width="23" height="25" as="alternateBounds" />
          </mxGeometry>
        </mxCell>
        <mxCell id="X-1EoEnKetWkJ9hzd2uH-728" value="TAG" style="text;html=1;align=center;verticalAlign=middle;resizable=0;points=[];autosize=1;strokeColor=none;fillColor=none;fontSize=12;fontFamily=Times New Roman;fontColor=default;" vertex="1" parent="1">
          <mxGeometry x="415" y="713.5" width="43" height="27" as="geometry" />
        </mxCell>
        <mxCell id="X-1EoEnKetWkJ9hzd2uH-729" value="" style="endArrow=classic;html=1;rounded=0;fontFamily=Times New Roman;fontSize=16;fontColor=default;startSize=0;exitX=1.003;exitY=0.485;exitDx=0;exitDy=0;exitPerimeter=0;" edge="1" parent="1" source="X-1EoEnKetWkJ9hzd2uH-747">
          <mxGeometry width="50" height="50" relative="1" as="geometry">
            <mxPoint x="392.75" y="760.5" as="sourcePoint" />
            <mxPoint x="425" y="777" as="targetPoint" />
          </mxGeometry>
        </mxCell>
        <mxCell id="X-1EoEnKetWkJ9hzd2uH-730" value="" style="endArrow=classic;html=1;rounded=0;fontFamily=Times New Roman;fontSize=16;fontColor=default;startSize=0;entryX=0.105;entryY=0.919;entryDx=0;entryDy=0;entryPerimeter=0;" edge="1" parent="1">
          <mxGeometry width="50" height="50" relative="1" as="geometry">
            <mxPoint x="287.75" y="818.5" as="sourcePoint" />
            <mxPoint x="288.1125" y="789.504" as="targetPoint" />
          </mxGeometry>
        </mxCell>
        <mxCell id="X-1EoEnKetWkJ9hzd2uH-731" value="" style="endArrow=classic;html=1;rounded=0;fontFamily=Times New Roman;fontSize=16;fontColor=default;startSize=0;entryX=0.155;entryY=0.997;entryDx=0;entryDy=0;entryPerimeter=0;" edge="1" parent="1">
          <mxGeometry width="50" height="50" relative="1" as="geometry">
            <mxPoint x="312.75" y="818.5" as="sourcePoint" />
            <mxPoint x="312.74999999999994" y="789.5" as="targetPoint" />
            <Array as="points">
              <mxPoint x="312.75" y="789.5" />
            </Array>
          </mxGeometry>
        </mxCell>
        <mxCell id="X-1EoEnKetWkJ9hzd2uH-732" value="" style="endArrow=classic;html=1;rounded=0;fontFamily=Times New Roman;fontSize=16;fontColor=default;startSize=0;entryX=0.155;entryY=0.997;entryDx=0;entryDy=0;entryPerimeter=0;" edge="1" parent="1">
          <mxGeometry width="50" height="50" relative="1" as="geometry">
            <mxPoint x="337.75" y="818.5" as="sourcePoint" />
            <mxPoint x="337.74999999999994" y="789.5" as="targetPoint" />
            <Array as="points">
              <mxPoint x="337.75" y="789.5" />
            </Array>
          </mxGeometry>
        </mxCell>
        <mxCell id="X-1EoEnKetWkJ9hzd2uH-733" value="5. Search Acc. 100 in Ci, R1, R2" style="text;html=1;align=center;verticalAlign=middle;resizable=0;points=[];autosize=1;strokeColor=none;fillColor=none;fontSize=12;fontFamily=Times New Roman;fontColor=default;" vertex="1" parent="1">
          <mxGeometry x="265" y="677" width="176" height="27" as="geometry" />
        </mxCell>
        <mxCell id="X-1EoEnKetWkJ9hzd2uH-734" value="" style="shape=table;startSize=0;container=1;collapsible=0;childLayout=tableLayout;fontSize=13;strokeColor=default;align=center;verticalAlign=middle;fontFamily=Times New Roman;fontColor=default;fillColor=default;" vertex="1" parent="1">
          <mxGeometry x="275.25" y="715.5" width="122.5" height="74.5" as="geometry" />
        </mxCell>
        <mxCell id="X-1EoEnKetWkJ9hzd2uH-735" value="" style="shape=tableRow;horizontal=0;startSize=0;swimlaneHead=0;swimlaneBody=0;strokeColor=inherit;top=0;left=0;bottom=0;right=0;collapsible=0;dropTarget=0;fillColor=none;points=[[0,0.5],[1,0.5]];portConstraint=eastwest;fontSize=16;align=center;verticalAlign=middle;fontFamily=Times New Roman;fontColor=default;" vertex="1" parent="X-1EoEnKetWkJ9hzd2uH-734">
          <mxGeometry width="122.5" height="24" as="geometry" />
        </mxCell>
        <mxCell id="X-1EoEnKetWkJ9hzd2uH-736" value="Ci" style="shape=partialRectangle;html=1;whiteSpace=wrap;connectable=0;strokeColor=inherit;overflow=hidden;fillColor=none;top=0;left=0;bottom=0;right=0;pointerEvents=1;fontSize=12;align=center;verticalAlign=middle;fontFamily=Times New Roman;fontColor=default;startSize=0;" vertex="1" parent="X-1EoEnKetWkJ9hzd2uH-735">
          <mxGeometry width="25" height="24" as="geometry">
            <mxRectangle width="25" height="24" as="alternateBounds" />
          </mxGeometry>
        </mxCell>
        <mxCell id="X-1EoEnKetWkJ9hzd2uH-737" value="R1" style="shape=partialRectangle;html=1;whiteSpace=wrap;connectable=0;strokeColor=inherit;overflow=hidden;fillColor=none;top=0;left=0;bottom=0;right=0;pointerEvents=1;fontSize=12;align=center;verticalAlign=middle;fontFamily=Times New Roman;fontColor=default;startSize=0;" vertex="1" parent="X-1EoEnKetWkJ9hzd2uH-735">
          <mxGeometry x="25" width="24" height="24" as="geometry">
            <mxRectangle width="24" height="24" as="alternateBounds" />
          </mxGeometry>
        </mxCell>
        <mxCell id="X-1EoEnKetWkJ9hzd2uH-738" value="R2" style="shape=partialRectangle;html=1;whiteSpace=wrap;connectable=0;strokeColor=inherit;overflow=hidden;fillColor=none;top=0;left=0;bottom=0;right=0;pointerEvents=1;fontSize=12;align=center;verticalAlign=middle;fontFamily=Times New Roman;fontColor=default;startSize=0;" vertex="1" parent="X-1EoEnKetWkJ9hzd2uH-735">
          <mxGeometry x="49" width="25" height="24" as="geometry">
            <mxRectangle width="25" height="24" as="alternateBounds" />
          </mxGeometry>
        </mxCell>
        <mxCell id="X-1EoEnKetWkJ9hzd2uH-739" value="R3" style="shape=partialRectangle;html=1;whiteSpace=wrap;connectable=0;strokeColor=inherit;overflow=hidden;fillColor=none;top=0;left=0;bottom=0;right=0;pointerEvents=1;fontSize=12;align=center;verticalAlign=middle;fontFamily=Times New Roman;fontColor=default;startSize=0;" vertex="1" parent="X-1EoEnKetWkJ9hzd2uH-735">
          <mxGeometry x="74" width="24" height="24" as="geometry">
            <mxRectangle width="24" height="24" as="alternateBounds" />
          </mxGeometry>
        </mxCell>
        <mxCell id="X-1EoEnKetWkJ9hzd2uH-740" value="Co" style="shape=partialRectangle;html=1;whiteSpace=wrap;connectable=0;strokeColor=inherit;overflow=hidden;fillColor=none;top=0;left=0;bottom=0;right=0;pointerEvents=1;fontSize=12;align=center;verticalAlign=middle;fontFamily=Times New Roman;fontColor=default;startSize=0;" vertex="1" parent="X-1EoEnKetWkJ9hzd2uH-735">
          <mxGeometry x="98" width="25" height="24" as="geometry">
            <mxRectangle width="25" height="24" as="alternateBounds" />
          </mxGeometry>
        </mxCell>
        <mxCell id="X-1EoEnKetWkJ9hzd2uH-741" value="" style="shape=tableRow;horizontal=0;startSize=0;swimlaneHead=0;swimlaneBody=0;strokeColor=inherit;top=0;left=0;bottom=0;right=0;collapsible=0;dropTarget=0;fillColor=none;points=[[0,0.5],[1,0.5]];portConstraint=eastwest;fontSize=16;align=center;verticalAlign=middle;fontFamily=Times New Roman;fontColor=default;" vertex="1" parent="X-1EoEnKetWkJ9hzd2uH-734">
          <mxGeometry y="24" width="122.5" height="25" as="geometry" />
        </mxCell>
        <mxCell id="X-1EoEnKetWkJ9hzd2uH-742" value="X" style="shape=partialRectangle;html=1;whiteSpace=wrap;connectable=0;strokeColor=inherit;overflow=hidden;fillColor=none;top=0;left=0;bottom=0;right=0;pointerEvents=1;fontSize=12;align=center;verticalAlign=middle;fontFamily=Times New Roman;fontColor=default;startSize=0;" vertex="1" parent="X-1EoEnKetWkJ9hzd2uH-741">
          <mxGeometry width="25" height="25" as="geometry">
            <mxRectangle width="25" height="25" as="alternateBounds" />
          </mxGeometry>
        </mxCell>
        <mxCell id="X-1EoEnKetWkJ9hzd2uH-743" value="0" style="shape=partialRectangle;html=1;whiteSpace=wrap;connectable=0;strokeColor=inherit;overflow=hidden;fillColor=none;top=0;left=0;bottom=0;right=0;pointerEvents=1;fontSize=12;align=center;verticalAlign=middle;fontFamily=Times New Roman;fontColor=default;startSize=0;" vertex="1" parent="X-1EoEnKetWkJ9hzd2uH-741">
          <mxGeometry x="25" width="24" height="25" as="geometry">
            <mxRectangle width="24" height="25" as="alternateBounds" />
          </mxGeometry>
        </mxCell>
        <mxCell id="X-1EoEnKetWkJ9hzd2uH-744" value="1" style="shape=partialRectangle;html=1;whiteSpace=wrap;connectable=0;strokeColor=inherit;overflow=hidden;fillColor=none;top=0;left=0;bottom=0;right=0;pointerEvents=1;fontSize=12;align=center;verticalAlign=middle;fontFamily=Times New Roman;fontColor=default;startSize=0;" vertex="1" parent="X-1EoEnKetWkJ9hzd2uH-741">
          <mxGeometry x="49" width="25" height="25" as="geometry">
            <mxRectangle width="25" height="25" as="alternateBounds" />
          </mxGeometry>
        </mxCell>
        <mxCell id="X-1EoEnKetWkJ9hzd2uH-745" value="&lt;b style=&quot;font-size: 12px;&quot;&gt;&lt;font style=&quot;font-size: 12px;&quot;&gt;0&lt;/font&gt;&lt;/b&gt;" style="shape=partialRectangle;html=1;whiteSpace=wrap;connectable=0;strokeColor=inherit;overflow=hidden;fillColor=none;top=0;left=0;bottom=0;right=0;pointerEvents=1;fontSize=12;align=center;verticalAlign=middle;fontFamily=Times New Roman;fontColor=default;startSize=0;" vertex="1" parent="X-1EoEnKetWkJ9hzd2uH-741">
          <mxGeometry x="74" width="24" height="25" as="geometry">
            <mxRectangle width="24" height="25" as="alternateBounds" />
          </mxGeometry>
        </mxCell>
        <mxCell id="X-1EoEnKetWkJ9hzd2uH-746" value="0" style="shape=partialRectangle;html=1;whiteSpace=wrap;connectable=0;strokeColor=inherit;overflow=hidden;fillColor=none;top=0;left=0;bottom=0;right=0;pointerEvents=1;fontSize=12;align=center;verticalAlign=middle;fontFamily=Times New Roman;fontColor=default;startSize=0;" vertex="1" parent="X-1EoEnKetWkJ9hzd2uH-741">
          <mxGeometry x="98" width="25" height="25" as="geometry">
            <mxRectangle width="25" height="25" as="alternateBounds" />
          </mxGeometry>
        </mxCell>
        <mxCell id="X-1EoEnKetWkJ9hzd2uH-747" value="" style="shape=tableRow;horizontal=0;startSize=0;swimlaneHead=0;swimlaneBody=0;strokeColor=inherit;top=0;left=0;bottom=0;right=0;collapsible=0;dropTarget=0;fillColor=none;points=[[0,0.5],[1,0.5]];portConstraint=eastwest;fontSize=16;align=center;verticalAlign=middle;fontFamily=Times New Roman;fontColor=default;" vertex="1" parent="X-1EoEnKetWkJ9hzd2uH-734">
          <mxGeometry y="49" width="122.5" height="26" as="geometry" />
        </mxCell>
        <mxCell id="X-1EoEnKetWkJ9hzd2uH-748" value="X" style="shape=partialRectangle;html=1;whiteSpace=wrap;connectable=0;strokeColor=inherit;overflow=hidden;fillColor=none;top=0;left=0;bottom=0;right=0;pointerEvents=1;fontSize=12;align=center;verticalAlign=middle;fontFamily=Times New Roman;fontColor=default;startSize=0;" vertex="1" parent="X-1EoEnKetWkJ9hzd2uH-747">
          <mxGeometry width="25" height="26" as="geometry">
            <mxRectangle width="25" height="26" as="alternateBounds" />
          </mxGeometry>
        </mxCell>
        <mxCell id="X-1EoEnKetWkJ9hzd2uH-749" value="0" style="shape=partialRectangle;html=1;whiteSpace=wrap;connectable=0;strokeColor=inherit;overflow=hidden;fillColor=none;top=0;left=0;bottom=0;right=0;pointerEvents=1;fontSize=12;align=center;verticalAlign=middle;fontFamily=Times New Roman;fontColor=default;startSize=0;" vertex="1" parent="X-1EoEnKetWkJ9hzd2uH-747">
          <mxGeometry x="25" width="24" height="26" as="geometry">
            <mxRectangle width="24" height="26" as="alternateBounds" />
          </mxGeometry>
        </mxCell>
        <mxCell id="X-1EoEnKetWkJ9hzd2uH-750" value="1" style="shape=partialRectangle;html=1;whiteSpace=wrap;connectable=0;strokeColor=inherit;overflow=hidden;fillColor=none;top=0;left=0;bottom=0;right=0;pointerEvents=1;fontSize=12;align=center;verticalAlign=middle;fontFamily=Times New Roman;fontColor=default;startSize=0;" vertex="1" parent="X-1EoEnKetWkJ9hzd2uH-747">
          <mxGeometry x="49" width="25" height="26" as="geometry">
            <mxRectangle width="25" height="26" as="alternateBounds" />
          </mxGeometry>
        </mxCell>
        <mxCell id="X-1EoEnKetWkJ9hzd2uH-751" value="&lt;font style=&quot;font-size: 12px;&quot;&gt;&lt;b style=&quot;font-size: 12px;&quot;&gt;0&lt;/b&gt;&lt;/font&gt;" style="shape=partialRectangle;html=1;whiteSpace=wrap;connectable=0;strokeColor=inherit;overflow=hidden;fillColor=none;top=0;left=0;bottom=0;right=0;pointerEvents=1;fontSize=12;align=center;verticalAlign=middle;fontFamily=Times New Roman;fontColor=default;startSize=0;" vertex="1" parent="X-1EoEnKetWkJ9hzd2uH-747">
          <mxGeometry x="74" width="24" height="26" as="geometry">
            <mxRectangle width="24" height="26" as="alternateBounds" />
          </mxGeometry>
        </mxCell>
        <mxCell id="X-1EoEnKetWkJ9hzd2uH-752" value="0" style="shape=partialRectangle;html=1;whiteSpace=wrap;connectable=0;strokeColor=inherit;overflow=hidden;fillColor=none;top=0;left=0;bottom=0;right=0;pointerEvents=1;fontSize=12;align=center;verticalAlign=middle;fontFamily=Times New Roman;fontColor=default;startSize=0;" vertex="1" parent="X-1EoEnKetWkJ9hzd2uH-747">
          <mxGeometry x="98" width="25" height="26" as="geometry">
            <mxRectangle width="25" height="26" as="alternateBounds" />
          </mxGeometry>
        </mxCell>
        <mxCell id="X-1EoEnKetWkJ9hzd2uH-753" value="" style="endArrow=classic;html=1;rounded=0;fontFamily=Times New Roman;fontSize=16;fontColor=default;startSize=0;exitX=1;exitY=0.5;exitDx=0;exitDy=0;" edge="1" parent="1" source="X-1EoEnKetWkJ9hzd2uH-741">
          <mxGeometry width="50" height="50" relative="1" as="geometry">
            <mxPoint x="402.75" y="782.5" as="sourcePoint" />
            <mxPoint x="425" y="752" as="targetPoint" />
          </mxGeometry>
        </mxCell>
        <mxCell id="X-1EoEnKetWkJ9hzd2uH-754" value="" style="endArrow=classic;html=1;rounded=0;fontFamily=Times New Roman;fontSize=16;fontColor=default;startSize=0;entryX=0.155;entryY=0.997;entryDx=0;entryDy=0;entryPerimeter=0;" edge="1" parent="1">
          <mxGeometry width="50" height="50" relative="1" as="geometry">
            <mxPoint x="362.75" y="818.5" as="sourcePoint" />
            <mxPoint x="362.74999999999994" y="789.5" as="targetPoint" />
            <Array as="points">
              <mxPoint x="362.75" y="789.5" />
            </Array>
          </mxGeometry>
        </mxCell>
        <mxCell id="X-1EoEnKetWkJ9hzd2uH-755" value="" style="endArrow=classic;html=1;rounded=0;fontFamily=Times New Roman;fontSize=16;fontColor=default;startSize=0;entryX=0.155;entryY=0.997;entryDx=0;entryDy=0;entryPerimeter=0;" edge="1" parent="1">
          <mxGeometry width="50" height="50" relative="1" as="geometry">
            <mxPoint x="386.75" y="818.5" as="sourcePoint" />
            <mxPoint x="386.74999999999994" y="789.5" as="targetPoint" />
            <Array as="points">
              <mxPoint x="386.75" y="789.5" />
            </Array>
          </mxGeometry>
        </mxCell>
      </root>
    </mxGraphModel>
  </diagram>
</mxfile>
